M48
; DRILL file {KiCad (6.0.4-0)} date 2022 March 29, Tuesday 19:53:51
; FORMAT={-:-/ absolute / inch / decimal}
; #@! TF.CreationDate,2022-03-29T19:53:51-03:00
; #@! TF.GenerationSoftware,Kicad,Pcbnew,(6.0.4-0)
; #@! TF.FileFunction,Plated,1,2,PTH
FMAT,2
INCH
; #@! TA.AperFunction,Plated,PTH,ViaDrill
T1C0.0236
; #@! TA.AperFunction,Plated,PTH,ComponentDrill
T2C0.0354
; #@! TA.AperFunction,Plated,PTH,ComponentDrill
T3C0.0394
; #@! TA.AperFunction,Plated,PTH,ComponentDrill
T4C0.0512
%
G90
G05
T1
X2.675Y-3.575
X3.05Y-3.575
X4.475Y-3.875
X5.65Y-3.775
X5.775Y-3.95
X6.85Y-3.85
T2
X3.25Y-3.7
X3.25Y-3.8
X3.25Y-3.9
X3.25Y-4.0
X3.25Y-4.1
X3.25Y-4.2
X3.25Y-4.3
X3.25Y-4.4
X3.25Y-4.5
X3.25Y-4.6
X4.25Y-3.7
X4.25Y-3.8
X4.25Y-3.9
X4.25Y-4.0
X4.25Y-4.1
X4.25Y-4.2
X4.25Y-4.3
X4.25Y-4.4
X4.25Y-4.5
X4.25Y-4.6
T3
X4.7Y-3.5
X4.7Y-4.2
X4.8Y-3.5
X4.8Y-4.2
X4.9Y-3.5
X4.9Y-4.2
X5.3Y-3.5
X5.3Y-4.2
X5.4Y-3.5
X5.4Y-4.2
X5.5Y-3.5
X5.5Y-4.2
X5.9Y-3.5
X5.9Y-4.2
X6.0Y-3.5
X6.0Y-4.2
X6.1Y-3.5
X6.1Y-4.2
X6.5Y-3.5
X6.5Y-4.2
X6.6Y-3.5
X6.6Y-4.2
X6.7Y-3.5
X6.7Y-4.2
T4
X2.75Y-4.6
X2.95Y-4.6
X4.6Y-3.1
X4.6Y-4.6
X4.8Y-3.1
X4.8Y-4.6
X5.0Y-3.1
X5.0Y-4.6
X5.2Y-3.1
X5.2Y-4.6
X5.4Y-3.1
X5.4Y-4.6
X5.6Y-3.1
X5.6Y-4.6
X5.8Y-3.1
X5.8Y-4.6
X6.0Y-3.1
X6.0Y-4.6
X6.2Y-3.1
X6.2Y-4.6
X6.4Y-3.1
X6.4Y-4.6
X6.6Y-3.1
X6.6Y-4.6
X6.8Y-3.1
X6.8Y-4.6
T0
M30
