G04 #@! TF.GenerationSoftware,KiCad,Pcbnew,(6.0.4)*
G04 #@! TF.CreationDate,2022-03-29T14:19:39-03:00*
G04 #@! TF.ProjectId,ESP-pwm_8ch-V1,4553502d-7077-46d5-9f38-63682d56312e,rev?*
G04 #@! TF.SameCoordinates,Original*
G04 #@! TF.FileFunction,Copper,L1,Top*
G04 #@! TF.FilePolarity,Positive*
%FSLAX46Y46*%
G04 Gerber Fmt 4.6, Leading zero omitted, Abs format (unit mm)*
G04 Created by KiCad (PCBNEW (6.0.4)) date 2022-03-29 14:19:39*
%MOMM*%
%LPD*%
G01*
G04 APERTURE LIST*
G04 Aperture macros list*
%AMRoundRect*
0 Rectangle with rounded corners*
0 $1 Rounding radius*
0 $2 $3 $4 $5 $6 $7 $8 $9 X,Y pos of 4 corners*
0 Add a 4 corners polygon primitive as box body*
4,1,4,$2,$3,$4,$5,$6,$7,$8,$9,$2,$3,0*
0 Add four circle primitives for the rounded corners*
1,1,$1+$1,$2,$3*
1,1,$1+$1,$4,$5*
1,1,$1+$1,$6,$7*
1,1,$1+$1,$8,$9*
0 Add four rect primitives between the rounded corners*
20,1,$1+$1,$2,$3,$4,$5,0*
20,1,$1+$1,$4,$5,$6,$7,0*
20,1,$1+$1,$6,$7,$8,$9,0*
20,1,$1+$1,$8,$9,$2,$3,0*%
G04 Aperture macros list end*
G04 #@! TA.AperFunction,ComponentPad*
%ADD10R,2.500000X1.750000*%
G04 #@! TD*
G04 #@! TA.AperFunction,ComponentPad*
%ADD11O,2.500000X1.750000*%
G04 #@! TD*
G04 #@! TA.AperFunction,SMDPad,CuDef*
%ADD12RoundRect,0.150000X0.150000X-0.825000X0.150000X0.825000X-0.150000X0.825000X-0.150000X-0.825000X0*%
G04 #@! TD*
G04 #@! TA.AperFunction,SMDPad,CuDef*
%ADD13RoundRect,0.250000X-0.475000X0.250000X-0.475000X-0.250000X0.475000X-0.250000X0.475000X0.250000X0*%
G04 #@! TD*
G04 #@! TA.AperFunction,SMDPad,CuDef*
%ADD14RoundRect,0.218750X-0.218750X-0.256250X0.218750X-0.256250X0.218750X0.256250X-0.218750X0.256250X0*%
G04 #@! TD*
G04 #@! TA.AperFunction,ComponentPad*
%ADD15R,2.000000X2.500000*%
G04 #@! TD*
G04 #@! TA.AperFunction,ComponentPad*
%ADD16O,2.000000X2.500000*%
G04 #@! TD*
G04 #@! TA.AperFunction,SMDPad,CuDef*
%ADD17RoundRect,0.250000X0.450000X-0.262500X0.450000X0.262500X-0.450000X0.262500X-0.450000X-0.262500X0*%
G04 #@! TD*
G04 #@! TA.AperFunction,ComponentPad*
%ADD18R,3.500000X3.500000*%
G04 #@! TD*
G04 #@! TA.AperFunction,ComponentPad*
%ADD19C,3.500000*%
G04 #@! TD*
G04 #@! TA.AperFunction,SMDPad,CuDef*
%ADD20RoundRect,0.250000X0.262500X0.450000X-0.262500X0.450000X-0.262500X-0.450000X0.262500X-0.450000X0*%
G04 #@! TD*
G04 #@! TA.AperFunction,SMDPad,CuDef*
%ADD21RoundRect,0.250000X0.475000X-0.250000X0.475000X0.250000X-0.475000X0.250000X-0.475000X-0.250000X0*%
G04 #@! TD*
G04 #@! TA.AperFunction,SMDPad,CuDef*
%ADD22R,1.600000X2.200000*%
G04 #@! TD*
G04 #@! TA.AperFunction,SMDPad,CuDef*
%ADD23R,5.800000X6.400000*%
G04 #@! TD*
G04 #@! TA.AperFunction,SMDPad,CuDef*
%ADD24RoundRect,0.150000X-0.150000X0.825000X-0.150000X-0.825000X0.150000X-0.825000X0.150000X0.825000X0*%
G04 #@! TD*
G04 #@! TA.AperFunction,SMDPad,CuDef*
%ADD25RoundRect,0.250000X0.425000X-0.537500X0.425000X0.537500X-0.425000X0.537500X-0.425000X-0.537500X0*%
G04 #@! TD*
G04 #@! TA.AperFunction,SMDPad,CuDef*
%ADD26RoundRect,0.250000X-0.425000X0.537500X-0.425000X-0.537500X0.425000X-0.537500X0.425000X0.537500X0*%
G04 #@! TD*
G04 #@! TA.AperFunction,SMDPad,CuDef*
%ADD27RoundRect,0.250000X-1.500000X-0.550000X1.500000X-0.550000X1.500000X0.550000X-1.500000X0.550000X0*%
G04 #@! TD*
G04 #@! TA.AperFunction,SMDPad,CuDef*
%ADD28RoundRect,0.250000X-0.537500X-0.425000X0.537500X-0.425000X0.537500X0.425000X-0.537500X0.425000X0*%
G04 #@! TD*
G04 #@! TA.AperFunction,SMDPad,CuDef*
%ADD29RoundRect,0.325000X0.325000X0.550000X-0.325000X0.550000X-0.325000X-0.550000X0.325000X-0.550000X0*%
G04 #@! TD*
G04 #@! TA.AperFunction,SMDPad,CuDef*
%ADD30RoundRect,0.250000X-0.250000X-0.475000X0.250000X-0.475000X0.250000X0.475000X-0.250000X0.475000X0*%
G04 #@! TD*
G04 #@! TA.AperFunction,SMDPad,CuDef*
%ADD31RoundRect,0.250000X-0.262500X-0.450000X0.262500X-0.450000X0.262500X0.450000X-0.262500X0.450000X0*%
G04 #@! TD*
G04 #@! TA.AperFunction,ViaPad*
%ADD32C,1.200000*%
G04 #@! TD*
G04 #@! TA.AperFunction,Conductor*
%ADD33C,1.016000*%
G04 #@! TD*
G04 #@! TA.AperFunction,Conductor*
%ADD34C,0.635000*%
G04 #@! TD*
G04 #@! TA.AperFunction,Conductor*
%ADD35C,2.032000*%
G04 #@! TD*
G04 #@! TA.AperFunction,Conductor*
%ADD36C,1.524000*%
G04 #@! TD*
G04 #@! TA.AperFunction,Conductor*
%ADD37C,3.810000*%
G04 #@! TD*
G04 #@! TA.AperFunction,Conductor*
%ADD38C,0.254000*%
G04 #@! TD*
G04 #@! TA.AperFunction,Conductor*
%ADD39C,0.381000*%
G04 #@! TD*
G04 APERTURE END LIST*
D10*
X82550000Y-93980000D03*
D11*
X82550000Y-96520000D03*
X82550000Y-99060000D03*
X82550000Y-101600000D03*
X82550000Y-104140000D03*
X82550000Y-106680000D03*
X82550000Y-109220000D03*
X82550000Y-111760000D03*
X82550000Y-114300000D03*
X82550000Y-116840000D03*
X107950000Y-116840000D03*
X107950000Y-114300000D03*
X107950000Y-111760000D03*
X107950000Y-109220000D03*
X107950000Y-106680000D03*
X107950000Y-104140000D03*
X107950000Y-101600000D03*
X107950000Y-99060000D03*
X107950000Y-96520000D03*
X107950000Y-93980000D03*
D12*
X163195000Y-98995000D03*
X164465000Y-98995000D03*
X165735000Y-98995000D03*
X167005000Y-98995000D03*
X167005000Y-94045000D03*
X165735000Y-94045000D03*
X164465000Y-94045000D03*
X163195000Y-94045000D03*
D13*
X171450000Y-95885000D03*
X171450000Y-97785000D03*
D14*
X73330000Y-71755000D03*
X71755000Y-71755000D03*
D15*
X134620000Y-106680000D03*
D16*
X137160000Y-106680000D03*
X139700000Y-106680000D03*
D17*
X85090000Y-90725000D03*
X85090000Y-88900000D03*
D18*
X142240000Y-78740000D03*
D19*
X137160000Y-78740000D03*
X132080000Y-78740000D03*
X127000000Y-78740000D03*
X121920000Y-78740000D03*
X116840000Y-78740000D03*
D12*
X132715000Y-98995000D03*
X133985000Y-98995000D03*
X135255000Y-98995000D03*
X136525000Y-98995000D03*
X136525000Y-94045000D03*
X135255000Y-94045000D03*
X133985000Y-94045000D03*
X132715000Y-94045000D03*
D20*
X130810000Y-106680000D03*
X128985000Y-106680000D03*
D21*
X116840000Y-100325000D03*
X116840000Y-98425000D03*
D15*
X119380000Y-106680000D03*
D16*
X121920000Y-106680000D03*
X124460000Y-106680000D03*
D22*
X70485000Y-96520000D03*
D23*
X72765000Y-90220000D03*
D22*
X75045000Y-96520000D03*
D24*
X125095000Y-96585000D03*
X123825000Y-96585000D03*
X122555000Y-96585000D03*
X121285000Y-96585000D03*
X121285000Y-101535000D03*
X122555000Y-101535000D03*
X123825000Y-101535000D03*
X125095000Y-101535000D03*
D25*
X151130000Y-100665000D03*
X151130000Y-97790000D03*
D17*
X146050000Y-106680000D03*
X146050000Y-104855000D03*
D15*
X139700000Y-88900000D03*
D16*
X137160000Y-88900000D03*
X134620000Y-88900000D03*
D17*
X82550000Y-88900000D03*
X82550000Y-90725000D03*
D15*
X165100000Y-106680000D03*
D16*
X167640000Y-106680000D03*
X170180000Y-106680000D03*
D20*
X141605000Y-93345000D03*
X139780000Y-93345000D03*
D21*
X148590000Y-100965000D03*
X148590000Y-99065000D03*
D26*
X138430000Y-95885000D03*
X138430000Y-98760000D03*
D18*
X147320000Y-116840000D03*
D19*
X152400000Y-116840000D03*
X157480000Y-116840000D03*
X162560000Y-116840000D03*
X167640000Y-116840000D03*
X172720000Y-116840000D03*
D15*
X149860000Y-106680000D03*
D16*
X152400000Y-106680000D03*
X154940000Y-106680000D03*
D14*
X73330000Y-75565000D03*
X71755000Y-75565000D03*
D20*
X161290000Y-106680000D03*
X159465000Y-106680000D03*
D18*
X116840000Y-116840000D03*
D19*
X121920000Y-116840000D03*
X127000000Y-116840000D03*
X132080000Y-116840000D03*
X137160000Y-116840000D03*
X142240000Y-116840000D03*
D20*
X172085000Y-93345000D03*
X170260000Y-93345000D03*
D27*
X69850000Y-102870000D03*
X75450000Y-102870000D03*
D28*
X74930000Y-109220000D03*
X77805000Y-109220000D03*
D25*
X119380000Y-101300000D03*
X119380000Y-98425000D03*
D18*
X172720000Y-78740000D03*
D19*
X167640000Y-78740000D03*
X162560000Y-78740000D03*
X157480000Y-78740000D03*
X152400000Y-78740000D03*
X147320000Y-78740000D03*
D24*
X156845000Y-96585000D03*
X155575000Y-96585000D03*
X154305000Y-96585000D03*
X153035000Y-96585000D03*
X153035000Y-101535000D03*
X154305000Y-101535000D03*
X155575000Y-101535000D03*
X156845000Y-101535000D03*
D29*
X71880000Y-109220000D03*
X68580000Y-109220000D03*
D14*
X71755000Y-67945000D03*
X73330000Y-67945000D03*
D13*
X140970000Y-97785000D03*
X140970000Y-95885000D03*
D15*
X170180000Y-88900000D03*
D16*
X167640000Y-88900000D03*
X165100000Y-88900000D03*
D26*
X168910000Y-95885000D03*
X168910000Y-98760000D03*
D30*
X77470000Y-96520000D03*
X79370000Y-96520000D03*
D17*
X115570000Y-106680000D03*
X115570000Y-104855000D03*
D15*
X154940000Y-88900000D03*
D16*
X152400000Y-88900000D03*
X149860000Y-88900000D03*
D15*
X124460000Y-88900000D03*
D16*
X121920000Y-88900000D03*
X119380000Y-88900000D03*
D17*
X80010000Y-90725000D03*
X80010000Y-88900000D03*
D31*
X158750000Y-88900000D03*
X160575000Y-88900000D03*
X128270000Y-88900000D03*
X130095000Y-88900000D03*
D18*
X69850000Y-116840000D03*
D19*
X74930000Y-116840000D03*
D32*
X67945000Y-90805000D03*
X77470000Y-90805000D03*
X173990000Y-97790000D03*
X146685000Y-100330000D03*
X113665000Y-98425000D03*
X143510000Y-95885000D03*
D33*
X72765000Y-89275000D02*
X71755000Y-88265000D01*
X72765000Y-90220000D02*
X72765000Y-89275000D01*
X71755000Y-88265000D02*
X71755000Y-85090000D01*
D34*
X71755000Y-75565000D02*
X71755000Y-85090000D01*
X80010000Y-87630000D02*
X80010000Y-88900000D01*
X75565000Y-83185000D02*
X80010000Y-87630000D01*
X75565000Y-76835000D02*
X75565000Y-83185000D01*
X74295000Y-75565000D02*
X75565000Y-76835000D01*
X73330000Y-75565000D02*
X74295000Y-75565000D01*
X82550000Y-87630000D02*
X82550000Y-88900000D01*
X77470000Y-82550000D02*
X82550000Y-87630000D01*
X77470000Y-74930000D02*
X77470000Y-82550000D01*
X74295000Y-71755000D02*
X77470000Y-74930000D01*
X73330000Y-71755000D02*
X74295000Y-71755000D01*
X85090000Y-86995000D02*
X85090000Y-88900000D01*
X79375000Y-81280000D02*
X85090000Y-86995000D01*
X74295000Y-67945000D02*
X79375000Y-73025000D01*
X73330000Y-67945000D02*
X74295000Y-67945000D01*
X79375000Y-73025000D02*
X79375000Y-81280000D01*
D33*
X71880000Y-107440000D02*
X69850000Y-105410000D01*
X70485000Y-96520000D02*
X70485000Y-99695000D01*
X67945000Y-95250000D02*
X67945000Y-90805000D01*
X70485000Y-96520000D02*
X69215000Y-96520000D01*
X69850000Y-105410000D02*
X69850000Y-102870000D01*
X79930000Y-90805000D02*
X80010000Y-90725000D01*
X70485000Y-99695000D02*
X69850000Y-100330000D01*
X71880000Y-109220000D02*
X71880000Y-107440000D01*
X69850000Y-100330000D02*
X69850000Y-102870000D01*
X69215000Y-96520000D02*
X67945000Y-95250000D01*
X71880000Y-109220000D02*
X74930000Y-109220000D01*
X77470000Y-90805000D02*
X79930000Y-90805000D01*
D34*
X154305000Y-97790000D02*
X153670000Y-98425000D01*
D33*
X79375000Y-99060000D02*
X73430000Y-99060000D01*
D34*
X169885000Y-97785000D02*
X168910000Y-98760000D01*
X147950000Y-99065000D02*
X148590000Y-99065000D01*
X140970000Y-97785000D02*
X139405000Y-97785000D01*
D33*
X77805000Y-107015000D02*
X75450000Y-104660000D01*
X77805000Y-109220000D02*
X77805000Y-110155000D01*
D34*
X173990000Y-97790000D02*
X173995000Y-97785000D01*
X71755000Y-67945000D02*
X71755000Y-71755000D01*
D33*
X79375000Y-99060000D02*
X82550000Y-99060000D01*
D34*
X139405000Y-97785000D02*
X138430000Y-98760000D01*
X143510000Y-95885000D02*
X141610000Y-97785000D01*
X173995000Y-97785000D02*
X171450000Y-97785000D01*
D33*
X79370000Y-96520000D02*
X79370000Y-99055000D01*
D35*
X74930000Y-116840000D02*
X74930000Y-113030000D01*
D34*
X165735000Y-98995000D02*
X165735000Y-100330000D01*
X137160000Y-97155000D02*
X138430000Y-98425000D01*
X71755000Y-71755000D02*
X71755000Y-75565000D01*
X166370000Y-100965000D02*
X168275000Y-100965000D01*
X151765000Y-98425000D02*
X151130000Y-97790000D01*
X135255000Y-97790000D02*
X135890000Y-97155000D01*
X141610000Y-97785000D02*
X140970000Y-97785000D01*
X121920000Y-98425000D02*
X119380000Y-98425000D01*
D33*
X72765000Y-98395000D02*
X72765000Y-90220000D01*
D34*
X135255000Y-98995000D02*
X135255000Y-97790000D01*
X171450000Y-97785000D02*
X169885000Y-97785000D01*
X168910000Y-100330000D02*
X168910000Y-98760000D01*
X119380000Y-98425000D02*
X116840000Y-98425000D01*
D33*
X77805000Y-110155000D02*
X74930000Y-113030000D01*
D34*
X122555000Y-97790000D02*
X121920000Y-98425000D01*
X135890000Y-97155000D02*
X137160000Y-97155000D01*
D33*
X75450000Y-102870000D02*
X75450000Y-99060000D01*
D34*
X122555000Y-96585000D02*
X122555000Y-97790000D01*
X148590000Y-99065000D02*
X149855000Y-99065000D01*
D33*
X79370000Y-99055000D02*
X79375000Y-99060000D01*
D34*
X154305000Y-96585000D02*
X154305000Y-97790000D01*
D33*
X77805000Y-109220000D02*
X77805000Y-107015000D01*
D34*
X165735000Y-100330000D02*
X166370000Y-100965000D01*
X168275000Y-100965000D02*
X168910000Y-100330000D01*
X146685000Y-100330000D02*
X147950000Y-99065000D01*
D33*
X75450000Y-104660000D02*
X75450000Y-102870000D01*
X73430000Y-99060000D02*
X72765000Y-98395000D01*
D34*
X113665000Y-98425000D02*
X116840000Y-98425000D01*
X153670000Y-98425000D02*
X151765000Y-98425000D01*
X149855000Y-99065000D02*
X151130000Y-97790000D01*
D33*
X77470000Y-96520000D02*
X77470000Y-95250000D01*
X77470000Y-95250000D02*
X78740000Y-93980000D01*
X78740000Y-93980000D02*
X82550000Y-93980000D01*
X82550000Y-93980000D02*
X82550000Y-90725000D01*
X75045000Y-96520000D02*
X77470000Y-96520000D01*
D35*
X69850000Y-116840000D02*
X69850000Y-113030000D01*
D33*
X68580000Y-109220000D02*
X68580000Y-111760000D01*
X68580000Y-111760000D02*
X69850000Y-113030000D01*
D36*
X116840000Y-116840000D02*
X116840000Y-121920000D01*
D34*
X119380000Y-100330000D02*
X120015000Y-100330000D01*
D36*
X116840000Y-121920000D02*
X119380000Y-124460000D01*
X134620000Y-124460000D02*
X137160000Y-121920000D01*
X116840000Y-116840000D02*
X116840000Y-111760000D01*
D34*
X115575000Y-100325000D02*
X116840000Y-100325000D01*
X120015000Y-100330000D02*
X120650000Y-99695000D01*
D36*
X137160000Y-121920000D02*
X137160000Y-116840000D01*
D34*
X116840000Y-100325000D02*
X118110000Y-100330000D01*
X121920000Y-99695000D02*
X120650000Y-99695000D01*
D36*
X116840000Y-111760000D02*
X113665000Y-108585000D01*
D34*
X118110000Y-100330000D02*
X119380000Y-100330000D01*
D36*
X127000000Y-116840000D02*
X127000000Y-124460000D01*
D34*
X122555000Y-101535000D02*
X122555000Y-100330000D01*
D36*
X113665000Y-108585000D02*
X113665000Y-102235000D01*
D34*
X122555000Y-100330000D02*
X121920000Y-99695000D01*
X113665000Y-102235000D02*
X115575000Y-100325000D01*
X119380000Y-100330000D02*
X119380000Y-101300000D01*
D36*
X119380000Y-124460000D02*
X134620000Y-124460000D01*
X147320000Y-121920000D02*
X149860000Y-124460000D01*
D34*
X148590000Y-100965000D02*
X150830000Y-100965000D01*
X154305000Y-101535000D02*
X154305000Y-100330000D01*
X154305000Y-100330000D02*
X153670000Y-99695000D01*
X153670000Y-99695000D02*
X152100000Y-99695000D01*
X152100000Y-99695000D02*
X151130000Y-100665000D01*
D36*
X147320000Y-110490000D02*
X147320000Y-116840000D01*
D34*
X147955000Y-102870000D02*
X145415000Y-102870000D01*
D36*
X147320000Y-116840000D02*
X147320000Y-121920000D01*
D34*
X148590000Y-102235000D02*
X147955000Y-102870000D01*
X145415000Y-102870000D02*
X144145000Y-104140000D01*
D36*
X149860000Y-124460000D02*
X165100000Y-124460000D01*
D34*
X148590000Y-100965000D02*
X148590000Y-102235000D01*
D36*
X144145000Y-104140000D02*
X144145000Y-107315000D01*
X165100000Y-124460000D02*
X167640000Y-121920000D01*
X144145000Y-107315000D02*
X147320000Y-110490000D01*
X157480000Y-116840000D02*
X157480000Y-124460000D01*
X167640000Y-121920000D02*
X167640000Y-116840000D01*
X173990000Y-85090000D02*
X172720000Y-83820000D01*
D34*
X171450000Y-95885000D02*
X172720000Y-95885000D01*
D36*
X162560000Y-71120000D02*
X162560000Y-78740000D01*
X173990000Y-94615000D02*
X173990000Y-85090000D01*
X152400000Y-74930000D02*
X152400000Y-78740000D01*
X172720000Y-78740000D02*
X172720000Y-74930000D01*
X168910000Y-71120000D02*
X162560000Y-71120000D01*
D34*
X172720000Y-95885000D02*
X173990000Y-94615000D01*
D36*
X162560000Y-71120000D02*
X156210000Y-71120000D01*
X172720000Y-74930000D02*
X168910000Y-71120000D01*
D34*
X165735000Y-94769676D02*
X165735000Y-94045000D01*
X168910000Y-95885000D02*
X166850324Y-95885000D01*
D36*
X172720000Y-83820000D02*
X172720000Y-78740000D01*
X156210000Y-71120000D02*
X152400000Y-74930000D01*
D34*
X166850324Y-95885000D02*
X165735000Y-94769676D01*
X171450000Y-95885000D02*
X168910000Y-95885000D01*
D35*
X121920000Y-106680000D02*
X121920000Y-111125000D01*
D37*
X129540000Y-111125000D02*
X132080000Y-113665000D01*
X132080000Y-113665000D02*
X132080000Y-116840000D01*
X121920000Y-111125000D02*
X129540000Y-111125000D01*
D36*
X117475000Y-106680000D02*
X119380000Y-106680000D01*
D34*
X115570000Y-106680000D02*
X117475000Y-106680000D01*
X130810000Y-106680000D02*
X132715000Y-106680000D01*
D36*
X132715000Y-106680000D02*
X134620000Y-106680000D01*
D34*
X146050000Y-106680000D02*
X147955000Y-106680000D01*
D36*
X147955000Y-106680000D02*
X149860000Y-106680000D01*
D34*
X161290000Y-106680000D02*
X163195000Y-106680000D01*
D36*
X163195000Y-106680000D02*
X165100000Y-106680000D01*
D34*
X86360000Y-93345000D02*
X86360000Y-95885000D01*
D33*
X82550000Y-96520000D02*
X84455000Y-96520000D01*
D34*
X85090000Y-92075000D02*
X86360000Y-93345000D01*
X85725000Y-96520000D02*
X84455000Y-96520000D01*
X86360000Y-95885000D02*
X85725000Y-96520000D01*
X85090000Y-90725000D02*
X85090000Y-92075000D01*
D37*
X140335000Y-111125000D02*
X137160000Y-111125000D01*
X142240000Y-116840000D02*
X142240000Y-113030000D01*
D35*
X137160000Y-106680000D02*
X137160000Y-111125000D01*
D37*
X142240000Y-113030000D02*
X140335000Y-111125000D01*
D34*
X168210000Y-94045000D02*
X168910000Y-93345000D01*
X167005000Y-94045000D02*
X168210000Y-94045000D01*
X168910000Y-93345000D02*
X170260000Y-93345000D01*
X164465000Y-94045000D02*
X164465000Y-92075000D01*
X164465000Y-92075000D02*
X163830000Y-91440000D01*
X163830000Y-91440000D02*
X161290000Y-91440000D01*
X160575000Y-90725000D02*
X160575000Y-88900000D01*
X161290000Y-91440000D02*
X160575000Y-90725000D01*
X140970000Y-95885000D02*
X138430000Y-95885000D01*
D36*
X139700000Y-71120000D02*
X124460000Y-71120000D01*
X142240000Y-78740000D02*
X142240000Y-73660000D01*
D34*
X135890000Y-95885000D02*
X138430000Y-95885000D01*
D36*
X142240000Y-78740000D02*
X142240000Y-83820000D01*
X142240000Y-73660000D02*
X139700000Y-71120000D01*
X121920000Y-73660000D02*
X121920000Y-78740000D01*
X124460000Y-71120000D02*
X121920000Y-73660000D01*
X143510000Y-85090000D02*
X143510000Y-93345000D01*
X142240000Y-83820000D02*
X143510000Y-85090000D01*
D34*
X143510000Y-93345000D02*
X140970000Y-95885000D01*
X135255000Y-95250000D02*
X135890000Y-95885000D01*
X135255000Y-94045000D02*
X135255000Y-95250000D01*
D36*
X132080000Y-78740000D02*
X132080000Y-71120000D01*
D35*
X152400000Y-106680000D02*
X152400000Y-111125000D01*
D37*
X160020000Y-111125000D02*
X162560000Y-113665000D01*
X162560000Y-113665000D02*
X162560000Y-116840000D01*
X152400000Y-111125000D02*
X160020000Y-111125000D01*
X172720000Y-116840000D02*
X172720000Y-113030000D01*
X170815000Y-111125000D02*
X167640000Y-111125000D01*
X172720000Y-113030000D02*
X170815000Y-111125000D01*
D35*
X167640000Y-106680000D02*
X167640000Y-111125000D01*
D37*
X167640000Y-84455000D02*
X160020000Y-84455000D01*
X157480000Y-81915000D02*
X157480000Y-78740000D01*
X160020000Y-84455000D02*
X157480000Y-81915000D01*
D35*
X167640000Y-88900000D02*
X167640000Y-84455000D01*
D34*
X147875000Y-104855000D02*
X146050000Y-104855000D01*
X149225000Y-103505000D02*
X147875000Y-104855000D01*
X152400000Y-103505000D02*
X149225000Y-103505000D01*
X153035000Y-101535000D02*
X153035000Y-102870000D01*
X153035000Y-102870000D02*
X152400000Y-103505000D01*
X155575000Y-103505000D02*
X156210000Y-104140000D01*
X159465000Y-104855000D02*
X159465000Y-106680000D01*
X155575000Y-101535000D02*
X155575000Y-103505000D01*
X158750000Y-104140000D02*
X159465000Y-104855000D01*
X156210000Y-104140000D02*
X158750000Y-104140000D01*
D37*
X147320000Y-81915000D02*
X149860000Y-84455000D01*
X149860000Y-84455000D02*
X152400000Y-84455000D01*
X147320000Y-81915000D02*
X147320000Y-78740000D01*
D35*
X152400000Y-88900000D02*
X152400000Y-84455000D01*
D37*
X129540000Y-84755000D02*
X127000000Y-82215000D01*
X137160000Y-84755000D02*
X129540000Y-84755000D01*
X127000000Y-82215000D02*
X127000000Y-79040000D01*
D35*
X137160000Y-89200000D02*
X137160000Y-84755000D01*
D37*
X116840000Y-81915000D02*
X116840000Y-78740000D01*
D35*
X121920000Y-88900000D02*
X121920000Y-84455000D01*
D37*
X116840000Y-81915000D02*
X119380000Y-84455000D01*
X119380000Y-84455000D02*
X121920000Y-84455000D01*
D36*
X170180000Y-90805000D02*
X170180000Y-88900000D01*
D34*
X172085000Y-93345000D02*
X172085000Y-91440000D01*
X172085000Y-91440000D02*
X171450000Y-90805000D01*
X171450000Y-90805000D02*
X170180000Y-90805000D01*
X158750000Y-88900000D02*
X156845000Y-88900000D01*
D36*
X154940000Y-88900000D02*
X156845000Y-88900000D01*
D34*
X141605000Y-91440000D02*
X140970000Y-90805000D01*
X141605000Y-93345000D02*
X141605000Y-91440000D01*
X140970000Y-90805000D02*
X139700000Y-90805000D01*
D36*
X139700000Y-90805000D02*
X139700000Y-88900000D01*
D34*
X128270000Y-88900000D02*
X126365000Y-88900000D01*
D36*
X126365000Y-88900000D02*
X124460000Y-88900000D01*
D34*
X138430000Y-93345000D02*
X139780000Y-93345000D01*
X136525000Y-94045000D02*
X137730000Y-94045000D01*
X137730000Y-94045000D02*
X138430000Y-93345000D01*
X130810000Y-91440000D02*
X130095000Y-90725000D01*
X130095000Y-90725000D02*
X130095000Y-88900000D01*
X133985000Y-92075000D02*
X133350000Y-91440000D01*
X133350000Y-91440000D02*
X130810000Y-91440000D01*
X133985000Y-94045000D02*
X133985000Y-92075000D01*
D38*
X98425000Y-90805000D02*
X100330000Y-88900000D01*
X129540000Y-94615000D02*
X129540000Y-99695000D01*
X148590000Y-92710000D02*
X159385000Y-92710000D01*
X167005000Y-97472500D02*
X167005000Y-97790000D01*
D33*
X106045000Y-116840000D02*
X107950000Y-116840000D01*
D38*
X99695000Y-116840000D02*
X98425000Y-115570000D01*
X129540000Y-99695000D02*
X131445000Y-101600000D01*
D39*
X167005000Y-97790000D02*
X167005000Y-98995000D01*
D38*
X115506500Y-92075000D02*
X127000000Y-92075000D01*
X100330000Y-88900000D02*
X112331500Y-88900000D01*
X106045000Y-116840000D02*
X99695000Y-116840000D01*
X139700000Y-101600000D02*
X148590000Y-92710000D01*
X131445000Y-101600000D02*
X139700000Y-101600000D01*
X165417500Y-95885000D02*
X167005000Y-97472500D01*
X98425000Y-115570000D02*
X98425000Y-90805000D01*
X162560000Y-95885000D02*
X165417500Y-95885000D01*
X112331500Y-88900000D02*
X115506500Y-92075000D01*
X127000000Y-92075000D02*
X129540000Y-94615000D01*
X159385000Y-92710000D02*
X162560000Y-95885000D01*
X164465000Y-97790000D02*
X164465000Y-97155000D01*
X158750000Y-93345000D02*
X149225000Y-93345000D01*
X99695000Y-113030000D02*
X100965000Y-114300000D01*
X128905000Y-95250000D02*
X126365000Y-92710000D01*
X114935000Y-92710000D02*
X111760000Y-89535000D01*
X149225000Y-93345000D02*
X140335000Y-102235000D01*
X101600000Y-89535000D02*
X99695000Y-91440000D01*
D39*
X164465000Y-98995000D02*
X164465000Y-97790000D01*
D38*
X163830000Y-96520000D02*
X161925000Y-96520000D01*
X111760000Y-89535000D02*
X101600000Y-89535000D01*
D33*
X106045000Y-114300000D02*
X107950000Y-114300000D01*
D38*
X126365000Y-92710000D02*
X114935000Y-92710000D01*
X99695000Y-91440000D02*
X99695000Y-113030000D01*
X128905000Y-100330000D02*
X128905000Y-95250000D01*
X100965000Y-114300000D02*
X106045000Y-114300000D01*
X164465000Y-97155000D02*
X163830000Y-96520000D01*
X140335000Y-102235000D02*
X130810000Y-102235000D01*
X130810000Y-102235000D02*
X128905000Y-100330000D01*
X161925000Y-96520000D02*
X158750000Y-93345000D01*
X155575000Y-94615000D02*
X154940000Y-93980000D01*
X140970000Y-102870000D02*
X130175000Y-102870000D01*
X125730000Y-93345000D02*
X114300000Y-93345000D01*
X155575000Y-95250000D02*
X155575000Y-94615000D01*
X100965000Y-110490000D02*
X102235000Y-111760000D01*
X128270000Y-95885000D02*
X125730000Y-93345000D01*
D33*
X106045000Y-111760000D02*
X107950000Y-111760000D01*
D38*
X128270000Y-100965000D02*
X128270000Y-95885000D01*
X149860000Y-93980000D02*
X140970000Y-102870000D01*
X102870000Y-90170000D02*
X100965000Y-92075000D01*
X114300000Y-93345000D02*
X111125000Y-90170000D01*
X102235000Y-111760000D02*
X106045000Y-111760000D01*
D39*
X155575000Y-96585000D02*
X155575000Y-95250000D01*
D38*
X154940000Y-93980000D02*
X149860000Y-93980000D01*
X130175000Y-102870000D02*
X128270000Y-100965000D01*
X100965000Y-92075000D02*
X100965000Y-110490000D01*
X111125000Y-90170000D02*
X102870000Y-90170000D01*
X110490000Y-90805000D02*
X104140000Y-90805000D01*
X113665000Y-93980000D02*
X110490000Y-90805000D01*
D39*
X153035000Y-96520000D02*
X153035000Y-95250000D01*
D38*
X103505000Y-109220000D02*
X106045000Y-109220000D01*
D33*
X106045000Y-109220000D02*
X107950000Y-109220000D01*
D38*
X153035000Y-95250000D02*
X152400000Y-94615000D01*
X102235000Y-107950000D02*
X103505000Y-109220000D01*
X127635000Y-101600000D02*
X127635000Y-96520000D01*
X150495000Y-94615000D02*
X141605000Y-103505000D01*
X129540000Y-103505000D02*
X127635000Y-101600000D01*
X104140000Y-90805000D02*
X102235000Y-92710000D01*
X127635000Y-96520000D02*
X125095000Y-93980000D01*
X125095000Y-93980000D02*
X113665000Y-93980000D01*
X102235000Y-92710000D02*
X102235000Y-107950000D01*
X152400000Y-94615000D02*
X150495000Y-94615000D01*
X141605000Y-103505000D02*
X129540000Y-103505000D01*
X113030000Y-94615000D02*
X123190000Y-94615000D01*
X104775000Y-106680000D02*
X106045000Y-106680000D01*
D33*
X106045000Y-106680000D02*
X107950000Y-106680000D01*
D38*
X123190000Y-94615000D02*
X123825000Y-95250000D01*
X103505000Y-105410000D02*
X104775000Y-106680000D01*
X109855000Y-91440000D02*
X113030000Y-94615000D01*
D39*
X123825000Y-95250000D02*
X123825000Y-96585000D01*
D38*
X103505000Y-105410000D02*
X103505000Y-93345000D01*
X103505000Y-93345000D02*
X105410000Y-91440000D01*
X105410000Y-91440000D02*
X109855000Y-91440000D01*
X120015000Y-95250000D02*
X112395000Y-95250000D01*
X106680000Y-92075000D02*
X104775000Y-93980000D01*
X112395000Y-95250000D02*
X109220000Y-92075000D01*
D33*
X106045000Y-104140000D02*
X107950000Y-104140000D01*
D38*
X104775000Y-93980000D02*
X104775000Y-102870000D01*
X121285000Y-96520000D02*
X120015000Y-95250000D01*
X109220000Y-92075000D02*
X106680000Y-92075000D01*
X104775000Y-102870000D02*
X106045000Y-104140000D01*
D34*
X121285000Y-101535000D02*
X121285000Y-102870000D01*
X121285000Y-102870000D02*
X120650000Y-103505000D01*
X120650000Y-103505000D02*
X116920000Y-103505000D01*
X116920000Y-103505000D02*
X115570000Y-104855000D01*
X124460000Y-104140000D02*
X128270000Y-104140000D01*
X123825000Y-103505000D02*
X124460000Y-104140000D01*
X128270000Y-104140000D02*
X128985000Y-104855000D01*
X128985000Y-104855000D02*
X128985000Y-106680000D01*
X123825000Y-101535000D02*
X123825000Y-103505000D01*
D38*
X133985000Y-98995000D02*
X133985000Y-97790000D01*
X133985000Y-97790000D02*
X130810000Y-94615000D01*
X117221000Y-90805000D02*
X114046000Y-87630000D01*
X128270000Y-90805000D02*
X117221000Y-90805000D01*
X97790000Y-87630000D02*
X95885000Y-89535000D01*
D33*
X82550000Y-114300000D02*
X84455000Y-114300000D01*
D38*
X130810000Y-93345000D02*
X128270000Y-90805000D01*
X94615000Y-114300000D02*
X84455000Y-114300000D01*
X114046000Y-87630000D02*
X97790000Y-87630000D01*
X94615000Y-114300000D02*
X95885000Y-113030000D01*
X95885000Y-89535000D02*
X95885000Y-113030000D01*
X130810000Y-94615000D02*
X130810000Y-93345000D01*
X95885000Y-116840000D02*
X97155000Y-115570000D01*
X116395954Y-91440000D02*
X127635000Y-91440000D01*
X135890000Y-100965000D02*
X136525000Y-100330000D01*
X97155000Y-115570000D02*
X97155000Y-90170000D01*
X127635000Y-91440000D02*
X130175000Y-93980000D01*
X113220954Y-88265000D02*
X116395954Y-91440000D01*
X130175000Y-99060000D02*
X132080000Y-100965000D01*
X132080000Y-100965000D02*
X135890000Y-100965000D01*
D33*
X82550000Y-116840000D02*
X84455000Y-116840000D01*
D38*
X97155000Y-90170000D02*
X99060000Y-88265000D01*
X95885000Y-116840000D02*
X84455000Y-116840000D01*
X99060000Y-88265000D02*
X113220954Y-88265000D01*
X136525000Y-100330000D02*
X136525000Y-98995000D01*
X130175000Y-93980000D02*
X130175000Y-99060000D01*
G04 #@! TA.AperFunction,Conductor*
G36*
X143786163Y-68580607D02*
G01*
X143962740Y-68597999D01*
X143986957Y-68602815D01*
X144150809Y-68652518D01*
X144173629Y-68661971D01*
X144324631Y-68742683D01*
X144345158Y-68756399D01*
X144477521Y-68865026D01*
X144494974Y-68882479D01*
X144603601Y-69014842D01*
X144617319Y-69035372D01*
X144698029Y-69186371D01*
X144707482Y-69209190D01*
X144757185Y-69373043D01*
X144762002Y-69397263D01*
X144779393Y-69573837D01*
X144780000Y-69586187D01*
X144780000Y-80273813D01*
X144779393Y-80286163D01*
X144762002Y-80462737D01*
X144757185Y-80486957D01*
X144707482Y-80650809D01*
X144698029Y-80673629D01*
X144617319Y-80824628D01*
X144603601Y-80845158D01*
X144494974Y-80977521D01*
X144477521Y-80994974D01*
X144345158Y-81103601D01*
X144324631Y-81117317D01*
X144232417Y-81166607D01*
X144173629Y-81198029D01*
X144150810Y-81207482D01*
X143986957Y-81257185D01*
X143962740Y-81262001D01*
X143786163Y-81279393D01*
X143773813Y-81280000D01*
X140706187Y-81280000D01*
X140693837Y-81279393D01*
X140517260Y-81262001D01*
X140493043Y-81257185D01*
X140329190Y-81207482D01*
X140306371Y-81198029D01*
X140247583Y-81166607D01*
X140155369Y-81117317D01*
X140134842Y-81103601D01*
X140002479Y-80994974D01*
X139985026Y-80977521D01*
X139876399Y-80845158D01*
X139862681Y-80824628D01*
X139781971Y-80673629D01*
X139772518Y-80650809D01*
X139722815Y-80486957D01*
X139717998Y-80462737D01*
X139700607Y-80286163D01*
X139700000Y-80273813D01*
X139700000Y-75565000D01*
X134620000Y-75565000D01*
X134620000Y-80273813D01*
X134619393Y-80286163D01*
X134602002Y-80462737D01*
X134597185Y-80486957D01*
X134547482Y-80650809D01*
X134538029Y-80673629D01*
X134457319Y-80824628D01*
X134443601Y-80845158D01*
X134334974Y-80977521D01*
X134317521Y-80994974D01*
X134185158Y-81103601D01*
X134164631Y-81117317D01*
X134072417Y-81166607D01*
X134013629Y-81198029D01*
X133990810Y-81207482D01*
X133826957Y-81257185D01*
X133802740Y-81262001D01*
X133626163Y-81279393D01*
X133613813Y-81280000D01*
X130546187Y-81280000D01*
X130533837Y-81279393D01*
X130357260Y-81262001D01*
X130333043Y-81257185D01*
X130169190Y-81207482D01*
X130146371Y-81198029D01*
X130087583Y-81166607D01*
X129995369Y-81117317D01*
X129974842Y-81103601D01*
X129842479Y-80994974D01*
X129825026Y-80977521D01*
X129716399Y-80845158D01*
X129702681Y-80824628D01*
X129621971Y-80673629D01*
X129612518Y-80650809D01*
X129562815Y-80486957D01*
X129557998Y-80462737D01*
X129540607Y-80286163D01*
X129540000Y-80273813D01*
X129540000Y-75565000D01*
X124460000Y-75565000D01*
X124460000Y-80273813D01*
X124459393Y-80286163D01*
X124442002Y-80462737D01*
X124437185Y-80486957D01*
X124387482Y-80650809D01*
X124378029Y-80673629D01*
X124297319Y-80824628D01*
X124283601Y-80845158D01*
X124174974Y-80977521D01*
X124157521Y-80994974D01*
X124025158Y-81103601D01*
X124004631Y-81117317D01*
X123912417Y-81166607D01*
X123853629Y-81198029D01*
X123830810Y-81207482D01*
X123666957Y-81257185D01*
X123642740Y-81262001D01*
X123466163Y-81279393D01*
X123453813Y-81280000D01*
X120386187Y-81280000D01*
X120373837Y-81279393D01*
X120197260Y-81262001D01*
X120173043Y-81257185D01*
X120009190Y-81207482D01*
X119986371Y-81198029D01*
X119927583Y-81166607D01*
X119835369Y-81117317D01*
X119814842Y-81103601D01*
X119682479Y-80994974D01*
X119665026Y-80977521D01*
X119556399Y-80845158D01*
X119542681Y-80824628D01*
X119461971Y-80673629D01*
X119452518Y-80650809D01*
X119402815Y-80486957D01*
X119397998Y-80462737D01*
X119380607Y-80286163D01*
X119380000Y-80273813D01*
X119380000Y-69586187D01*
X119380607Y-69573837D01*
X119397998Y-69397263D01*
X119402815Y-69373043D01*
X119452518Y-69209190D01*
X119461971Y-69186371D01*
X119542681Y-69035372D01*
X119556399Y-69014842D01*
X119665026Y-68882479D01*
X119682479Y-68865026D01*
X119814842Y-68756399D01*
X119835369Y-68742683D01*
X119986371Y-68661971D01*
X120009191Y-68652518D01*
X120173043Y-68602815D01*
X120197260Y-68597999D01*
X120373837Y-68580607D01*
X120386187Y-68580000D01*
X143773813Y-68580000D01*
X143786163Y-68580607D01*
G37*
G04 #@! TD.AperFunction*
G04 #@! TA.AperFunction,Conductor*
G36*
X148866163Y-114300607D02*
G01*
X149042740Y-114317999D01*
X149066957Y-114322815D01*
X149230809Y-114372518D01*
X149253629Y-114381971D01*
X149404631Y-114462683D01*
X149425158Y-114476399D01*
X149557521Y-114585026D01*
X149574974Y-114602479D01*
X149683601Y-114734842D01*
X149697319Y-114755372D01*
X149778029Y-114906371D01*
X149787482Y-114929190D01*
X149837185Y-115093043D01*
X149842002Y-115117263D01*
X149859393Y-115293837D01*
X149860000Y-115306187D01*
X149860000Y-120015000D01*
X154940000Y-120015000D01*
X154940000Y-115306187D01*
X154940607Y-115293837D01*
X154957998Y-115117263D01*
X154962815Y-115093043D01*
X155012518Y-114929190D01*
X155021971Y-114906371D01*
X155102681Y-114755372D01*
X155116399Y-114734842D01*
X155225026Y-114602479D01*
X155242479Y-114585026D01*
X155374842Y-114476399D01*
X155395369Y-114462683D01*
X155546371Y-114381971D01*
X155569191Y-114372518D01*
X155733043Y-114322815D01*
X155757260Y-114317999D01*
X155933837Y-114300607D01*
X155946187Y-114300000D01*
X159013813Y-114300000D01*
X159026163Y-114300607D01*
X159202740Y-114317999D01*
X159226957Y-114322815D01*
X159390809Y-114372518D01*
X159413629Y-114381971D01*
X159564631Y-114462683D01*
X159585158Y-114476399D01*
X159717521Y-114585026D01*
X159734974Y-114602479D01*
X159843601Y-114734842D01*
X159857319Y-114755372D01*
X159938029Y-114906371D01*
X159947482Y-114929190D01*
X159997185Y-115093043D01*
X160002002Y-115117263D01*
X160019393Y-115293837D01*
X160020000Y-115306187D01*
X160020000Y-120015000D01*
X165100000Y-120015000D01*
X165100000Y-115306187D01*
X165100607Y-115293837D01*
X165117998Y-115117263D01*
X165122815Y-115093043D01*
X165172518Y-114929190D01*
X165181971Y-114906371D01*
X165262681Y-114755372D01*
X165276399Y-114734842D01*
X165385026Y-114602479D01*
X165402479Y-114585026D01*
X165534842Y-114476399D01*
X165555369Y-114462683D01*
X165706371Y-114381971D01*
X165729191Y-114372518D01*
X165893043Y-114322815D01*
X165917260Y-114317999D01*
X166093837Y-114300607D01*
X166106187Y-114300000D01*
X169173813Y-114300000D01*
X169186163Y-114300607D01*
X169362740Y-114317999D01*
X169386957Y-114322815D01*
X169550809Y-114372518D01*
X169573629Y-114381971D01*
X169724631Y-114462683D01*
X169745158Y-114476399D01*
X169877521Y-114585026D01*
X169894974Y-114602479D01*
X170003601Y-114734842D01*
X170017319Y-114755372D01*
X170098029Y-114906371D01*
X170107482Y-114929190D01*
X170157185Y-115093043D01*
X170162002Y-115117263D01*
X170179393Y-115293837D01*
X170180000Y-115306187D01*
X170180000Y-125993813D01*
X170179393Y-126006163D01*
X170162002Y-126182737D01*
X170157185Y-126206957D01*
X170107482Y-126370809D01*
X170098029Y-126393629D01*
X170017319Y-126544628D01*
X170003601Y-126565158D01*
X169894974Y-126697521D01*
X169877521Y-126714974D01*
X169745158Y-126823601D01*
X169724631Y-126837317D01*
X169632417Y-126886607D01*
X169573629Y-126918029D01*
X169550810Y-126927482D01*
X169386957Y-126977185D01*
X169362740Y-126982001D01*
X169186163Y-126999393D01*
X169173813Y-127000000D01*
X145786187Y-127000000D01*
X145773837Y-126999393D01*
X145597260Y-126982001D01*
X145573043Y-126977185D01*
X145409190Y-126927482D01*
X145386371Y-126918029D01*
X145327583Y-126886607D01*
X145235369Y-126837317D01*
X145214842Y-126823601D01*
X145082479Y-126714974D01*
X145065026Y-126697521D01*
X144956399Y-126565158D01*
X144942681Y-126544628D01*
X144861971Y-126393629D01*
X144852518Y-126370809D01*
X144802815Y-126206957D01*
X144797998Y-126182737D01*
X144780607Y-126006163D01*
X144780000Y-125993813D01*
X144780000Y-115306187D01*
X144780607Y-115293837D01*
X144797998Y-115117263D01*
X144802815Y-115093043D01*
X144852518Y-114929190D01*
X144861971Y-114906371D01*
X144942681Y-114755372D01*
X144956399Y-114734842D01*
X145065026Y-114602479D01*
X145082479Y-114585026D01*
X145214842Y-114476399D01*
X145235369Y-114462683D01*
X145386371Y-114381971D01*
X145409191Y-114372518D01*
X145573043Y-114322815D01*
X145597260Y-114317999D01*
X145773837Y-114300607D01*
X145786187Y-114300000D01*
X148853813Y-114300000D01*
X148866163Y-114300607D01*
G37*
G04 #@! TD.AperFunction*
G04 #@! TA.AperFunction,Conductor*
G36*
X174266163Y-68580607D02*
G01*
X174442740Y-68597999D01*
X174466957Y-68602815D01*
X174630809Y-68652518D01*
X174653629Y-68661971D01*
X174804631Y-68742683D01*
X174825158Y-68756399D01*
X174957521Y-68865026D01*
X174974974Y-68882479D01*
X175083601Y-69014842D01*
X175097319Y-69035372D01*
X175178029Y-69186371D01*
X175187482Y-69209190D01*
X175237185Y-69373043D01*
X175242002Y-69397263D01*
X175259393Y-69573837D01*
X175260000Y-69586187D01*
X175260000Y-80273813D01*
X175259393Y-80286163D01*
X175242002Y-80462737D01*
X175237185Y-80486957D01*
X175187482Y-80650809D01*
X175178029Y-80673629D01*
X175097319Y-80824628D01*
X175083601Y-80845158D01*
X174974974Y-80977521D01*
X174957521Y-80994974D01*
X174825158Y-81103601D01*
X174804631Y-81117317D01*
X174712417Y-81166607D01*
X174653629Y-81198029D01*
X174630810Y-81207482D01*
X174466957Y-81257185D01*
X174442740Y-81262001D01*
X174266163Y-81279393D01*
X174253813Y-81280000D01*
X171186187Y-81280000D01*
X171173837Y-81279393D01*
X170997260Y-81262001D01*
X170973043Y-81257185D01*
X170809190Y-81207482D01*
X170786371Y-81198029D01*
X170727583Y-81166607D01*
X170635369Y-81117317D01*
X170614842Y-81103601D01*
X170482479Y-80994974D01*
X170465026Y-80977521D01*
X170356399Y-80845158D01*
X170342681Y-80824628D01*
X170261971Y-80673629D01*
X170252518Y-80650809D01*
X170202815Y-80486957D01*
X170197998Y-80462737D01*
X170180607Y-80286163D01*
X170180000Y-80273813D01*
X170180000Y-75565000D01*
X165100000Y-75565000D01*
X165100000Y-80273813D01*
X165099393Y-80286163D01*
X165082002Y-80462737D01*
X165077185Y-80486957D01*
X165027482Y-80650809D01*
X165018029Y-80673629D01*
X164937319Y-80824628D01*
X164923601Y-80845158D01*
X164814974Y-80977521D01*
X164797521Y-80994974D01*
X164665158Y-81103601D01*
X164644631Y-81117317D01*
X164552417Y-81166607D01*
X164493629Y-81198029D01*
X164470810Y-81207482D01*
X164306957Y-81257185D01*
X164282740Y-81262001D01*
X164106163Y-81279393D01*
X164093813Y-81280000D01*
X161026187Y-81280000D01*
X161013837Y-81279393D01*
X160837260Y-81262001D01*
X160813043Y-81257185D01*
X160649190Y-81207482D01*
X160626371Y-81198029D01*
X160567583Y-81166607D01*
X160475369Y-81117317D01*
X160454842Y-81103601D01*
X160322479Y-80994974D01*
X160305026Y-80977521D01*
X160196399Y-80845158D01*
X160182681Y-80824628D01*
X160101971Y-80673629D01*
X160092518Y-80650809D01*
X160042815Y-80486957D01*
X160037998Y-80462737D01*
X160020607Y-80286163D01*
X160020000Y-80273813D01*
X160020000Y-75565000D01*
X154940000Y-75565000D01*
X154940000Y-80273813D01*
X154939393Y-80286163D01*
X154922002Y-80462737D01*
X154917185Y-80486957D01*
X154867482Y-80650809D01*
X154858029Y-80673629D01*
X154777319Y-80824628D01*
X154763601Y-80845158D01*
X154654974Y-80977521D01*
X154637521Y-80994974D01*
X154505158Y-81103601D01*
X154484631Y-81117317D01*
X154392417Y-81166607D01*
X154333629Y-81198029D01*
X154310810Y-81207482D01*
X154146957Y-81257185D01*
X154122740Y-81262001D01*
X153946163Y-81279393D01*
X153933813Y-81280000D01*
X150866187Y-81280000D01*
X150853837Y-81279393D01*
X150677260Y-81262001D01*
X150653043Y-81257185D01*
X150489190Y-81207482D01*
X150466371Y-81198029D01*
X150407583Y-81166607D01*
X150315369Y-81117317D01*
X150294842Y-81103601D01*
X150162479Y-80994974D01*
X150145026Y-80977521D01*
X150036399Y-80845158D01*
X150022681Y-80824628D01*
X149941971Y-80673629D01*
X149932518Y-80650809D01*
X149882815Y-80486957D01*
X149877998Y-80462737D01*
X149860607Y-80286163D01*
X149860000Y-80273813D01*
X149860000Y-69586187D01*
X149860607Y-69573837D01*
X149877998Y-69397263D01*
X149882815Y-69373043D01*
X149932518Y-69209190D01*
X149941971Y-69186371D01*
X150022681Y-69035372D01*
X150036399Y-69014842D01*
X150145026Y-68882479D01*
X150162479Y-68865026D01*
X150294842Y-68756399D01*
X150315369Y-68742683D01*
X150466371Y-68661971D01*
X150489191Y-68652518D01*
X150653043Y-68602815D01*
X150677260Y-68597999D01*
X150853837Y-68580607D01*
X150866187Y-68580000D01*
X174253813Y-68580000D01*
X174266163Y-68580607D01*
G37*
G04 #@! TD.AperFunction*
G04 #@! TA.AperFunction,Conductor*
G36*
X118386163Y-114300607D02*
G01*
X118562740Y-114317999D01*
X118586957Y-114322815D01*
X118750809Y-114372518D01*
X118773629Y-114381971D01*
X118924631Y-114462683D01*
X118945158Y-114476399D01*
X119077521Y-114585026D01*
X119094974Y-114602479D01*
X119203601Y-114734842D01*
X119217319Y-114755372D01*
X119298029Y-114906371D01*
X119307482Y-114929190D01*
X119357185Y-115093043D01*
X119362002Y-115117263D01*
X119379393Y-115293837D01*
X119380000Y-115306187D01*
X119380000Y-120015000D01*
X124460000Y-120015000D01*
X124460000Y-115306187D01*
X124460607Y-115293837D01*
X124477998Y-115117263D01*
X124482815Y-115093043D01*
X124532518Y-114929190D01*
X124541971Y-114906371D01*
X124622681Y-114755372D01*
X124636399Y-114734842D01*
X124745026Y-114602479D01*
X124762479Y-114585026D01*
X124894842Y-114476399D01*
X124915369Y-114462683D01*
X125066371Y-114381971D01*
X125089191Y-114372518D01*
X125253043Y-114322815D01*
X125277260Y-114317999D01*
X125453837Y-114300607D01*
X125466187Y-114300000D01*
X128533813Y-114300000D01*
X128546163Y-114300607D01*
X128722740Y-114317999D01*
X128746957Y-114322815D01*
X128910809Y-114372518D01*
X128933629Y-114381971D01*
X129084631Y-114462683D01*
X129105158Y-114476399D01*
X129237521Y-114585026D01*
X129254974Y-114602479D01*
X129363601Y-114734842D01*
X129377319Y-114755372D01*
X129458029Y-114906371D01*
X129467482Y-114929190D01*
X129517185Y-115093043D01*
X129522002Y-115117263D01*
X129539393Y-115293837D01*
X129540000Y-115306187D01*
X129540000Y-120015000D01*
X134620000Y-120015000D01*
X134620000Y-115306187D01*
X134620607Y-115293837D01*
X134637998Y-115117263D01*
X134642815Y-115093043D01*
X134692518Y-114929190D01*
X134701971Y-114906371D01*
X134782681Y-114755372D01*
X134796399Y-114734842D01*
X134905026Y-114602479D01*
X134922479Y-114585026D01*
X135054842Y-114476399D01*
X135075369Y-114462683D01*
X135226371Y-114381971D01*
X135249191Y-114372518D01*
X135413043Y-114322815D01*
X135437260Y-114317999D01*
X135613837Y-114300607D01*
X135626187Y-114300000D01*
X138693813Y-114300000D01*
X138706163Y-114300607D01*
X138882740Y-114317999D01*
X138906957Y-114322815D01*
X139070809Y-114372518D01*
X139093629Y-114381971D01*
X139244631Y-114462683D01*
X139265158Y-114476399D01*
X139397521Y-114585026D01*
X139414974Y-114602479D01*
X139523601Y-114734842D01*
X139537319Y-114755372D01*
X139618029Y-114906371D01*
X139627482Y-114929190D01*
X139677185Y-115093043D01*
X139682002Y-115117263D01*
X139699393Y-115293837D01*
X139700000Y-115306187D01*
X139700000Y-125993813D01*
X139699393Y-126006163D01*
X139682002Y-126182737D01*
X139677185Y-126206957D01*
X139627482Y-126370809D01*
X139618029Y-126393629D01*
X139537319Y-126544628D01*
X139523601Y-126565158D01*
X139414974Y-126697521D01*
X139397521Y-126714974D01*
X139265158Y-126823601D01*
X139244631Y-126837317D01*
X139152417Y-126886607D01*
X139093629Y-126918029D01*
X139070810Y-126927482D01*
X138906957Y-126977185D01*
X138882740Y-126982001D01*
X138706163Y-126999393D01*
X138693813Y-127000000D01*
X115306187Y-127000000D01*
X115293837Y-126999393D01*
X115117260Y-126982001D01*
X115093043Y-126977185D01*
X114929190Y-126927482D01*
X114906371Y-126918029D01*
X114847583Y-126886607D01*
X114755369Y-126837317D01*
X114734842Y-126823601D01*
X114602479Y-126714974D01*
X114585026Y-126697521D01*
X114476399Y-126565158D01*
X114462681Y-126544628D01*
X114381971Y-126393629D01*
X114372518Y-126370809D01*
X114322815Y-126206957D01*
X114317998Y-126182737D01*
X114300607Y-126006163D01*
X114300000Y-125993813D01*
X114300000Y-115306187D01*
X114300607Y-115293837D01*
X114317998Y-115117263D01*
X114322815Y-115093043D01*
X114372518Y-114929190D01*
X114381971Y-114906371D01*
X114462681Y-114755372D01*
X114476399Y-114734842D01*
X114585026Y-114602479D01*
X114602479Y-114585026D01*
X114734842Y-114476399D01*
X114755369Y-114462683D01*
X114906371Y-114381971D01*
X114929191Y-114372518D01*
X115093043Y-114322815D01*
X115117260Y-114317999D01*
X115293837Y-114300607D01*
X115306187Y-114300000D01*
X118373813Y-114300000D01*
X118386163Y-114300607D01*
G37*
G04 #@! TD.AperFunction*
M02*
