M48
; DRILL file {KiCad (6.0.4)} date Tue Mar 29 14:21:52 2022
; FORMAT={-:-/ absolute / metric / decimal}
; #@! TF.CreationDate,2022-03-29T14:21:52-03:00
; #@! TF.GenerationSoftware,Kicad,Pcbnew,(6.0.4)
; #@! TF.FileFunction,Plated,1,2,PTH
FMAT,2
METRIC
; #@! TA.AperFunction,Plated,PTH,ViaDrill
T1C0.600
; #@! TA.AperFunction,Plated,PTH,ComponentDrill
T2C0.900
; #@! TA.AperFunction,Plated,PTH,ComponentDrill
T3C1.000
; #@! TA.AperFunction,Plated,PTH,ComponentDrill
T4C1.300
%
G90
G05
T1
X67.945Y-90.805
X77.47Y-90.805
X113.665Y-98.425
X143.51Y-95.885
X146.685Y-100.33
X173.99Y-97.79
T2
X82.55Y-93.98
X82.55Y-96.52
X82.55Y-99.06
X82.55Y-101.6
X82.55Y-104.14
X82.55Y-106.68
X82.55Y-109.22
X82.55Y-111.76
X82.55Y-114.3
X82.55Y-116.84
X107.95Y-93.98
X107.95Y-96.52
X107.95Y-99.06
X107.95Y-101.6
X107.95Y-104.14
X107.95Y-106.68
X107.95Y-109.22
X107.95Y-111.76
X107.95Y-114.3
X107.95Y-116.84
T3
X119.38Y-88.9
X119.38Y-106.68
X121.92Y-88.9
X121.92Y-106.68
X124.46Y-88.9
X124.46Y-106.68
X134.62Y-88.9
X134.62Y-106.68
X137.16Y-88.9
X137.16Y-106.68
X139.7Y-88.9
X139.7Y-106.68
X149.86Y-88.9
X149.86Y-106.68
X152.4Y-88.9
X152.4Y-106.68
X154.94Y-88.9
X154.94Y-106.68
X165.1Y-88.9
X165.1Y-106.68
X167.64Y-88.9
X167.64Y-106.68
X170.18Y-88.9
X170.18Y-106.68
T4
X69.85Y-116.84
X74.93Y-116.84
X116.84Y-78.74
X116.84Y-116.84
X121.92Y-78.74
X121.92Y-116.84
X127.0Y-78.74
X127.0Y-116.84
X132.08Y-78.74
X132.08Y-116.84
X137.16Y-78.74
X137.16Y-116.84
X142.24Y-78.74
X142.24Y-116.84
X147.32Y-78.74
X147.32Y-116.84
X152.4Y-78.74
X152.4Y-116.84
X157.48Y-78.74
X157.48Y-116.84
X162.56Y-78.74
X162.56Y-116.84
X167.64Y-78.74
X167.64Y-116.84
X172.72Y-78.74
X172.72Y-116.84
T0
M30
