G04 #@! TF.GenerationSoftware,KiCad,Pcbnew,(6.0.4)*
G04 #@! TF.CreationDate,2022-03-29T14:19:39-03:00*
G04 #@! TF.ProjectId,ESP-pwm_8ch-V1,4553502d-7077-46d5-9f38-63682d56312e,rev?*
G04 #@! TF.SameCoordinates,Original*
G04 #@! TF.FileFunction,Paste,Top*
G04 #@! TF.FilePolarity,Positive*
%FSLAX46Y46*%
G04 Gerber Fmt 4.6, Leading zero omitted, Abs format (unit mm)*
G04 Created by KiCad (PCBNEW (6.0.4)) date 2022-03-29 14:19:39*
%MOMM*%
%LPD*%
G01*
G04 APERTURE LIST*
G04 Aperture macros list*
%AMRoundRect*
0 Rectangle with rounded corners*
0 $1 Rounding radius*
0 $2 $3 $4 $5 $6 $7 $8 $9 X,Y pos of 4 corners*
0 Add a 4 corners polygon primitive as box body*
4,1,4,$2,$3,$4,$5,$6,$7,$8,$9,$2,$3,0*
0 Add four circle primitives for the rounded corners*
1,1,$1+$1,$2,$3*
1,1,$1+$1,$4,$5*
1,1,$1+$1,$6,$7*
1,1,$1+$1,$8,$9*
0 Add four rect primitives between the rounded corners*
20,1,$1+$1,$2,$3,$4,$5,0*
20,1,$1+$1,$4,$5,$6,$7,0*
20,1,$1+$1,$6,$7,$8,$9,0*
20,1,$1+$1,$8,$9,$2,$3,0*%
G04 Aperture macros list end*
%ADD10RoundRect,0.150000X0.150000X-0.825000X0.150000X0.825000X-0.150000X0.825000X-0.150000X-0.825000X0*%
%ADD11RoundRect,0.250000X-0.475000X0.250000X-0.475000X-0.250000X0.475000X-0.250000X0.475000X0.250000X0*%
%ADD12RoundRect,0.218750X-0.218750X-0.256250X0.218750X-0.256250X0.218750X0.256250X-0.218750X0.256250X0*%
%ADD13RoundRect,0.250000X0.450000X-0.262500X0.450000X0.262500X-0.450000X0.262500X-0.450000X-0.262500X0*%
%ADD14RoundRect,0.250000X0.262500X0.450000X-0.262500X0.450000X-0.262500X-0.450000X0.262500X-0.450000X0*%
%ADD15RoundRect,0.250000X0.475000X-0.250000X0.475000X0.250000X-0.475000X0.250000X-0.475000X-0.250000X0*%
%ADD16R,2.750000X3.050000*%
%ADD17R,1.600000X2.200000*%
%ADD18RoundRect,0.150000X-0.150000X0.825000X-0.150000X-0.825000X0.150000X-0.825000X0.150000X0.825000X0*%
%ADD19RoundRect,0.250000X0.425000X-0.537500X0.425000X0.537500X-0.425000X0.537500X-0.425000X-0.537500X0*%
%ADD20RoundRect,0.250000X-0.425000X0.537500X-0.425000X-0.537500X0.425000X-0.537500X0.425000X0.537500X0*%
%ADD21RoundRect,0.250000X-1.500000X-0.550000X1.500000X-0.550000X1.500000X0.550000X-1.500000X0.550000X0*%
%ADD22RoundRect,0.250000X-0.537500X-0.425000X0.537500X-0.425000X0.537500X0.425000X-0.537500X0.425000X0*%
%ADD23RoundRect,0.325000X0.325000X0.550000X-0.325000X0.550000X-0.325000X-0.550000X0.325000X-0.550000X0*%
%ADD24RoundRect,0.250000X-0.250000X-0.475000X0.250000X-0.475000X0.250000X0.475000X-0.250000X0.475000X0*%
%ADD25RoundRect,0.250000X-0.262500X-0.450000X0.262500X-0.450000X0.262500X0.450000X-0.262500X0.450000X0*%
G04 APERTURE END LIST*
D10*
X163195000Y-98995000D03*
X164465000Y-98995000D03*
X165735000Y-98995000D03*
X167005000Y-98995000D03*
X167005000Y-94045000D03*
X165735000Y-94045000D03*
X164465000Y-94045000D03*
X163195000Y-94045000D03*
D11*
X171450000Y-95885000D03*
X171450000Y-97785000D03*
D12*
X73330000Y-71755000D03*
X71755000Y-71755000D03*
D13*
X85090000Y-90725000D03*
X85090000Y-88900000D03*
D10*
X132715000Y-98995000D03*
X133985000Y-98995000D03*
X135255000Y-98995000D03*
X136525000Y-98995000D03*
X136525000Y-94045000D03*
X135255000Y-94045000D03*
X133985000Y-94045000D03*
X132715000Y-94045000D03*
D14*
X130810000Y-106680000D03*
X128985000Y-106680000D03*
D15*
X116840000Y-100325000D03*
X116840000Y-98425000D03*
D16*
X74290000Y-88545000D03*
X71240000Y-91895000D03*
X74290000Y-91895000D03*
X71240000Y-88545000D03*
D17*
X70485000Y-96520000D03*
X75045000Y-96520000D03*
D18*
X125095000Y-96585000D03*
X123825000Y-96585000D03*
X122555000Y-96585000D03*
X121285000Y-96585000D03*
X121285000Y-101535000D03*
X122555000Y-101535000D03*
X123825000Y-101535000D03*
X125095000Y-101535000D03*
D19*
X151130000Y-100665000D03*
X151130000Y-97790000D03*
D13*
X146050000Y-106680000D03*
X146050000Y-104855000D03*
X82550000Y-88900000D03*
X82550000Y-90725000D03*
D14*
X141605000Y-93345000D03*
X139780000Y-93345000D03*
D15*
X148590000Y-100965000D03*
X148590000Y-99065000D03*
D20*
X138430000Y-95885000D03*
X138430000Y-98760000D03*
D12*
X73330000Y-75565000D03*
X71755000Y-75565000D03*
D14*
X161290000Y-106680000D03*
X159465000Y-106680000D03*
X172085000Y-93345000D03*
X170260000Y-93345000D03*
D21*
X69850000Y-102870000D03*
X75450000Y-102870000D03*
D22*
X74930000Y-109220000D03*
X77805000Y-109220000D03*
D19*
X119380000Y-101300000D03*
X119380000Y-98425000D03*
D18*
X156845000Y-96585000D03*
X155575000Y-96585000D03*
X154305000Y-96585000D03*
X153035000Y-96585000D03*
X153035000Y-101535000D03*
X154305000Y-101535000D03*
X155575000Y-101535000D03*
X156845000Y-101535000D03*
D23*
X71880000Y-109220000D03*
X68580000Y-109220000D03*
D12*
X71755000Y-67945000D03*
X73330000Y-67945000D03*
D11*
X140970000Y-97785000D03*
X140970000Y-95885000D03*
D20*
X168910000Y-95885000D03*
X168910000Y-98760000D03*
D24*
X77470000Y-96520000D03*
X79370000Y-96520000D03*
D13*
X115570000Y-106680000D03*
X115570000Y-104855000D03*
X80010000Y-90725000D03*
X80010000Y-88900000D03*
D25*
X158750000Y-88900000D03*
X160575000Y-88900000D03*
X128270000Y-88900000D03*
X130095000Y-88900000D03*
M02*
