G04 #@! TF.GenerationSoftware,KiCad,Pcbnew,(6.0.4)*
G04 #@! TF.CreationDate,2022-03-29T14:19:39-03:00*
G04 #@! TF.ProjectId,ESP-pwm_8ch-V1,4553502d-7077-46d5-9f38-63682d56312e,rev?*
G04 #@! TF.SameCoordinates,Original*
G04 #@! TF.FileFunction,Legend,Top*
G04 #@! TF.FilePolarity,Positive*
%FSLAX46Y46*%
G04 Gerber Fmt 4.6, Leading zero omitted, Abs format (unit mm)*
G04 Created by KiCad (PCBNEW (6.0.4)) date 2022-03-29 14:19:39*
%MOMM*%
%LPD*%
G01*
G04 APERTURE LIST*
G04 Aperture macros list*
%AMRoundRect*
0 Rectangle with rounded corners*
0 $1 Rounding radius*
0 $2 $3 $4 $5 $6 $7 $8 $9 X,Y pos of 4 corners*
0 Add a 4 corners polygon primitive as box body*
4,1,4,$2,$3,$4,$5,$6,$7,$8,$9,$2,$3,0*
0 Add four circle primitives for the rounded corners*
1,1,$1+$1,$2,$3*
1,1,$1+$1,$4,$5*
1,1,$1+$1,$6,$7*
1,1,$1+$1,$8,$9*
0 Add four rect primitives between the rounded corners*
20,1,$1+$1,$2,$3,$4,$5,0*
20,1,$1+$1,$4,$5,$6,$7,0*
20,1,$1+$1,$6,$7,$8,$9,0*
20,1,$1+$1,$8,$9,$2,$3,0*%
G04 Aperture macros list end*
%ADD10C,0.200000*%
%ADD11C,0.150000*%
%ADD12C,0.300000*%
%ADD13C,0.350000*%
%ADD14C,0.250000*%
%ADD15C,0.010000*%
%ADD16C,0.050000*%
%ADD17C,0.120000*%
%ADD18R,2.500000X1.750000*%
%ADD19O,2.500000X1.750000*%
%ADD20RoundRect,0.150000X0.150000X-0.825000X0.150000X0.825000X-0.150000X0.825000X-0.150000X-0.825000X0*%
%ADD21RoundRect,0.250000X-0.475000X0.250000X-0.475000X-0.250000X0.475000X-0.250000X0.475000X0.250000X0*%
%ADD22RoundRect,0.218750X-0.218750X-0.256250X0.218750X-0.256250X0.218750X0.256250X-0.218750X0.256250X0*%
%ADD23R,2.000000X2.500000*%
%ADD24O,2.000000X2.500000*%
%ADD25RoundRect,0.250000X0.450000X-0.262500X0.450000X0.262500X-0.450000X0.262500X-0.450000X-0.262500X0*%
%ADD26R,3.500000X3.500000*%
%ADD27C,3.500000*%
%ADD28RoundRect,0.250000X0.262500X0.450000X-0.262500X0.450000X-0.262500X-0.450000X0.262500X-0.450000X0*%
%ADD29RoundRect,0.250000X0.475000X-0.250000X0.475000X0.250000X-0.475000X0.250000X-0.475000X-0.250000X0*%
%ADD30R,1.600000X2.200000*%
%ADD31R,5.800000X6.400000*%
%ADD32RoundRect,0.150000X-0.150000X0.825000X-0.150000X-0.825000X0.150000X-0.825000X0.150000X0.825000X0*%
%ADD33RoundRect,0.250000X0.425000X-0.537500X0.425000X0.537500X-0.425000X0.537500X-0.425000X-0.537500X0*%
%ADD34RoundRect,0.250000X-0.425000X0.537500X-0.425000X-0.537500X0.425000X-0.537500X0.425000X0.537500X0*%
%ADD35RoundRect,0.250000X-1.500000X-0.550000X1.500000X-0.550000X1.500000X0.550000X-1.500000X0.550000X0*%
%ADD36RoundRect,0.250000X-0.537500X-0.425000X0.537500X-0.425000X0.537500X0.425000X-0.537500X0.425000X0*%
%ADD37RoundRect,0.325000X0.325000X0.550000X-0.325000X0.550000X-0.325000X-0.550000X0.325000X-0.550000X0*%
%ADD38RoundRect,0.250000X-0.250000X-0.475000X0.250000X-0.475000X0.250000X0.475000X-0.250000X0.475000X0*%
%ADD39RoundRect,0.250000X-0.262500X-0.450000X0.262500X-0.450000X0.262500X0.450000X-0.262500X0.450000X0*%
G04 APERTURE END LIST*
D10*
X90064285Y-83585095D02*
X90064285Y-82285095D01*
X90326190Y-82285095D01*
X90483333Y-82347000D01*
X90588095Y-82470809D01*
X90640476Y-82594619D01*
X90692857Y-82842238D01*
X90692857Y-83027952D01*
X90640476Y-83275571D01*
X90588095Y-83399380D01*
X90483333Y-83523190D01*
X90326190Y-83585095D01*
X90064285Y-83585095D01*
X91164285Y-82904142D02*
X91530952Y-82904142D01*
X91688095Y-83585095D02*
X91164285Y-83585095D01*
X91164285Y-82285095D01*
X91688095Y-82285095D01*
X92107142Y-83523190D02*
X92264285Y-83585095D01*
X92526190Y-83585095D01*
X92630952Y-83523190D01*
X92683333Y-83461285D01*
X92735714Y-83337476D01*
X92735714Y-83213666D01*
X92683333Y-83089857D01*
X92630952Y-83027952D01*
X92526190Y-82966047D01*
X92316666Y-82904142D01*
X92211904Y-82842238D01*
X92159523Y-82780333D01*
X92107142Y-82656523D01*
X92107142Y-82532714D01*
X92159523Y-82408904D01*
X92211904Y-82347000D01*
X92316666Y-82285095D01*
X92578571Y-82285095D01*
X92735714Y-82347000D01*
X93207142Y-83585095D02*
X93207142Y-82285095D01*
X94307142Y-82347000D02*
X94202380Y-82285095D01*
X94045238Y-82285095D01*
X93888095Y-82347000D01*
X93783333Y-82470809D01*
X93730952Y-82594619D01*
X93678571Y-82842238D01*
X93678571Y-83027952D01*
X93730952Y-83275571D01*
X93783333Y-83399380D01*
X93888095Y-83523190D01*
X94045238Y-83585095D01*
X94150000Y-83585095D01*
X94307142Y-83523190D01*
X94359523Y-83461285D01*
X94359523Y-83027952D01*
X94150000Y-83027952D01*
X94830952Y-83585095D02*
X94830952Y-82285095D01*
X95459523Y-83585095D01*
X95459523Y-82285095D01*
X95983333Y-82904142D02*
X96350000Y-82904142D01*
X96507142Y-83585095D02*
X95983333Y-83585095D01*
X95983333Y-82285095D01*
X96507142Y-82285095D01*
X96978571Y-83585095D02*
X96978571Y-82285095D01*
X97240476Y-82285095D01*
X97397619Y-82347000D01*
X97502380Y-82470809D01*
X97554761Y-82594619D01*
X97607142Y-82842238D01*
X97607142Y-83027952D01*
X97554761Y-83275571D01*
X97502380Y-83399380D01*
X97397619Y-83523190D01*
X97240476Y-83585095D01*
X96978571Y-83585095D01*
X99283333Y-82904142D02*
X99440476Y-82966047D01*
X99492857Y-83027952D01*
X99545238Y-83151761D01*
X99545238Y-83337476D01*
X99492857Y-83461285D01*
X99440476Y-83523190D01*
X99335714Y-83585095D01*
X98916666Y-83585095D01*
X98916666Y-82285095D01*
X99283333Y-82285095D01*
X99388095Y-82347000D01*
X99440476Y-82408904D01*
X99492857Y-82532714D01*
X99492857Y-82656523D01*
X99440476Y-82780333D01*
X99388095Y-82842238D01*
X99283333Y-82904142D01*
X98916666Y-82904142D01*
X100226190Y-82966047D02*
X100226190Y-83585095D01*
X99859523Y-82285095D02*
X100226190Y-82966047D01*
X100592857Y-82285095D01*
X88990476Y-84378095D02*
X89619047Y-84378095D01*
X89304761Y-85678095D02*
X89304761Y-84378095D01*
X89933333Y-85306666D02*
X90457142Y-85306666D01*
X89828571Y-85678095D02*
X90195238Y-84378095D01*
X90561904Y-85678095D01*
X91452380Y-85678095D02*
X90928571Y-85678095D01*
X90928571Y-84378095D01*
X91819047Y-84997142D02*
X92185714Y-84997142D01*
X92342857Y-85678095D02*
X91819047Y-85678095D01*
X91819047Y-84378095D01*
X92342857Y-84378095D01*
X92761904Y-85616190D02*
X92919047Y-85678095D01*
X93180952Y-85678095D01*
X93285714Y-85616190D01*
X93338095Y-85554285D01*
X93390476Y-85430476D01*
X93390476Y-85306666D01*
X93338095Y-85182857D01*
X93285714Y-85120952D01*
X93180952Y-85059047D01*
X92971428Y-84997142D01*
X92866666Y-84935238D01*
X92814285Y-84873333D01*
X92761904Y-84749523D01*
X92761904Y-84625714D01*
X92814285Y-84501904D01*
X92866666Y-84440000D01*
X92971428Y-84378095D01*
X93233333Y-84378095D01*
X93390476Y-84440000D01*
X94700000Y-85678095D02*
X94700000Y-84378095D01*
X95066666Y-85306666D01*
X95433333Y-84378095D01*
X95433333Y-85678095D01*
X95904761Y-85306666D02*
X96428571Y-85306666D01*
X95800000Y-85678095D02*
X96166666Y-84378095D01*
X96533333Y-85678095D01*
X96847619Y-85616190D02*
X97004761Y-85678095D01*
X97266666Y-85678095D01*
X97371428Y-85616190D01*
X97423809Y-85554285D01*
X97476190Y-85430476D01*
X97476190Y-85306666D01*
X97423809Y-85182857D01*
X97371428Y-85120952D01*
X97266666Y-85059047D01*
X97057142Y-84997142D01*
X96952380Y-84935238D01*
X96900000Y-84873333D01*
X96847619Y-84749523D01*
X96847619Y-84625714D01*
X96900000Y-84501904D01*
X96952380Y-84440000D01*
X97057142Y-84378095D01*
X97319047Y-84378095D01*
X97476190Y-84440000D01*
X98576190Y-85554285D02*
X98523809Y-85616190D01*
X98366666Y-85678095D01*
X98261904Y-85678095D01*
X98104761Y-85616190D01*
X98000000Y-85492380D01*
X97947619Y-85368571D01*
X97895238Y-85120952D01*
X97895238Y-84935238D01*
X97947619Y-84687619D01*
X98000000Y-84563809D01*
X98104761Y-84440000D01*
X98261904Y-84378095D01*
X98366666Y-84378095D01*
X98523809Y-84440000D01*
X98576190Y-84501904D01*
X99047619Y-85678095D02*
X99047619Y-84378095D01*
X99047619Y-84997142D02*
X99676190Y-84997142D01*
X99676190Y-85678095D02*
X99676190Y-84378095D01*
X100200000Y-85678095D02*
X100200000Y-84378095D01*
X100933333Y-84378095D02*
X101142857Y-84378095D01*
X101247619Y-84440000D01*
X101352380Y-84563809D01*
X101404761Y-84811428D01*
X101404761Y-85244761D01*
X101352380Y-85492380D01*
X101247619Y-85616190D01*
X101142857Y-85678095D01*
X100933333Y-85678095D01*
X100828571Y-85616190D01*
X100723809Y-85492380D01*
X100671428Y-85244761D01*
X100671428Y-84811428D01*
X100723809Y-84563809D01*
X100828571Y-84440000D01*
X100933333Y-84378095D01*
X93364285Y-86594904D02*
X93416666Y-86533000D01*
X93521428Y-86471095D01*
X93783333Y-86471095D01*
X93888095Y-86533000D01*
X93940476Y-86594904D01*
X93992857Y-86718714D01*
X93992857Y-86842523D01*
X93940476Y-87028238D01*
X93311904Y-87771095D01*
X93992857Y-87771095D01*
X94673809Y-86471095D02*
X94778571Y-86471095D01*
X94883333Y-86533000D01*
X94935714Y-86594904D01*
X94988095Y-86718714D01*
X95040476Y-86966333D01*
X95040476Y-87275857D01*
X94988095Y-87523476D01*
X94935714Y-87647285D01*
X94883333Y-87709190D01*
X94778571Y-87771095D01*
X94673809Y-87771095D01*
X94569047Y-87709190D01*
X94516666Y-87647285D01*
X94464285Y-87523476D01*
X94411904Y-87275857D01*
X94411904Y-86966333D01*
X94464285Y-86718714D01*
X94516666Y-86594904D01*
X94569047Y-86533000D01*
X94673809Y-86471095D01*
X95459523Y-86594904D02*
X95511904Y-86533000D01*
X95616666Y-86471095D01*
X95878571Y-86471095D01*
X95983333Y-86533000D01*
X96035714Y-86594904D01*
X96088095Y-86718714D01*
X96088095Y-86842523D01*
X96035714Y-87028238D01*
X95407142Y-87771095D01*
X96088095Y-87771095D01*
X96507142Y-86594904D02*
X96559523Y-86533000D01*
X96664285Y-86471095D01*
X96926190Y-86471095D01*
X97030952Y-86533000D01*
X97083333Y-86594904D01*
X97135714Y-86718714D01*
X97135714Y-86842523D01*
X97083333Y-87028238D01*
X96454761Y-87771095D01*
X97135714Y-87771095D01*
D11*
X69850000Y-69850000D02*
X80010000Y-69850000D01*
X80010000Y-77470000D02*
X80010000Y-66040000D01*
X69850000Y-77470000D02*
X80010000Y-77470000D01*
X80010000Y-66040000D02*
X69850000Y-66040000D01*
X69850000Y-73660000D02*
X80010000Y-73660000D01*
X69850000Y-66040000D02*
X69850000Y-77470000D01*
D12*
X85090000Y-106680000D02*
X85090000Y-97790000D01*
X105410000Y-97790000D02*
X105410000Y-106680000D01*
D13*
X165100000Y-65405000D02*
X165100000Y-71755000D01*
X175260000Y-65405000D02*
X175260000Y-71755000D01*
X134620000Y-124460000D02*
X134620000Y-130810000D01*
X114300000Y-124460000D02*
X114300000Y-130810000D01*
X165100000Y-124460000D02*
X165100000Y-130810000D01*
X144780000Y-65405000D02*
X144780000Y-71755000D01*
D12*
X85090000Y-97790000D02*
X105410000Y-97790000D01*
D13*
X154940000Y-124460000D02*
X154940000Y-130810000D01*
D12*
X105410000Y-106680000D02*
X85090000Y-106680000D01*
D13*
X144480000Y-124460000D02*
X144480000Y-130810000D01*
X175260000Y-124460000D02*
X175260000Y-130810000D01*
X124460000Y-124460000D02*
X124460000Y-130810000D01*
X114300000Y-65405000D02*
X114300000Y-71755000D01*
X134620000Y-65405000D02*
X134620000Y-71755000D01*
X154940000Y-65405000D02*
X154940000Y-71755000D01*
X124460000Y-65405000D02*
X124460000Y-71755000D01*
X67310000Y-124460000D02*
X67310000Y-130810000D01*
X77470000Y-124460000D02*
X77470000Y-130810000D01*
D14*
X70770952Y-130218571D02*
X70199523Y-130218571D01*
X70485238Y-130218571D02*
X70485238Y-128718571D01*
X70390000Y-128932857D01*
X70294761Y-129075714D01*
X70199523Y-129147142D01*
X71151904Y-128861428D02*
X71199523Y-128790000D01*
X71294761Y-128718571D01*
X71532857Y-128718571D01*
X71628095Y-128790000D01*
X71675714Y-128861428D01*
X71723333Y-129004285D01*
X71723333Y-129147142D01*
X71675714Y-129361428D01*
X71104285Y-130218571D01*
X71723333Y-130218571D01*
X72009047Y-128718571D02*
X72342380Y-130218571D01*
X72675714Y-128718571D01*
X73009047Y-130218571D02*
X73009047Y-128718571D01*
X73247142Y-128718571D01*
X73390000Y-128790000D01*
X73485238Y-128932857D01*
X73532857Y-129075714D01*
X73580476Y-129361428D01*
X73580476Y-129575714D01*
X73532857Y-129861428D01*
X73485238Y-130004285D01*
X73390000Y-130147142D01*
X73247142Y-130218571D01*
X73009047Y-130218571D01*
X74580476Y-130075714D02*
X74532857Y-130147142D01*
X74390000Y-130218571D01*
X74294761Y-130218571D01*
X74151904Y-130147142D01*
X74056666Y-130004285D01*
X74009047Y-129861428D01*
X73961428Y-129575714D01*
X73961428Y-129361428D01*
X74009047Y-129075714D01*
X74056666Y-128932857D01*
X74151904Y-128790000D01*
X74294761Y-128718571D01*
X74390000Y-128718571D01*
X74532857Y-128790000D01*
X74580476Y-128861428D01*
X82478571Y-120411904D02*
X82307142Y-120316666D01*
X82221428Y-120221428D01*
X82135714Y-120030952D01*
X82135714Y-119935714D01*
X82221428Y-119745238D01*
X82307142Y-119650000D01*
X82478571Y-119554761D01*
X82821428Y-119554761D01*
X82992857Y-119650000D01*
X83078571Y-119745238D01*
X83164285Y-119935714D01*
X83164285Y-120030952D01*
X83078571Y-120221428D01*
X82992857Y-120316666D01*
X82821428Y-120411904D01*
X82478571Y-120411904D01*
X82307142Y-120507142D01*
X82221428Y-120602380D01*
X82135714Y-120792857D01*
X82135714Y-121173809D01*
X82221428Y-121364285D01*
X82307142Y-121459523D01*
X82478571Y-121554761D01*
X82821428Y-121554761D01*
X82992857Y-121459523D01*
X83078571Y-121364285D01*
X83164285Y-121173809D01*
X83164285Y-120792857D01*
X83078571Y-120602380D01*
X82992857Y-120507142D01*
X82821428Y-120411904D01*
X83764285Y-121554761D02*
X84707142Y-120221428D01*
X83764285Y-120221428D02*
X84707142Y-121554761D01*
X86764285Y-121554761D02*
X86764285Y-119554761D01*
X87449999Y-119554761D01*
X87621428Y-119650000D01*
X87707142Y-119745238D01*
X87792857Y-119935714D01*
X87792857Y-120221428D01*
X87707142Y-120411904D01*
X87621428Y-120507142D01*
X87449999Y-120602380D01*
X86764285Y-120602380D01*
X88392857Y-119554761D02*
X88821428Y-121554761D01*
X89164285Y-120126190D01*
X89507142Y-121554761D01*
X89935714Y-119554761D01*
X90621428Y-121554761D02*
X90621428Y-119554761D01*
X91221428Y-120983333D01*
X91821428Y-119554761D01*
X91821428Y-121554761D01*
X94392857Y-119554761D02*
X94735714Y-119554761D01*
X94907142Y-119650000D01*
X95078571Y-119840476D01*
X95164285Y-120221428D01*
X95164285Y-120888095D01*
X95078571Y-121269047D01*
X94907142Y-121459523D01*
X94735714Y-121554761D01*
X94392857Y-121554761D01*
X94221428Y-121459523D01*
X94049999Y-121269047D01*
X93964285Y-120888095D01*
X93964285Y-120221428D01*
X94049999Y-119840476D01*
X94221428Y-119650000D01*
X94392857Y-119554761D01*
X95935714Y-119554761D02*
X95935714Y-121173809D01*
X96021428Y-121364285D01*
X96107142Y-121459523D01*
X96278571Y-121554761D01*
X96621428Y-121554761D01*
X96792857Y-121459523D01*
X96878571Y-121364285D01*
X96964285Y-121173809D01*
X96964285Y-119554761D01*
X97564285Y-119554761D02*
X98592857Y-119554761D01*
X98078571Y-121554761D02*
X98078571Y-119554761D01*
X101507142Y-121554761D02*
X100478571Y-121554761D01*
X100992857Y-121554761D02*
X100992857Y-119554761D01*
X100821428Y-119840476D01*
X100649999Y-120030952D01*
X100478571Y-120126190D01*
X102192857Y-119745238D02*
X102278571Y-119650000D01*
X102449999Y-119554761D01*
X102878571Y-119554761D01*
X103049999Y-119650000D01*
X103135714Y-119745238D01*
X103221428Y-119935714D01*
X103221428Y-120126190D01*
X103135714Y-120411904D01*
X102107142Y-121554761D01*
X103221428Y-121554761D01*
X103735714Y-119554761D02*
X104335714Y-121554761D01*
X104935714Y-119554761D01*
X105535714Y-121554761D02*
X105535714Y-119554761D01*
X105964285Y-119554761D01*
X106221428Y-119650000D01*
X106392857Y-119840476D01*
X106478571Y-120030952D01*
X106564285Y-120411904D01*
X106564285Y-120697619D01*
X106478571Y-121078571D01*
X106392857Y-121269047D01*
X106221428Y-121459523D01*
X105964285Y-121554761D01*
X105535714Y-121554761D01*
X108364285Y-121364285D02*
X108278571Y-121459523D01*
X108021428Y-121554761D01*
X107849999Y-121554761D01*
X107592857Y-121459523D01*
X107421428Y-121269047D01*
X107335714Y-121078571D01*
X107249999Y-120697619D01*
X107249999Y-120411904D01*
X107335714Y-120030952D01*
X107421428Y-119840476D01*
X107592857Y-119650000D01*
X107849999Y-119554761D01*
X108021428Y-119554761D01*
X108278571Y-119650000D01*
X108364285Y-119745238D01*
D10*
X75974285Y-76107857D02*
X75288571Y-76107857D01*
X75631428Y-76107857D02*
X75631428Y-74907857D01*
X75517142Y-75079285D01*
X75402857Y-75193571D01*
X75288571Y-75250714D01*
X76431428Y-75022142D02*
X76488571Y-74965000D01*
X76602857Y-74907857D01*
X76888571Y-74907857D01*
X77002857Y-74965000D01*
X77060000Y-75022142D01*
X77117142Y-75136428D01*
X77117142Y-75250714D01*
X77060000Y-75422142D01*
X76374285Y-76107857D01*
X77117142Y-76107857D01*
X77460000Y-74907857D02*
X77860000Y-76107857D01*
X78260000Y-74907857D01*
X75917142Y-71097857D02*
X75345714Y-71097857D01*
X75288571Y-71669285D01*
X75345714Y-71612142D01*
X75460000Y-71555000D01*
X75745714Y-71555000D01*
X75860000Y-71612142D01*
X75917142Y-71669285D01*
X75974285Y-71783571D01*
X75974285Y-72069285D01*
X75917142Y-72183571D01*
X75860000Y-72240714D01*
X75745714Y-72297857D01*
X75460000Y-72297857D01*
X75345714Y-72240714D01*
X75288571Y-72183571D01*
X76317142Y-71097857D02*
X76717142Y-72297857D01*
X77117142Y-71097857D01*
X75231428Y-67287857D02*
X75974285Y-67287857D01*
X75574285Y-67745000D01*
X75745714Y-67745000D01*
X75860000Y-67802142D01*
X75917142Y-67859285D01*
X75974285Y-67973571D01*
X75974285Y-68259285D01*
X75917142Y-68373571D01*
X75860000Y-68430714D01*
X75745714Y-68487857D01*
X75402857Y-68487857D01*
X75288571Y-68430714D01*
X75231428Y-68373571D01*
X76488571Y-68373571D02*
X76545714Y-68430714D01*
X76488571Y-68487857D01*
X76431428Y-68430714D01*
X76488571Y-68373571D01*
X76488571Y-68487857D01*
X76945714Y-67287857D02*
X77688571Y-67287857D01*
X77288571Y-67745000D01*
X77460000Y-67745000D01*
X77574285Y-67802142D01*
X77631428Y-67859285D01*
X77688571Y-67973571D01*
X77688571Y-68259285D01*
X77631428Y-68373571D01*
X77574285Y-68430714D01*
X77460000Y-68487857D01*
X77117142Y-68487857D01*
X77002857Y-68430714D01*
X76945714Y-68373571D01*
X78031428Y-67287857D02*
X78431428Y-68487857D01*
X78831428Y-67287857D01*
D14*
X91892857Y-108461071D02*
X92178571Y-108461071D01*
X92321428Y-108532500D01*
X92464285Y-108675357D01*
X92535714Y-108961071D01*
X92535714Y-109461071D01*
X92464285Y-109746785D01*
X92321428Y-109889642D01*
X92178571Y-109961071D01*
X91892857Y-109961071D01*
X91750000Y-109889642D01*
X91607142Y-109746785D01*
X91535714Y-109461071D01*
X91535714Y-108961071D01*
X91607142Y-108675357D01*
X91750000Y-108532500D01*
X91892857Y-108461071D01*
X93892857Y-109961071D02*
X93178571Y-109961071D01*
X93178571Y-108461071D01*
X94392857Y-109961071D02*
X94392857Y-108461071D01*
X95107142Y-109961071D02*
X95107142Y-108461071D01*
X95607142Y-109532500D01*
X96107142Y-108461071D01*
X96107142Y-109961071D01*
X96821428Y-109175357D02*
X97321428Y-109175357D01*
X97535714Y-109961071D02*
X96821428Y-109961071D01*
X96821428Y-108461071D01*
X97535714Y-108461071D01*
X98035714Y-108461071D02*
X99035714Y-109961071D01*
X99035714Y-108461071D02*
X98035714Y-109961071D01*
X86107142Y-111590357D02*
X86607142Y-111590357D01*
X86821428Y-112376071D02*
X86107142Y-112376071D01*
X86107142Y-110876071D01*
X86821428Y-110876071D01*
X87392857Y-112304642D02*
X87607142Y-112376071D01*
X87964285Y-112376071D01*
X88107142Y-112304642D01*
X88178571Y-112233214D01*
X88250000Y-112090357D01*
X88250000Y-111947500D01*
X88178571Y-111804642D01*
X88107142Y-111733214D01*
X87964285Y-111661785D01*
X87678571Y-111590357D01*
X87535714Y-111518928D01*
X87464285Y-111447500D01*
X87392857Y-111304642D01*
X87392857Y-111161785D01*
X87464285Y-111018928D01*
X87535714Y-110947500D01*
X87678571Y-110876071D01*
X88035714Y-110876071D01*
X88250000Y-110947500D01*
X88892857Y-112376071D02*
X88892857Y-110876071D01*
X89464285Y-110876071D01*
X89607142Y-110947500D01*
X89678571Y-111018928D01*
X89750000Y-111161785D01*
X89750000Y-111376071D01*
X89678571Y-111518928D01*
X89607142Y-111590357D01*
X89464285Y-111661785D01*
X88892857Y-111661785D01*
X90250000Y-110876071D02*
X91178571Y-110876071D01*
X90678571Y-111447500D01*
X90892857Y-111447500D01*
X91035714Y-111518928D01*
X91107142Y-111590357D01*
X91178571Y-111733214D01*
X91178571Y-112090357D01*
X91107142Y-112233214D01*
X91035714Y-112304642D01*
X90892857Y-112376071D01*
X90464285Y-112376071D01*
X90321428Y-112304642D01*
X90250000Y-112233214D01*
X91750000Y-111018928D02*
X91821428Y-110947500D01*
X91964285Y-110876071D01*
X92321428Y-110876071D01*
X92464285Y-110947500D01*
X92535714Y-111018928D01*
X92607142Y-111161785D01*
X92607142Y-111304642D01*
X92535714Y-111518928D01*
X91678571Y-112376071D01*
X92607142Y-112376071D01*
X93250000Y-111804642D02*
X94392857Y-111804642D01*
X95107142Y-112376071D02*
X95107142Y-110876071D01*
X95678571Y-110876071D01*
X95821428Y-110947500D01*
X95892857Y-111018928D01*
X95964285Y-111161785D01*
X95964285Y-111376071D01*
X95892857Y-111518928D01*
X95821428Y-111590357D01*
X95678571Y-111661785D01*
X95107142Y-111661785D01*
X96892857Y-110876071D02*
X97178571Y-110876071D01*
X97321428Y-110947500D01*
X97464285Y-111090357D01*
X97535714Y-111376071D01*
X97535714Y-111876071D01*
X97464285Y-112161785D01*
X97321428Y-112304642D01*
X97178571Y-112376071D01*
X96892857Y-112376071D01*
X96750000Y-112304642D01*
X96607142Y-112161785D01*
X96535714Y-111876071D01*
X96535714Y-111376071D01*
X96607142Y-111090357D01*
X96750000Y-110947500D01*
X96892857Y-110876071D01*
X98178571Y-111590357D02*
X98678571Y-111590357D01*
X98892857Y-112376071D02*
X98178571Y-112376071D01*
X98178571Y-110876071D01*
X98892857Y-110876071D01*
X99535714Y-111804642D02*
X100678571Y-111804642D01*
X101392857Y-112376071D02*
X101392857Y-110876071D01*
X102035714Y-112304642D02*
X102250000Y-112376071D01*
X102607142Y-112376071D01*
X102750000Y-112304642D01*
X102821428Y-112233214D01*
X102892857Y-112090357D01*
X102892857Y-111947500D01*
X102821428Y-111804642D01*
X102750000Y-111733214D01*
X102607142Y-111661785D01*
X102321428Y-111590357D01*
X102178571Y-111518928D01*
X102107142Y-111447500D01*
X102035714Y-111304642D01*
X102035714Y-111161785D01*
X102107142Y-111018928D01*
X102178571Y-110947500D01*
X102321428Y-110876071D01*
X102678571Y-110876071D01*
X102892857Y-110947500D01*
X103821428Y-110876071D02*
X104107142Y-110876071D01*
X104250000Y-110947500D01*
X104392857Y-111090357D01*
X104464285Y-111376071D01*
X104464285Y-111876071D01*
X104392857Y-112161785D01*
X104250000Y-112304642D01*
X104107142Y-112376071D01*
X103821428Y-112376071D01*
X103678571Y-112304642D01*
X103535714Y-112161785D01*
X103464285Y-111876071D01*
X103464285Y-111376071D01*
X103535714Y-111090357D01*
X103678571Y-110947500D01*
X103821428Y-110876071D01*
D12*
X87021428Y-101727285D02*
X87021428Y-99927285D01*
X87554761Y-101213000D01*
X88088095Y-99927285D01*
X88088095Y-101727285D01*
X88773809Y-101213000D02*
X89535714Y-101213000D01*
X88621428Y-101727285D02*
X89154761Y-99927285D01*
X89688095Y-101727285D01*
X90069047Y-99927285D02*
X91135714Y-101727285D01*
X91135714Y-99927285D02*
X90069047Y-101727285D01*
X93726190Y-101727285D02*
X92964285Y-101727285D01*
X92964285Y-99927285D01*
X94564285Y-99927285D02*
X94869047Y-99927285D01*
X95021428Y-100013000D01*
X95173809Y-100184428D01*
X95250000Y-100527285D01*
X95250000Y-101127285D01*
X95173809Y-101470142D01*
X95021428Y-101641571D01*
X94869047Y-101727285D01*
X94564285Y-101727285D01*
X94411904Y-101641571D01*
X94259523Y-101470142D01*
X94183333Y-101127285D01*
X94183333Y-100527285D01*
X94259523Y-100184428D01*
X94411904Y-100013000D01*
X94564285Y-99927285D01*
X95859523Y-101213000D02*
X96621428Y-101213000D01*
X95707142Y-101727285D02*
X96240476Y-99927285D01*
X96773809Y-101727285D01*
X97307142Y-101727285D02*
X97307142Y-99927285D01*
X97688095Y-99927285D01*
X97916666Y-100013000D01*
X98069047Y-100184428D01*
X98145238Y-100355857D01*
X98221428Y-100698714D01*
X98221428Y-100955857D01*
X98145238Y-101298714D01*
X98069047Y-101470142D01*
X97916666Y-101641571D01*
X97688095Y-101727285D01*
X97307142Y-101727285D01*
X100888095Y-99927285D02*
X100126190Y-99927285D01*
X100050000Y-100784428D01*
X100126190Y-100698714D01*
X100278571Y-100613000D01*
X100659523Y-100613000D01*
X100811904Y-100698714D01*
X100888095Y-100784428D01*
X100964285Y-100955857D01*
X100964285Y-101384428D01*
X100888095Y-101555857D01*
X100811904Y-101641571D01*
X100659523Y-101727285D01*
X100278571Y-101727285D01*
X100126190Y-101641571D01*
X100050000Y-101555857D01*
X102792857Y-101213000D02*
X103554761Y-101213000D01*
X102640476Y-101727285D02*
X103173809Y-99927285D01*
X103707142Y-101727285D01*
X87326190Y-104625285D02*
X87326190Y-102825285D01*
X87935714Y-102825285D01*
X88088095Y-102911000D01*
X88164285Y-102996714D01*
X88240476Y-103168142D01*
X88240476Y-103425285D01*
X88164285Y-103596714D01*
X88088095Y-103682428D01*
X87935714Y-103768142D01*
X87326190Y-103768142D01*
X88926190Y-103682428D02*
X89459523Y-103682428D01*
X89688095Y-104625285D02*
X88926190Y-104625285D01*
X88926190Y-102825285D01*
X89688095Y-102825285D01*
X91288095Y-104625285D02*
X90754761Y-103768142D01*
X90373809Y-104625285D02*
X90373809Y-102825285D01*
X90983333Y-102825285D01*
X91135714Y-102911000D01*
X91211904Y-102996714D01*
X91288095Y-103168142D01*
X91288095Y-103425285D01*
X91211904Y-103596714D01*
X91135714Y-103682428D01*
X90983333Y-103768142D01*
X90373809Y-103768142D01*
X94107142Y-104453857D02*
X94030952Y-104539571D01*
X93802380Y-104625285D01*
X93650000Y-104625285D01*
X93421428Y-104539571D01*
X93269047Y-104368142D01*
X93192857Y-104196714D01*
X93116666Y-103853857D01*
X93116666Y-103596714D01*
X93192857Y-103253857D01*
X93269047Y-103082428D01*
X93421428Y-102911000D01*
X93650000Y-102825285D01*
X93802380Y-102825285D01*
X94030952Y-102911000D01*
X94107142Y-102996714D01*
X94792857Y-104625285D02*
X94792857Y-102825285D01*
X94792857Y-103682428D02*
X95707142Y-103682428D01*
X95707142Y-104625285D02*
X95707142Y-102825285D01*
X96392857Y-104111000D02*
X97154761Y-104111000D01*
X96240476Y-104625285D02*
X96773809Y-102825285D01*
X97307142Y-104625285D01*
X97840476Y-104625285D02*
X97840476Y-102825285D01*
X98754761Y-104625285D01*
X98754761Y-102825285D01*
X99516666Y-104625285D02*
X99516666Y-102825285D01*
X100430952Y-104625285D01*
X100430952Y-102825285D01*
X101192857Y-103682428D02*
X101726190Y-103682428D01*
X101954761Y-104625285D02*
X101192857Y-104625285D01*
X101192857Y-102825285D01*
X101954761Y-102825285D01*
X103402380Y-104625285D02*
X102640476Y-104625285D01*
X102640476Y-102825285D01*
D13*
X126368571Y-125858571D02*
X127740000Y-125858571D01*
X127054285Y-126544285D02*
X127054285Y-125172857D01*
X131340000Y-125858571D02*
X132711428Y-125858571D01*
D10*
X159329523Y-67210714D02*
X159281904Y-67282142D01*
X159139047Y-67353571D01*
X159043809Y-67353571D01*
X158900952Y-67282142D01*
X158805714Y-67139285D01*
X158758095Y-66996428D01*
X158710476Y-66710714D01*
X158710476Y-66496428D01*
X158758095Y-66210714D01*
X158805714Y-66067857D01*
X158900952Y-65925000D01*
X159043809Y-65853571D01*
X159139047Y-65853571D01*
X159281904Y-65925000D01*
X159329523Y-65996428D01*
X159758095Y-67353571D02*
X159758095Y-65853571D01*
X159758095Y-66567857D02*
X160329523Y-66567857D01*
X160329523Y-67353571D02*
X160329523Y-65853571D01*
X161281904Y-65853571D02*
X160805714Y-65853571D01*
X160758095Y-66567857D01*
X160805714Y-66496428D01*
X160900952Y-66425000D01*
X161139047Y-66425000D01*
X161234285Y-66496428D01*
X161281904Y-66567857D01*
X161329523Y-66710714D01*
X161329523Y-67067857D01*
X161281904Y-67210714D01*
X161234285Y-67282142D01*
X161139047Y-67353571D01*
X160900952Y-67353571D01*
X160805714Y-67282142D01*
X160758095Y-67210714D01*
D14*
X139009523Y-130075714D02*
X138961904Y-130147142D01*
X138819047Y-130218571D01*
X138723809Y-130218571D01*
X138580952Y-130147142D01*
X138485714Y-130004285D01*
X138438095Y-129861428D01*
X138390476Y-129575714D01*
X138390476Y-129361428D01*
X138438095Y-129075714D01*
X138485714Y-128932857D01*
X138580952Y-128790000D01*
X138723809Y-128718571D01*
X138819047Y-128718571D01*
X138961904Y-128790000D01*
X139009523Y-128861428D01*
X139438095Y-130218571D02*
X139438095Y-128718571D01*
X139438095Y-129432857D02*
X140009523Y-129432857D01*
X140009523Y-130218571D02*
X140009523Y-128718571D01*
X140438095Y-128861428D02*
X140485714Y-128790000D01*
X140580952Y-128718571D01*
X140819047Y-128718571D01*
X140914285Y-128790000D01*
X140961904Y-128861428D01*
X141009523Y-129004285D01*
X141009523Y-129147142D01*
X140961904Y-129361428D01*
X140390476Y-130218571D01*
X141009523Y-130218571D01*
D10*
X118689523Y-67210714D02*
X118641904Y-67282142D01*
X118499047Y-67353571D01*
X118403809Y-67353571D01*
X118260952Y-67282142D01*
X118165714Y-67139285D01*
X118118095Y-66996428D01*
X118070476Y-66710714D01*
X118070476Y-66496428D01*
X118118095Y-66210714D01*
X118165714Y-66067857D01*
X118260952Y-65925000D01*
X118403809Y-65853571D01*
X118499047Y-65853571D01*
X118641904Y-65925000D01*
X118689523Y-65996428D01*
X119118095Y-67353571D02*
X119118095Y-65853571D01*
X119118095Y-66567857D02*
X119689523Y-66567857D01*
X119689523Y-67353571D02*
X119689523Y-65853571D01*
X120308571Y-66496428D02*
X120213333Y-66425000D01*
X120165714Y-66353571D01*
X120118095Y-66210714D01*
X120118095Y-66139285D01*
X120165714Y-65996428D01*
X120213333Y-65925000D01*
X120308571Y-65853571D01*
X120499047Y-65853571D01*
X120594285Y-65925000D01*
X120641904Y-65996428D01*
X120689523Y-66139285D01*
X120689523Y-66210714D01*
X120641904Y-66353571D01*
X120594285Y-66425000D01*
X120499047Y-66496428D01*
X120308571Y-66496428D01*
X120213333Y-66567857D01*
X120165714Y-66639285D01*
X120118095Y-66782142D01*
X120118095Y-67067857D01*
X120165714Y-67210714D01*
X120213333Y-67282142D01*
X120308571Y-67353571D01*
X120499047Y-67353571D01*
X120594285Y-67282142D01*
X120641904Y-67210714D01*
X120689523Y-67067857D01*
X120689523Y-66782142D01*
X120641904Y-66639285D01*
X120594285Y-66567857D01*
X120499047Y-66496428D01*
D14*
X136223809Y-67353571D02*
X135652380Y-67353571D01*
X135938095Y-67353571D02*
X135938095Y-65853571D01*
X135842857Y-66067857D01*
X135747619Y-66210714D01*
X135652380Y-66282142D01*
X136604761Y-65996428D02*
X136652380Y-65925000D01*
X136747619Y-65853571D01*
X136985714Y-65853571D01*
X137080952Y-65925000D01*
X137128571Y-65996428D01*
X137176190Y-66139285D01*
X137176190Y-66282142D01*
X137128571Y-66496428D01*
X136557142Y-67353571D01*
X137176190Y-67353571D01*
X137461904Y-65853571D02*
X137795238Y-67353571D01*
X138128571Y-65853571D01*
X138461904Y-67353571D02*
X138461904Y-65853571D01*
X138700000Y-65853571D01*
X138842857Y-65925000D01*
X138938095Y-66067857D01*
X138985714Y-66210714D01*
X139033333Y-66496428D01*
X139033333Y-66710714D01*
X138985714Y-66996428D01*
X138938095Y-67139285D01*
X138842857Y-67282142D01*
X138700000Y-67353571D01*
X138461904Y-67353571D01*
X140033333Y-67210714D02*
X139985714Y-67282142D01*
X139842857Y-67353571D01*
X139747619Y-67353571D01*
X139604761Y-67282142D01*
X139509523Y-67139285D01*
X139461904Y-66996428D01*
X139414285Y-66710714D01*
X139414285Y-66496428D01*
X139461904Y-66210714D01*
X139509523Y-66067857D01*
X139604761Y-65925000D01*
X139747619Y-65853571D01*
X139842857Y-65853571D01*
X139985714Y-65925000D01*
X140033333Y-65996428D01*
X141128571Y-65853571D02*
X141795238Y-65853571D01*
X141366666Y-67353571D01*
X142890476Y-65782142D02*
X142033333Y-67710714D01*
X143366666Y-66496428D02*
X143271428Y-66425000D01*
X143223809Y-66353571D01*
X143176190Y-66210714D01*
X143176190Y-66139285D01*
X143223809Y-65996428D01*
X143271428Y-65925000D01*
X143366666Y-65853571D01*
X143557142Y-65853571D01*
X143652380Y-65925000D01*
X143700000Y-65996428D01*
X143747619Y-66139285D01*
X143747619Y-66210714D01*
X143700000Y-66353571D01*
X143652380Y-66425000D01*
X143557142Y-66496428D01*
X143366666Y-66496428D01*
X143271428Y-66567857D01*
X143223809Y-66639285D01*
X143176190Y-66782142D01*
X143176190Y-67067857D01*
X143223809Y-67210714D01*
X143271428Y-67282142D01*
X143366666Y-67353571D01*
X143557142Y-67353571D01*
X143652380Y-67282142D01*
X143700000Y-67210714D01*
X143747619Y-67067857D01*
X143747619Y-66782142D01*
X143700000Y-66639285D01*
X143652380Y-66567857D01*
X143557142Y-66496428D01*
X159329523Y-130075714D02*
X159281904Y-130147142D01*
X159139047Y-130218571D01*
X159043809Y-130218571D01*
X158900952Y-130147142D01*
X158805714Y-130004285D01*
X158758095Y-129861428D01*
X158710476Y-129575714D01*
X158710476Y-129361428D01*
X158758095Y-129075714D01*
X158805714Y-128932857D01*
X158900952Y-128790000D01*
X159043809Y-128718571D01*
X159139047Y-128718571D01*
X159281904Y-128790000D01*
X159329523Y-128861428D01*
X159758095Y-130218571D02*
X159758095Y-128718571D01*
X159758095Y-129432857D02*
X160329523Y-129432857D01*
X160329523Y-130218571D02*
X160329523Y-128718571D01*
X160710476Y-128718571D02*
X161329523Y-128718571D01*
X160996190Y-129290000D01*
X161139047Y-129290000D01*
X161234285Y-129361428D01*
X161281904Y-129432857D01*
X161329523Y-129575714D01*
X161329523Y-129932857D01*
X161281904Y-130075714D01*
X161234285Y-130147142D01*
X161139047Y-130218571D01*
X160853333Y-130218571D01*
X160758095Y-130147142D01*
X160710476Y-130075714D01*
D13*
X156848571Y-125858571D02*
X158220000Y-125858571D01*
X157534285Y-126544285D02*
X157534285Y-125172857D01*
X161820000Y-125858571D02*
X163191428Y-125858571D01*
X163191428Y-70356428D02*
X161820000Y-70356428D01*
X162505714Y-69670714D02*
X162505714Y-71042142D01*
X158220000Y-70356428D02*
X156848571Y-70356428D01*
X167008571Y-125858571D02*
X168380000Y-125858571D01*
X167694285Y-126544285D02*
X167694285Y-125172857D01*
X171980000Y-125858571D02*
X173351428Y-125858571D01*
X146688571Y-125858571D02*
X148060000Y-125858571D01*
X147374285Y-126544285D02*
X147374285Y-125172857D01*
X151660000Y-125858571D02*
X153031428Y-125858571D01*
X173351428Y-70356428D02*
X171980000Y-70356428D01*
X172665714Y-69670714D02*
X172665714Y-71042142D01*
X168380000Y-70356428D02*
X167008571Y-70356428D01*
D14*
X115903809Y-130218571D02*
X115332380Y-130218571D01*
X115618095Y-130218571D02*
X115618095Y-128718571D01*
X115522857Y-128932857D01*
X115427619Y-129075714D01*
X115332380Y-129147142D01*
X116284761Y-128861428D02*
X116332380Y-128790000D01*
X116427619Y-128718571D01*
X116665714Y-128718571D01*
X116760952Y-128790000D01*
X116808571Y-128861428D01*
X116856190Y-129004285D01*
X116856190Y-129147142D01*
X116808571Y-129361428D01*
X116237142Y-130218571D01*
X116856190Y-130218571D01*
X117141904Y-128718571D02*
X117475238Y-130218571D01*
X117808571Y-128718571D01*
X118141904Y-130218571D02*
X118141904Y-128718571D01*
X118380000Y-128718571D01*
X118522857Y-128790000D01*
X118618095Y-128932857D01*
X118665714Y-129075714D01*
X118713333Y-129361428D01*
X118713333Y-129575714D01*
X118665714Y-129861428D01*
X118618095Y-130004285D01*
X118522857Y-130147142D01*
X118380000Y-130218571D01*
X118141904Y-130218571D01*
X119713333Y-130075714D02*
X119665714Y-130147142D01*
X119522857Y-130218571D01*
X119427619Y-130218571D01*
X119284761Y-130147142D01*
X119189523Y-130004285D01*
X119141904Y-129861428D01*
X119094285Y-129575714D01*
X119094285Y-129361428D01*
X119141904Y-129075714D01*
X119189523Y-128932857D01*
X119284761Y-128790000D01*
X119427619Y-128718571D01*
X119522857Y-128718571D01*
X119665714Y-128790000D01*
X119713333Y-128861428D01*
X121427619Y-130218571D02*
X120856190Y-130218571D01*
X121141904Y-130218571D02*
X121141904Y-128718571D01*
X121046666Y-128932857D01*
X120951428Y-129075714D01*
X120856190Y-129147142D01*
X122570476Y-128647142D02*
X121713333Y-130575714D01*
X122856190Y-128861428D02*
X122903809Y-128790000D01*
X122999047Y-128718571D01*
X123237142Y-128718571D01*
X123332380Y-128790000D01*
X123380000Y-128861428D01*
X123427619Y-129004285D01*
X123427619Y-129147142D01*
X123380000Y-129361428D01*
X122808571Y-130218571D01*
X123427619Y-130218571D01*
D13*
X69218571Y-125858571D02*
X70590000Y-125858571D01*
X69904285Y-126544285D02*
X69904285Y-125172857D01*
X74190000Y-125858571D02*
X75561428Y-125858571D01*
X122551428Y-70356428D02*
X121180000Y-70356428D01*
X121865714Y-69670714D02*
X121865714Y-71042142D01*
X117580000Y-70356428D02*
X116208571Y-70356428D01*
X153031428Y-70356428D02*
X151660000Y-70356428D01*
X152345714Y-69670714D02*
X152345714Y-71042142D01*
X148060000Y-70356428D02*
X146688571Y-70356428D01*
X142871428Y-70356428D02*
X141500000Y-70356428D01*
X142185714Y-69670714D02*
X142185714Y-71042142D01*
X137900000Y-70356428D02*
X136528571Y-70356428D01*
X132711428Y-70356428D02*
X131340000Y-70356428D01*
X132025714Y-69670714D02*
X132025714Y-71042142D01*
X127740000Y-70356428D02*
X126368571Y-70356428D01*
D14*
X166703809Y-67353571D02*
X166132380Y-67353571D01*
X166418095Y-67353571D02*
X166418095Y-65853571D01*
X166322857Y-66067857D01*
X166227619Y-66210714D01*
X166132380Y-66282142D01*
X167084761Y-65996428D02*
X167132380Y-65925000D01*
X167227619Y-65853571D01*
X167465714Y-65853571D01*
X167560952Y-65925000D01*
X167608571Y-65996428D01*
X167656190Y-66139285D01*
X167656190Y-66282142D01*
X167608571Y-66496428D01*
X167037142Y-67353571D01*
X167656190Y-67353571D01*
X167941904Y-65853571D02*
X168275238Y-67353571D01*
X168608571Y-65853571D01*
X168941904Y-67353571D02*
X168941904Y-65853571D01*
X169180000Y-65853571D01*
X169322857Y-65925000D01*
X169418095Y-66067857D01*
X169465714Y-66210714D01*
X169513333Y-66496428D01*
X169513333Y-66710714D01*
X169465714Y-66996428D01*
X169418095Y-67139285D01*
X169322857Y-67282142D01*
X169180000Y-67353571D01*
X168941904Y-67353571D01*
X170513333Y-67210714D02*
X170465714Y-67282142D01*
X170322857Y-67353571D01*
X170227619Y-67353571D01*
X170084761Y-67282142D01*
X169989523Y-67139285D01*
X169941904Y-66996428D01*
X169894285Y-66710714D01*
X169894285Y-66496428D01*
X169941904Y-66210714D01*
X169989523Y-66067857D01*
X170084761Y-65925000D01*
X170227619Y-65853571D01*
X170322857Y-65853571D01*
X170465714Y-65925000D01*
X170513333Y-65996428D01*
X172180000Y-65853571D02*
X171703809Y-65853571D01*
X171656190Y-66567857D01*
X171703809Y-66496428D01*
X171799047Y-66425000D01*
X172037142Y-66425000D01*
X172132380Y-66496428D01*
X172180000Y-66567857D01*
X172227619Y-66710714D01*
X172227619Y-67067857D01*
X172180000Y-67210714D01*
X172132380Y-67282142D01*
X172037142Y-67353571D01*
X171799047Y-67353571D01*
X171703809Y-67282142D01*
X171656190Y-67210714D01*
X173370476Y-65782142D02*
X172513333Y-67710714D01*
X174132380Y-65853571D02*
X173941904Y-65853571D01*
X173846666Y-65925000D01*
X173799047Y-65996428D01*
X173703809Y-66210714D01*
X173656190Y-66496428D01*
X173656190Y-67067857D01*
X173703809Y-67210714D01*
X173751428Y-67282142D01*
X173846666Y-67353571D01*
X174037142Y-67353571D01*
X174132380Y-67282142D01*
X174180000Y-67210714D01*
X174227619Y-67067857D01*
X174227619Y-66710714D01*
X174180000Y-66567857D01*
X174132380Y-66496428D01*
X174037142Y-66425000D01*
X173846666Y-66425000D01*
X173751428Y-66496428D01*
X173703809Y-66567857D01*
X173656190Y-66710714D01*
X169489523Y-130075714D02*
X169441904Y-130147142D01*
X169299047Y-130218571D01*
X169203809Y-130218571D01*
X169060952Y-130147142D01*
X168965714Y-130004285D01*
X168918095Y-129861428D01*
X168870476Y-129575714D01*
X168870476Y-129361428D01*
X168918095Y-129075714D01*
X168965714Y-128932857D01*
X169060952Y-128790000D01*
X169203809Y-128718571D01*
X169299047Y-128718571D01*
X169441904Y-128790000D01*
X169489523Y-128861428D01*
X169918095Y-130218571D02*
X169918095Y-128718571D01*
X169918095Y-129432857D02*
X170489523Y-129432857D01*
X170489523Y-130218571D02*
X170489523Y-128718571D01*
X171394285Y-129218571D02*
X171394285Y-130218571D01*
X171156190Y-128647142D02*
X170918095Y-129718571D01*
X171537142Y-129718571D01*
D10*
X149169523Y-67210714D02*
X149121904Y-67282142D01*
X148979047Y-67353571D01*
X148883809Y-67353571D01*
X148740952Y-67282142D01*
X148645714Y-67139285D01*
X148598095Y-66996428D01*
X148550476Y-66710714D01*
X148550476Y-66496428D01*
X148598095Y-66210714D01*
X148645714Y-66067857D01*
X148740952Y-65925000D01*
X148883809Y-65853571D01*
X148979047Y-65853571D01*
X149121904Y-65925000D01*
X149169523Y-65996428D01*
X149598095Y-67353571D02*
X149598095Y-65853571D01*
X149598095Y-66567857D02*
X150169523Y-66567857D01*
X150169523Y-67353571D02*
X150169523Y-65853571D01*
X151074285Y-65853571D02*
X150883809Y-65853571D01*
X150788571Y-65925000D01*
X150740952Y-65996428D01*
X150645714Y-66210714D01*
X150598095Y-66496428D01*
X150598095Y-67067857D01*
X150645714Y-67210714D01*
X150693333Y-67282142D01*
X150788571Y-67353571D01*
X150979047Y-67353571D01*
X151074285Y-67282142D01*
X151121904Y-67210714D01*
X151169523Y-67067857D01*
X151169523Y-66710714D01*
X151121904Y-66567857D01*
X151074285Y-66496428D01*
X150979047Y-66425000D01*
X150788571Y-66425000D01*
X150693333Y-66496428D01*
X150645714Y-66567857D01*
X150598095Y-66710714D01*
D13*
X116208571Y-125858571D02*
X117580000Y-125858571D01*
X116894285Y-126544285D02*
X116894285Y-125172857D01*
X121180000Y-125858571D02*
X122551428Y-125858571D01*
D10*
X128849523Y-67210714D02*
X128801904Y-67282142D01*
X128659047Y-67353571D01*
X128563809Y-67353571D01*
X128420952Y-67282142D01*
X128325714Y-67139285D01*
X128278095Y-66996428D01*
X128230476Y-66710714D01*
X128230476Y-66496428D01*
X128278095Y-66210714D01*
X128325714Y-66067857D01*
X128420952Y-65925000D01*
X128563809Y-65853571D01*
X128659047Y-65853571D01*
X128801904Y-65925000D01*
X128849523Y-65996428D01*
X129278095Y-67353571D02*
X129278095Y-65853571D01*
X129278095Y-66567857D02*
X129849523Y-66567857D01*
X129849523Y-67353571D02*
X129849523Y-65853571D01*
X130230476Y-65853571D02*
X130897142Y-65853571D01*
X130468571Y-67353571D01*
D14*
X128849523Y-130075714D02*
X128801904Y-130147142D01*
X128659047Y-130218571D01*
X128563809Y-130218571D01*
X128420952Y-130147142D01*
X128325714Y-130004285D01*
X128278095Y-129861428D01*
X128230476Y-129575714D01*
X128230476Y-129361428D01*
X128278095Y-129075714D01*
X128325714Y-128932857D01*
X128420952Y-128790000D01*
X128563809Y-128718571D01*
X128659047Y-128718571D01*
X128801904Y-128790000D01*
X128849523Y-128861428D01*
X129278095Y-130218571D02*
X129278095Y-128718571D01*
X129278095Y-129432857D02*
X129849523Y-129432857D01*
X129849523Y-130218571D02*
X129849523Y-128718571D01*
X130849523Y-130218571D02*
X130278095Y-130218571D01*
X130563809Y-130218571D02*
X130563809Y-128718571D01*
X130468571Y-128932857D01*
X130373333Y-129075714D01*
X130278095Y-129147142D01*
D13*
X136528571Y-125858571D02*
X137900000Y-125858571D01*
X137214285Y-126544285D02*
X137214285Y-125172857D01*
X141500000Y-125858571D02*
X142871428Y-125858571D01*
D14*
X146383809Y-130218571D02*
X145812380Y-130218571D01*
X146098095Y-130218571D02*
X146098095Y-128718571D01*
X146002857Y-128932857D01*
X145907619Y-129075714D01*
X145812380Y-129147142D01*
X146764761Y-128861428D02*
X146812380Y-128790000D01*
X146907619Y-128718571D01*
X147145714Y-128718571D01*
X147240952Y-128790000D01*
X147288571Y-128861428D01*
X147336190Y-129004285D01*
X147336190Y-129147142D01*
X147288571Y-129361428D01*
X146717142Y-130218571D01*
X147336190Y-130218571D01*
X147621904Y-128718571D02*
X147955238Y-130218571D01*
X148288571Y-128718571D01*
X148621904Y-130218571D02*
X148621904Y-128718571D01*
X148860000Y-128718571D01*
X149002857Y-128790000D01*
X149098095Y-128932857D01*
X149145714Y-129075714D01*
X149193333Y-129361428D01*
X149193333Y-129575714D01*
X149145714Y-129861428D01*
X149098095Y-130004285D01*
X149002857Y-130147142D01*
X148860000Y-130218571D01*
X148621904Y-130218571D01*
X150193333Y-130075714D02*
X150145714Y-130147142D01*
X150002857Y-130218571D01*
X149907619Y-130218571D01*
X149764761Y-130147142D01*
X149669523Y-130004285D01*
X149621904Y-129861428D01*
X149574285Y-129575714D01*
X149574285Y-129361428D01*
X149621904Y-129075714D01*
X149669523Y-128932857D01*
X149764761Y-128790000D01*
X149907619Y-128718571D01*
X150002857Y-128718571D01*
X150145714Y-128790000D01*
X150193333Y-128861428D01*
X151288571Y-128718571D02*
X151907619Y-128718571D01*
X151574285Y-129290000D01*
X151717142Y-129290000D01*
X151812380Y-129361428D01*
X151860000Y-129432857D01*
X151907619Y-129575714D01*
X151907619Y-129932857D01*
X151860000Y-130075714D01*
X151812380Y-130147142D01*
X151717142Y-130218571D01*
X151431428Y-130218571D01*
X151336190Y-130147142D01*
X151288571Y-130075714D01*
X153050476Y-128647142D02*
X152193333Y-130575714D01*
X153812380Y-129218571D02*
X153812380Y-130218571D01*
X153574285Y-128647142D02*
X153336190Y-129718571D01*
X153955238Y-129718571D01*
D11*
X88138095Y-90892380D02*
X88138095Y-91701904D01*
X88185714Y-91797142D01*
X88233333Y-91844761D01*
X88328571Y-91892380D01*
X88519047Y-91892380D01*
X88614285Y-91844761D01*
X88661904Y-91797142D01*
X88709523Y-91701904D01*
X88709523Y-90892380D01*
X89138095Y-90987619D02*
X89185714Y-90940000D01*
X89280952Y-90892380D01*
X89519047Y-90892380D01*
X89614285Y-90940000D01*
X89661904Y-90987619D01*
X89709523Y-91082857D01*
X89709523Y-91178095D01*
X89661904Y-91320952D01*
X89090476Y-91892380D01*
X89709523Y-91892380D01*
X160528095Y-98512380D02*
X160528095Y-99321904D01*
X160575714Y-99417142D01*
X160623333Y-99464761D01*
X160718571Y-99512380D01*
X160909047Y-99512380D01*
X161004285Y-99464761D01*
X161051904Y-99417142D01*
X161099523Y-99321904D01*
X161099523Y-98512380D01*
X162051904Y-98512380D02*
X161575714Y-98512380D01*
X161528095Y-98988571D01*
X161575714Y-98940952D01*
X161670952Y-98893333D01*
X161909047Y-98893333D01*
X162004285Y-98940952D01*
X162051904Y-98988571D01*
X162099523Y-99083809D01*
X162099523Y-99321904D01*
X162051904Y-99417142D01*
X162004285Y-99464761D01*
X161909047Y-99512380D01*
X161670952Y-99512380D01*
X161575714Y-99464761D01*
X161528095Y-99417142D01*
X171283333Y-100052142D02*
X171235714Y-100099761D01*
X171092857Y-100147380D01*
X170997619Y-100147380D01*
X170854761Y-100099761D01*
X170759523Y-100004523D01*
X170711904Y-99909285D01*
X170664285Y-99718809D01*
X170664285Y-99575952D01*
X170711904Y-99385476D01*
X170759523Y-99290238D01*
X170854761Y-99195000D01*
X170997619Y-99147380D01*
X171092857Y-99147380D01*
X171235714Y-99195000D01*
X171283333Y-99242619D01*
X171759523Y-100147380D02*
X171950000Y-100147380D01*
X172045238Y-100099761D01*
X172092857Y-100052142D01*
X172188095Y-99909285D01*
X172235714Y-99718809D01*
X172235714Y-99337857D01*
X172188095Y-99242619D01*
X172140476Y-99195000D01*
X172045238Y-99147380D01*
X171854761Y-99147380D01*
X171759523Y-99195000D01*
X171711904Y-99242619D01*
X171664285Y-99337857D01*
X171664285Y-99575952D01*
X171711904Y-99671190D01*
X171759523Y-99718809D01*
X171854761Y-99766428D01*
X172045238Y-99766428D01*
X172140476Y-99718809D01*
X172188095Y-99671190D01*
X172235714Y-99575952D01*
X67841904Y-72207380D02*
X67841904Y-71207380D01*
X68080000Y-71207380D01*
X68222857Y-71255000D01*
X68318095Y-71350238D01*
X68365714Y-71445476D01*
X68413333Y-71635952D01*
X68413333Y-71778809D01*
X68365714Y-71969285D01*
X68318095Y-72064523D01*
X68222857Y-72159761D01*
X68080000Y-72207380D01*
X67841904Y-72207380D01*
X69270476Y-71540714D02*
X69270476Y-72207380D01*
X69032380Y-71159761D02*
X68794285Y-71874047D01*
X69413333Y-71874047D01*
X143414761Y-104687619D02*
X143319523Y-104640000D01*
X143224285Y-104544761D01*
X143081428Y-104401904D01*
X142986190Y-104354285D01*
X142890952Y-104354285D01*
X142938571Y-104592380D02*
X142843333Y-104544761D01*
X142748095Y-104449523D01*
X142700476Y-104259047D01*
X142700476Y-103925714D01*
X142748095Y-103735238D01*
X142843333Y-103640000D01*
X142938571Y-103592380D01*
X143129047Y-103592380D01*
X143224285Y-103640000D01*
X143319523Y-103735238D01*
X143367142Y-103925714D01*
X143367142Y-104259047D01*
X143319523Y-104449523D01*
X143224285Y-104544761D01*
X143129047Y-104592380D01*
X142938571Y-104592380D01*
X143748095Y-103687619D02*
X143795714Y-103640000D01*
X143890952Y-103592380D01*
X144129047Y-103592380D01*
X144224285Y-103640000D01*
X144271904Y-103687619D01*
X144319523Y-103782857D01*
X144319523Y-103878095D01*
X144271904Y-104020952D01*
X143700476Y-104592380D01*
X144319523Y-104592380D01*
X84923333Y-87447380D02*
X84590000Y-86971190D01*
X84351904Y-87447380D02*
X84351904Y-86447380D01*
X84732857Y-86447380D01*
X84828095Y-86495000D01*
X84875714Y-86542619D01*
X84923333Y-86637857D01*
X84923333Y-86780714D01*
X84875714Y-86875952D01*
X84828095Y-86923571D01*
X84732857Y-86971190D01*
X84351904Y-86971190D01*
X85256666Y-86447380D02*
X85875714Y-86447380D01*
X85542380Y-86828333D01*
X85685238Y-86828333D01*
X85780476Y-86875952D01*
X85828095Y-86923571D01*
X85875714Y-87018809D01*
X85875714Y-87256904D01*
X85828095Y-87352142D01*
X85780476Y-87399761D01*
X85685238Y-87447380D01*
X85399523Y-87447380D01*
X85304285Y-87399761D01*
X85256666Y-87352142D01*
X143176666Y-85177380D02*
X143176666Y-85891666D01*
X143129047Y-86034523D01*
X143033809Y-86129761D01*
X142890952Y-86177380D01*
X142795714Y-86177380D01*
X144129047Y-85177380D02*
X143652857Y-85177380D01*
X143605238Y-85653571D01*
X143652857Y-85605952D01*
X143748095Y-85558333D01*
X143986190Y-85558333D01*
X144081428Y-85605952D01*
X144129047Y-85653571D01*
X144176666Y-85748809D01*
X144176666Y-85986904D01*
X144129047Y-86082142D01*
X144081428Y-86129761D01*
X143986190Y-86177380D01*
X143748095Y-86177380D01*
X143652857Y-86129761D01*
X143605238Y-86082142D01*
X130048095Y-98512380D02*
X130048095Y-99321904D01*
X130095714Y-99417142D01*
X130143333Y-99464761D01*
X130238571Y-99512380D01*
X130429047Y-99512380D01*
X130524285Y-99464761D01*
X130571904Y-99417142D01*
X130619523Y-99321904D01*
X130619523Y-98512380D01*
X131524285Y-98512380D02*
X131333809Y-98512380D01*
X131238571Y-98560000D01*
X131190952Y-98607619D01*
X131095714Y-98750476D01*
X131048095Y-98940952D01*
X131048095Y-99321904D01*
X131095714Y-99417142D01*
X131143333Y-99464761D01*
X131238571Y-99512380D01*
X131429047Y-99512380D01*
X131524285Y-99464761D01*
X131571904Y-99417142D01*
X131619523Y-99321904D01*
X131619523Y-99083809D01*
X131571904Y-98988571D01*
X131524285Y-98940952D01*
X131429047Y-98893333D01*
X131238571Y-98893333D01*
X131143333Y-98940952D01*
X131095714Y-98988571D01*
X131048095Y-99083809D01*
X130008333Y-109037380D02*
X129675000Y-108561190D01*
X129436904Y-109037380D02*
X129436904Y-108037380D01*
X129817857Y-108037380D01*
X129913095Y-108085000D01*
X129960714Y-108132619D01*
X130008333Y-108227857D01*
X130008333Y-108370714D01*
X129960714Y-108465952D01*
X129913095Y-108513571D01*
X129817857Y-108561190D01*
X129436904Y-108561190D01*
X130913095Y-108037380D02*
X130436904Y-108037380D01*
X130389285Y-108513571D01*
X130436904Y-108465952D01*
X130532142Y-108418333D01*
X130770238Y-108418333D01*
X130865476Y-108465952D01*
X130913095Y-108513571D01*
X130960714Y-108608809D01*
X130960714Y-108846904D01*
X130913095Y-108942142D01*
X130865476Y-108989761D01*
X130770238Y-109037380D01*
X130532142Y-109037380D01*
X130436904Y-108989761D01*
X130389285Y-108942142D01*
X116673333Y-96877142D02*
X116625714Y-96924761D01*
X116482857Y-96972380D01*
X116387619Y-96972380D01*
X116244761Y-96924761D01*
X116149523Y-96829523D01*
X116101904Y-96734285D01*
X116054285Y-96543809D01*
X116054285Y-96400952D01*
X116101904Y-96210476D01*
X116149523Y-96115238D01*
X116244761Y-96020000D01*
X116387619Y-95972380D01*
X116482857Y-95972380D01*
X116625714Y-96020000D01*
X116673333Y-96067619D01*
X117530476Y-96305714D02*
X117530476Y-96972380D01*
X117292380Y-95924761D02*
X117054285Y-96639047D01*
X117673333Y-96639047D01*
X128174761Y-104687619D02*
X128079523Y-104640000D01*
X127984285Y-104544761D01*
X127841428Y-104401904D01*
X127746190Y-104354285D01*
X127650952Y-104354285D01*
X127698571Y-104592380D02*
X127603333Y-104544761D01*
X127508095Y-104449523D01*
X127460476Y-104259047D01*
X127460476Y-103925714D01*
X127508095Y-103735238D01*
X127603333Y-103640000D01*
X127698571Y-103592380D01*
X127889047Y-103592380D01*
X127984285Y-103640000D01*
X128079523Y-103735238D01*
X128127142Y-103925714D01*
X128127142Y-104259047D01*
X128079523Y-104449523D01*
X127984285Y-104544761D01*
X127889047Y-104592380D01*
X127698571Y-104592380D01*
X129079523Y-104592380D02*
X128508095Y-104592380D01*
X128793809Y-104592380D02*
X128793809Y-103592380D01*
X128698571Y-103735238D01*
X128603333Y-103830476D01*
X128508095Y-103878095D01*
X74168095Y-85177380D02*
X74168095Y-85986904D01*
X74215714Y-86082142D01*
X74263333Y-86129761D01*
X74358571Y-86177380D01*
X74549047Y-86177380D01*
X74644285Y-86129761D01*
X74691904Y-86082142D01*
X74739523Y-85986904D01*
X74739523Y-85177380D01*
X75739523Y-86177380D02*
X75168095Y-86177380D01*
X75453809Y-86177380D02*
X75453809Y-85177380D01*
X75358571Y-85320238D01*
X75263333Y-85415476D01*
X75168095Y-85463095D01*
X126238095Y-95972380D02*
X126238095Y-96781904D01*
X126285714Y-96877142D01*
X126333333Y-96924761D01*
X126428571Y-96972380D01*
X126619047Y-96972380D01*
X126714285Y-96924761D01*
X126761904Y-96877142D01*
X126809523Y-96781904D01*
X126809523Y-95972380D01*
X127190476Y-95972380D02*
X127809523Y-95972380D01*
X127476190Y-96353333D01*
X127619047Y-96353333D01*
X127714285Y-96400952D01*
X127761904Y-96448571D01*
X127809523Y-96543809D01*
X127809523Y-96781904D01*
X127761904Y-96877142D01*
X127714285Y-96924761D01*
X127619047Y-96972380D01*
X127333333Y-96972380D01*
X127238095Y-96924761D01*
X127190476Y-96877142D01*
X150963333Y-96242142D02*
X150915714Y-96289761D01*
X150772857Y-96337380D01*
X150677619Y-96337380D01*
X150534761Y-96289761D01*
X150439523Y-96194523D01*
X150391904Y-96099285D01*
X150344285Y-95908809D01*
X150344285Y-95765952D01*
X150391904Y-95575476D01*
X150439523Y-95480238D01*
X150534761Y-95385000D01*
X150677619Y-95337380D01*
X150772857Y-95337380D01*
X150915714Y-95385000D01*
X150963333Y-95432619D01*
X151820476Y-95337380D02*
X151630000Y-95337380D01*
X151534761Y-95385000D01*
X151487142Y-95432619D01*
X151391904Y-95575476D01*
X151344285Y-95765952D01*
X151344285Y-96146904D01*
X151391904Y-96242142D01*
X151439523Y-96289761D01*
X151534761Y-96337380D01*
X151725238Y-96337380D01*
X151820476Y-96289761D01*
X151868095Y-96242142D01*
X151915714Y-96146904D01*
X151915714Y-95908809D01*
X151868095Y-95813571D01*
X151820476Y-95765952D01*
X151725238Y-95718333D01*
X151534761Y-95718333D01*
X151439523Y-95765952D01*
X151391904Y-95813571D01*
X151344285Y-95908809D01*
X145883333Y-103322380D02*
X145550000Y-102846190D01*
X145311904Y-103322380D02*
X145311904Y-102322380D01*
X145692857Y-102322380D01*
X145788095Y-102370000D01*
X145835714Y-102417619D01*
X145883333Y-102512857D01*
X145883333Y-102655714D01*
X145835714Y-102750952D01*
X145788095Y-102798571D01*
X145692857Y-102846190D01*
X145311904Y-102846190D01*
X146740476Y-102322380D02*
X146550000Y-102322380D01*
X146454761Y-102370000D01*
X146407142Y-102417619D01*
X146311904Y-102560476D01*
X146264285Y-102750952D01*
X146264285Y-103131904D01*
X146311904Y-103227142D01*
X146359523Y-103274761D01*
X146454761Y-103322380D01*
X146645238Y-103322380D01*
X146740476Y-103274761D01*
X146788095Y-103227142D01*
X146835714Y-103131904D01*
X146835714Y-102893809D01*
X146788095Y-102798571D01*
X146740476Y-102750952D01*
X146645238Y-102703333D01*
X146454761Y-102703333D01*
X146359523Y-102750952D01*
X146311904Y-102798571D01*
X146264285Y-102893809D01*
X143414761Y-91987619D02*
X143319523Y-91940000D01*
X143224285Y-91844761D01*
X143081428Y-91701904D01*
X142986190Y-91654285D01*
X142890952Y-91654285D01*
X142938571Y-91892380D02*
X142843333Y-91844761D01*
X142748095Y-91749523D01*
X142700476Y-91559047D01*
X142700476Y-91225714D01*
X142748095Y-91035238D01*
X142843333Y-90940000D01*
X142938571Y-90892380D01*
X143129047Y-90892380D01*
X143224285Y-90940000D01*
X143319523Y-91035238D01*
X143367142Y-91225714D01*
X143367142Y-91559047D01*
X143319523Y-91749523D01*
X143224285Y-91844761D01*
X143129047Y-91892380D01*
X142938571Y-91892380D01*
X143700476Y-90892380D02*
X144367142Y-90892380D01*
X143938571Y-91892380D01*
X82383333Y-87447380D02*
X82050000Y-86971190D01*
X81811904Y-87447380D02*
X81811904Y-86447380D01*
X82192857Y-86447380D01*
X82288095Y-86495000D01*
X82335714Y-86542619D01*
X82383333Y-86637857D01*
X82383333Y-86780714D01*
X82335714Y-86875952D01*
X82288095Y-86923571D01*
X82192857Y-86971190D01*
X81811904Y-86971190D01*
X82764285Y-86542619D02*
X82811904Y-86495000D01*
X82907142Y-86447380D01*
X83145238Y-86447380D01*
X83240476Y-86495000D01*
X83288095Y-86542619D01*
X83335714Y-86637857D01*
X83335714Y-86733095D01*
X83288095Y-86875952D01*
X82716666Y-87447380D01*
X83335714Y-87447380D01*
X173894761Y-104687619D02*
X173799523Y-104640000D01*
X173704285Y-104544761D01*
X173561428Y-104401904D01*
X173466190Y-104354285D01*
X173370952Y-104354285D01*
X173418571Y-104592380D02*
X173323333Y-104544761D01*
X173228095Y-104449523D01*
X173180476Y-104259047D01*
X173180476Y-103925714D01*
X173228095Y-103735238D01*
X173323333Y-103640000D01*
X173418571Y-103592380D01*
X173609047Y-103592380D01*
X173704285Y-103640000D01*
X173799523Y-103735238D01*
X173847142Y-103925714D01*
X173847142Y-104259047D01*
X173799523Y-104449523D01*
X173704285Y-104544761D01*
X173609047Y-104592380D01*
X173418571Y-104592380D01*
X174704285Y-103925714D02*
X174704285Y-104592380D01*
X174466190Y-103544761D02*
X174228095Y-104259047D01*
X174847142Y-104259047D01*
X143502142Y-93797380D02*
X143168809Y-93321190D01*
X142930714Y-93797380D02*
X142930714Y-92797380D01*
X143311666Y-92797380D01*
X143406904Y-92845000D01*
X143454523Y-92892619D01*
X143502142Y-92987857D01*
X143502142Y-93130714D01*
X143454523Y-93225952D01*
X143406904Y-93273571D01*
X143311666Y-93321190D01*
X142930714Y-93321190D01*
X144454523Y-93797380D02*
X143883095Y-93797380D01*
X144168809Y-93797380D02*
X144168809Y-92797380D01*
X144073571Y-92940238D01*
X143978333Y-93035476D01*
X143883095Y-93083095D01*
X145073571Y-92797380D02*
X145168809Y-92797380D01*
X145264047Y-92845000D01*
X145311666Y-92892619D01*
X145359285Y-92987857D01*
X145406904Y-93178333D01*
X145406904Y-93416428D01*
X145359285Y-93606904D01*
X145311666Y-93702142D01*
X145264047Y-93749761D01*
X145168809Y-93797380D01*
X145073571Y-93797380D01*
X144978333Y-93749761D01*
X144930714Y-93702142D01*
X144883095Y-93606904D01*
X144835476Y-93416428D01*
X144835476Y-93178333D01*
X144883095Y-92987857D01*
X144930714Y-92892619D01*
X144978333Y-92845000D01*
X145073571Y-92797380D01*
X148423333Y-97512142D02*
X148375714Y-97559761D01*
X148232857Y-97607380D01*
X148137619Y-97607380D01*
X147994761Y-97559761D01*
X147899523Y-97464523D01*
X147851904Y-97369285D01*
X147804285Y-97178809D01*
X147804285Y-97035952D01*
X147851904Y-96845476D01*
X147899523Y-96750238D01*
X147994761Y-96655000D01*
X148137619Y-96607380D01*
X148232857Y-96607380D01*
X148375714Y-96655000D01*
X148423333Y-96702619D01*
X148756666Y-96607380D02*
X149423333Y-96607380D01*
X148994761Y-97607380D01*
X138422142Y-101322142D02*
X138374523Y-101369761D01*
X138231666Y-101417380D01*
X138136428Y-101417380D01*
X137993571Y-101369761D01*
X137898333Y-101274523D01*
X137850714Y-101179285D01*
X137803095Y-100988809D01*
X137803095Y-100845952D01*
X137850714Y-100655476D01*
X137898333Y-100560238D01*
X137993571Y-100465000D01*
X138136428Y-100417380D01*
X138231666Y-100417380D01*
X138374523Y-100465000D01*
X138422142Y-100512619D01*
X139374523Y-101417380D02*
X138803095Y-101417380D01*
X139088809Y-101417380D02*
X139088809Y-100417380D01*
X138993571Y-100560238D01*
X138898333Y-100655476D01*
X138803095Y-100703095D01*
X139993571Y-100417380D02*
X140088809Y-100417380D01*
X140184047Y-100465000D01*
X140231666Y-100512619D01*
X140279285Y-100607857D01*
X140326904Y-100798333D01*
X140326904Y-101036428D01*
X140279285Y-101226904D01*
X140231666Y-101322142D01*
X140184047Y-101369761D01*
X140088809Y-101417380D01*
X139993571Y-101417380D01*
X139898333Y-101369761D01*
X139850714Y-101322142D01*
X139803095Y-101226904D01*
X139755476Y-101036428D01*
X139755476Y-100798333D01*
X139803095Y-100607857D01*
X139850714Y-100512619D01*
X139898333Y-100465000D01*
X139993571Y-100417380D01*
X145716666Y-109332380D02*
X145716666Y-110046666D01*
X145669047Y-110189523D01*
X145573809Y-110284761D01*
X145430952Y-110332380D01*
X145335714Y-110332380D01*
X146097619Y-109332380D02*
X146716666Y-109332380D01*
X146383333Y-109713333D01*
X146526190Y-109713333D01*
X146621428Y-109760952D01*
X146669047Y-109808571D01*
X146716666Y-109903809D01*
X146716666Y-110141904D01*
X146669047Y-110237142D01*
X146621428Y-110284761D01*
X146526190Y-110332380D01*
X146240476Y-110332380D01*
X146145238Y-110284761D01*
X146097619Y-110237142D01*
X158654761Y-104687619D02*
X158559523Y-104640000D01*
X158464285Y-104544761D01*
X158321428Y-104401904D01*
X158226190Y-104354285D01*
X158130952Y-104354285D01*
X158178571Y-104592380D02*
X158083333Y-104544761D01*
X157988095Y-104449523D01*
X157940476Y-104259047D01*
X157940476Y-103925714D01*
X157988095Y-103735238D01*
X158083333Y-103640000D01*
X158178571Y-103592380D01*
X158369047Y-103592380D01*
X158464285Y-103640000D01*
X158559523Y-103735238D01*
X158607142Y-103925714D01*
X158607142Y-104259047D01*
X158559523Y-104449523D01*
X158464285Y-104544761D01*
X158369047Y-104592380D01*
X158178571Y-104592380D01*
X158940476Y-103592380D02*
X159559523Y-103592380D01*
X159226190Y-103973333D01*
X159369047Y-103973333D01*
X159464285Y-104020952D01*
X159511904Y-104068571D01*
X159559523Y-104163809D01*
X159559523Y-104401904D01*
X159511904Y-104497142D01*
X159464285Y-104544761D01*
X159369047Y-104592380D01*
X159083333Y-104592380D01*
X158988095Y-104544761D01*
X158940476Y-104497142D01*
X67841904Y-76017380D02*
X67841904Y-75017380D01*
X68080000Y-75017380D01*
X68222857Y-75065000D01*
X68318095Y-75160238D01*
X68365714Y-75255476D01*
X68413333Y-75445952D01*
X68413333Y-75588809D01*
X68365714Y-75779285D01*
X68318095Y-75874523D01*
X68222857Y-75969761D01*
X68080000Y-76017380D01*
X67841904Y-76017380D01*
X68746666Y-75017380D02*
X69365714Y-75017380D01*
X69032380Y-75398333D01*
X69175238Y-75398333D01*
X69270476Y-75445952D01*
X69318095Y-75493571D01*
X69365714Y-75588809D01*
X69365714Y-75826904D01*
X69318095Y-75922142D01*
X69270476Y-75969761D01*
X69175238Y-76017380D01*
X68889523Y-76017380D01*
X68794285Y-75969761D01*
X68746666Y-75922142D01*
X160210833Y-109672380D02*
X159877500Y-109196190D01*
X159639404Y-109672380D02*
X159639404Y-108672380D01*
X160020357Y-108672380D01*
X160115595Y-108720000D01*
X160163214Y-108767619D01*
X160210833Y-108862857D01*
X160210833Y-109005714D01*
X160163214Y-109100952D01*
X160115595Y-109148571D01*
X160020357Y-109196190D01*
X159639404Y-109196190D01*
X160544166Y-108672380D02*
X161210833Y-108672380D01*
X160782261Y-109672380D01*
X114601666Y-109332380D02*
X114601666Y-110046666D01*
X114554047Y-110189523D01*
X114458809Y-110284761D01*
X114315952Y-110332380D01*
X114220714Y-110332380D01*
X115030238Y-109427619D02*
X115077857Y-109380000D01*
X115173095Y-109332380D01*
X115411190Y-109332380D01*
X115506428Y-109380000D01*
X115554047Y-109427619D01*
X115601666Y-109522857D01*
X115601666Y-109618095D01*
X115554047Y-109760952D01*
X114982619Y-110332380D01*
X115601666Y-110332380D01*
X173823333Y-93797380D02*
X173490000Y-93321190D01*
X173251904Y-93797380D02*
X173251904Y-92797380D01*
X173632857Y-92797380D01*
X173728095Y-92845000D01*
X173775714Y-92892619D01*
X173823333Y-92987857D01*
X173823333Y-93130714D01*
X173775714Y-93225952D01*
X173728095Y-93273571D01*
X173632857Y-93321190D01*
X173251904Y-93321190D01*
X174394761Y-93225952D02*
X174299523Y-93178333D01*
X174251904Y-93130714D01*
X174204285Y-93035476D01*
X174204285Y-92987857D01*
X174251904Y-92892619D01*
X174299523Y-92845000D01*
X174394761Y-92797380D01*
X174585238Y-92797380D01*
X174680476Y-92845000D01*
X174728095Y-92892619D01*
X174775714Y-92987857D01*
X174775714Y-93035476D01*
X174728095Y-93130714D01*
X174680476Y-93178333D01*
X174585238Y-93225952D01*
X174394761Y-93225952D01*
X174299523Y-93273571D01*
X174251904Y-93321190D01*
X174204285Y-93416428D01*
X174204285Y-93606904D01*
X174251904Y-93702142D01*
X174299523Y-93749761D01*
X174394761Y-93797380D01*
X174585238Y-93797380D01*
X174680476Y-93749761D01*
X174728095Y-93702142D01*
X174775714Y-93606904D01*
X174775714Y-93416428D01*
X174728095Y-93321190D01*
X174680476Y-93273571D01*
X174585238Y-93225952D01*
X77303333Y-101322142D02*
X77255714Y-101369761D01*
X77112857Y-101417380D01*
X77017619Y-101417380D01*
X76874761Y-101369761D01*
X76779523Y-101274523D01*
X76731904Y-101179285D01*
X76684285Y-100988809D01*
X76684285Y-100845952D01*
X76731904Y-100655476D01*
X76779523Y-100560238D01*
X76874761Y-100465000D01*
X77017619Y-100417380D01*
X77112857Y-100417380D01*
X77255714Y-100465000D01*
X77303333Y-100512619D01*
X78255714Y-101417380D02*
X77684285Y-101417380D01*
X77970000Y-101417380D02*
X77970000Y-100417380D01*
X77874761Y-100560238D01*
X77779523Y-100655476D01*
X77684285Y-100703095D01*
X76200833Y-107827142D02*
X76153214Y-107874761D01*
X76010357Y-107922380D01*
X75915119Y-107922380D01*
X75772261Y-107874761D01*
X75677023Y-107779523D01*
X75629404Y-107684285D01*
X75581785Y-107493809D01*
X75581785Y-107350952D01*
X75629404Y-107160476D01*
X75677023Y-107065238D01*
X75772261Y-106970000D01*
X75915119Y-106922380D01*
X76010357Y-106922380D01*
X76153214Y-106970000D01*
X76200833Y-107017619D01*
X76581785Y-107017619D02*
X76629404Y-106970000D01*
X76724642Y-106922380D01*
X76962738Y-106922380D01*
X77057976Y-106970000D01*
X77105595Y-107017619D01*
X77153214Y-107112857D01*
X77153214Y-107208095D01*
X77105595Y-107350952D01*
X76534166Y-107922380D01*
X77153214Y-107922380D01*
X119213333Y-96877142D02*
X119165714Y-96924761D01*
X119022857Y-96972380D01*
X118927619Y-96972380D01*
X118784761Y-96924761D01*
X118689523Y-96829523D01*
X118641904Y-96734285D01*
X118594285Y-96543809D01*
X118594285Y-96400952D01*
X118641904Y-96210476D01*
X118689523Y-96115238D01*
X118784761Y-96020000D01*
X118927619Y-95972380D01*
X119022857Y-95972380D01*
X119165714Y-96020000D01*
X119213333Y-96067619D01*
X120118095Y-95972380D02*
X119641904Y-95972380D01*
X119594285Y-96448571D01*
X119641904Y-96400952D01*
X119737142Y-96353333D01*
X119975238Y-96353333D01*
X120070476Y-96400952D01*
X120118095Y-96448571D01*
X120165714Y-96543809D01*
X120165714Y-96781904D01*
X120118095Y-96877142D01*
X120070476Y-96924761D01*
X119975238Y-96972380D01*
X119737142Y-96972380D01*
X119641904Y-96924761D01*
X119594285Y-96877142D01*
X174291666Y-85177380D02*
X174291666Y-85891666D01*
X174244047Y-86034523D01*
X174148809Y-86129761D01*
X174005952Y-86177380D01*
X173910714Y-86177380D01*
X175196428Y-85510714D02*
X175196428Y-86177380D01*
X174958333Y-85129761D02*
X174720238Y-85844047D01*
X175339285Y-85844047D01*
X157988095Y-95972380D02*
X157988095Y-96781904D01*
X158035714Y-96877142D01*
X158083333Y-96924761D01*
X158178571Y-96972380D01*
X158369047Y-96972380D01*
X158464285Y-96924761D01*
X158511904Y-96877142D01*
X158559523Y-96781904D01*
X158559523Y-95972380D01*
X159464285Y-96305714D02*
X159464285Y-96972380D01*
X159226190Y-95924761D02*
X158988095Y-96639047D01*
X159607142Y-96639047D01*
X69111904Y-107767380D02*
X69111904Y-106767380D01*
X69350000Y-106767380D01*
X69492857Y-106815000D01*
X69588095Y-106910238D01*
X69635714Y-107005476D01*
X69683333Y-107195952D01*
X69683333Y-107338809D01*
X69635714Y-107529285D01*
X69588095Y-107624523D01*
X69492857Y-107719761D01*
X69350000Y-107767380D01*
X69111904Y-107767380D01*
X70635714Y-107767380D02*
X70064285Y-107767380D01*
X70350000Y-107767380D02*
X70350000Y-106767380D01*
X70254761Y-106910238D01*
X70159523Y-107005476D01*
X70064285Y-107053095D01*
X67841904Y-68397380D02*
X67841904Y-67397380D01*
X68080000Y-67397380D01*
X68222857Y-67445000D01*
X68318095Y-67540238D01*
X68365714Y-67635476D01*
X68413333Y-67825952D01*
X68413333Y-67968809D01*
X68365714Y-68159285D01*
X68318095Y-68254523D01*
X68222857Y-68349761D01*
X68080000Y-68397380D01*
X67841904Y-68397380D01*
X68794285Y-67492619D02*
X68841904Y-67445000D01*
X68937142Y-67397380D01*
X69175238Y-67397380D01*
X69270476Y-67445000D01*
X69318095Y-67492619D01*
X69365714Y-67587857D01*
X69365714Y-67683095D01*
X69318095Y-67825952D01*
X68746666Y-68397380D01*
X69365714Y-68397380D01*
X140962142Y-100052142D02*
X140914523Y-100099761D01*
X140771666Y-100147380D01*
X140676428Y-100147380D01*
X140533571Y-100099761D01*
X140438333Y-100004523D01*
X140390714Y-99909285D01*
X140343095Y-99718809D01*
X140343095Y-99575952D01*
X140390714Y-99385476D01*
X140438333Y-99290238D01*
X140533571Y-99195000D01*
X140676428Y-99147380D01*
X140771666Y-99147380D01*
X140914523Y-99195000D01*
X140962142Y-99242619D01*
X141914523Y-100147380D02*
X141343095Y-100147380D01*
X141628809Y-100147380D02*
X141628809Y-99147380D01*
X141533571Y-99290238D01*
X141438333Y-99385476D01*
X141343095Y-99433095D01*
X142866904Y-100147380D02*
X142295476Y-100147380D01*
X142581190Y-100147380D02*
X142581190Y-99147380D01*
X142485952Y-99290238D01*
X142390714Y-99385476D01*
X142295476Y-99433095D01*
X173894761Y-91987619D02*
X173799523Y-91940000D01*
X173704285Y-91844761D01*
X173561428Y-91701904D01*
X173466190Y-91654285D01*
X173370952Y-91654285D01*
X173418571Y-91892380D02*
X173323333Y-91844761D01*
X173228095Y-91749523D01*
X173180476Y-91559047D01*
X173180476Y-91225714D01*
X173228095Y-91035238D01*
X173323333Y-90940000D01*
X173418571Y-90892380D01*
X173609047Y-90892380D01*
X173704285Y-90940000D01*
X173799523Y-91035238D01*
X173847142Y-91225714D01*
X173847142Y-91559047D01*
X173799523Y-91749523D01*
X173704285Y-91844761D01*
X173609047Y-91892380D01*
X173418571Y-91892380D01*
X174751904Y-90892380D02*
X174275714Y-90892380D01*
X174228095Y-91368571D01*
X174275714Y-91320952D01*
X174370952Y-91273333D01*
X174609047Y-91273333D01*
X174704285Y-91320952D01*
X174751904Y-91368571D01*
X174799523Y-91463809D01*
X174799523Y-91701904D01*
X174751904Y-91797142D01*
X174704285Y-91844761D01*
X174609047Y-91892380D01*
X174370952Y-91892380D01*
X174275714Y-91844761D01*
X174228095Y-91797142D01*
X168743333Y-101322142D02*
X168695714Y-101369761D01*
X168552857Y-101417380D01*
X168457619Y-101417380D01*
X168314761Y-101369761D01*
X168219523Y-101274523D01*
X168171904Y-101179285D01*
X168124285Y-100988809D01*
X168124285Y-100845952D01*
X168171904Y-100655476D01*
X168219523Y-100560238D01*
X168314761Y-100465000D01*
X168457619Y-100417380D01*
X168552857Y-100417380D01*
X168695714Y-100465000D01*
X168743333Y-100512619D01*
X169314761Y-100845952D02*
X169219523Y-100798333D01*
X169171904Y-100750714D01*
X169124285Y-100655476D01*
X169124285Y-100607857D01*
X169171904Y-100512619D01*
X169219523Y-100465000D01*
X169314761Y-100417380D01*
X169505238Y-100417380D01*
X169600476Y-100465000D01*
X169648095Y-100512619D01*
X169695714Y-100607857D01*
X169695714Y-100655476D01*
X169648095Y-100750714D01*
X169600476Y-100798333D01*
X169505238Y-100845952D01*
X169314761Y-100845952D01*
X169219523Y-100893571D01*
X169171904Y-100941190D01*
X169124285Y-101036428D01*
X169124285Y-101226904D01*
X169171904Y-101322142D01*
X169219523Y-101369761D01*
X169314761Y-101417380D01*
X169505238Y-101417380D01*
X169600476Y-101369761D01*
X169648095Y-101322142D01*
X169695714Y-101226904D01*
X169695714Y-101036428D01*
X169648095Y-100941190D01*
X169600476Y-100893571D01*
X169505238Y-100845952D01*
X78253333Y-95197142D02*
X78205714Y-95244761D01*
X78062857Y-95292380D01*
X77967619Y-95292380D01*
X77824761Y-95244761D01*
X77729523Y-95149523D01*
X77681904Y-95054285D01*
X77634285Y-94863809D01*
X77634285Y-94720952D01*
X77681904Y-94530476D01*
X77729523Y-94435238D01*
X77824761Y-94340000D01*
X77967619Y-94292380D01*
X78062857Y-94292380D01*
X78205714Y-94340000D01*
X78253333Y-94387619D01*
X78586666Y-94292380D02*
X79205714Y-94292380D01*
X78872380Y-94673333D01*
X79015238Y-94673333D01*
X79110476Y-94720952D01*
X79158095Y-94768571D01*
X79205714Y-94863809D01*
X79205714Y-95101904D01*
X79158095Y-95197142D01*
X79110476Y-95244761D01*
X79015238Y-95292380D01*
X78729523Y-95292380D01*
X78634285Y-95244761D01*
X78586666Y-95197142D01*
X115403333Y-103322380D02*
X115070000Y-102846190D01*
X114831904Y-103322380D02*
X114831904Y-102322380D01*
X115212857Y-102322380D01*
X115308095Y-102370000D01*
X115355714Y-102417619D01*
X115403333Y-102512857D01*
X115403333Y-102655714D01*
X115355714Y-102750952D01*
X115308095Y-102798571D01*
X115212857Y-102846190D01*
X114831904Y-102846190D01*
X116260476Y-102655714D02*
X116260476Y-103322380D01*
X116022380Y-102274761D02*
X115784285Y-102989047D01*
X116403333Y-102989047D01*
X158654761Y-91987619D02*
X158559523Y-91940000D01*
X158464285Y-91844761D01*
X158321428Y-91701904D01*
X158226190Y-91654285D01*
X158130952Y-91654285D01*
X158178571Y-91892380D02*
X158083333Y-91844761D01*
X157988095Y-91749523D01*
X157940476Y-91559047D01*
X157940476Y-91225714D01*
X157988095Y-91035238D01*
X158083333Y-90940000D01*
X158178571Y-90892380D01*
X158369047Y-90892380D01*
X158464285Y-90940000D01*
X158559523Y-91035238D01*
X158607142Y-91225714D01*
X158607142Y-91559047D01*
X158559523Y-91749523D01*
X158464285Y-91844761D01*
X158369047Y-91892380D01*
X158178571Y-91892380D01*
X159464285Y-90892380D02*
X159273809Y-90892380D01*
X159178571Y-90940000D01*
X159130952Y-90987619D01*
X159035714Y-91130476D01*
X158988095Y-91320952D01*
X158988095Y-91701904D01*
X159035714Y-91797142D01*
X159083333Y-91844761D01*
X159178571Y-91892380D01*
X159369047Y-91892380D01*
X159464285Y-91844761D01*
X159511904Y-91797142D01*
X159559523Y-91701904D01*
X159559523Y-91463809D01*
X159511904Y-91368571D01*
X159464285Y-91320952D01*
X159369047Y-91273333D01*
X159178571Y-91273333D01*
X159083333Y-91320952D01*
X159035714Y-91368571D01*
X158988095Y-91463809D01*
X128174761Y-91987619D02*
X128079523Y-91940000D01*
X127984285Y-91844761D01*
X127841428Y-91701904D01*
X127746190Y-91654285D01*
X127650952Y-91654285D01*
X127698571Y-91892380D02*
X127603333Y-91844761D01*
X127508095Y-91749523D01*
X127460476Y-91559047D01*
X127460476Y-91225714D01*
X127508095Y-91035238D01*
X127603333Y-90940000D01*
X127698571Y-90892380D01*
X127889047Y-90892380D01*
X127984285Y-90940000D01*
X128079523Y-91035238D01*
X128127142Y-91225714D01*
X128127142Y-91559047D01*
X128079523Y-91749523D01*
X127984285Y-91844761D01*
X127889047Y-91892380D01*
X127698571Y-91892380D01*
X128698571Y-91320952D02*
X128603333Y-91273333D01*
X128555714Y-91225714D01*
X128508095Y-91130476D01*
X128508095Y-91082857D01*
X128555714Y-90987619D01*
X128603333Y-90940000D01*
X128698571Y-90892380D01*
X128889047Y-90892380D01*
X128984285Y-90940000D01*
X129031904Y-90987619D01*
X129079523Y-91082857D01*
X129079523Y-91130476D01*
X129031904Y-91225714D01*
X128984285Y-91273333D01*
X128889047Y-91320952D01*
X128698571Y-91320952D01*
X128603333Y-91368571D01*
X128555714Y-91416190D01*
X128508095Y-91511428D01*
X128508095Y-91701904D01*
X128555714Y-91797142D01*
X128603333Y-91844761D01*
X128698571Y-91892380D01*
X128889047Y-91892380D01*
X128984285Y-91844761D01*
X129031904Y-91797142D01*
X129079523Y-91701904D01*
X129079523Y-91511428D01*
X129031904Y-91416190D01*
X128984285Y-91368571D01*
X128889047Y-91320952D01*
X79843333Y-87447380D02*
X79510000Y-86971190D01*
X79271904Y-87447380D02*
X79271904Y-86447380D01*
X79652857Y-86447380D01*
X79748095Y-86495000D01*
X79795714Y-86542619D01*
X79843333Y-86637857D01*
X79843333Y-86780714D01*
X79795714Y-86875952D01*
X79748095Y-86923571D01*
X79652857Y-86971190D01*
X79271904Y-86971190D01*
X80795714Y-87447380D02*
X80224285Y-87447380D01*
X80510000Y-87447380D02*
X80510000Y-86447380D01*
X80414761Y-86590238D01*
X80319523Y-86685476D01*
X80224285Y-86733095D01*
X159495833Y-87702380D02*
X159162500Y-87226190D01*
X158924404Y-87702380D02*
X158924404Y-86702380D01*
X159305357Y-86702380D01*
X159400595Y-86750000D01*
X159448214Y-86797619D01*
X159495833Y-86892857D01*
X159495833Y-87035714D01*
X159448214Y-87130952D01*
X159400595Y-87178571D01*
X159305357Y-87226190D01*
X158924404Y-87226190D01*
X159972023Y-87702380D02*
X160162500Y-87702380D01*
X160257738Y-87654761D01*
X160305357Y-87607142D01*
X160400595Y-87464285D01*
X160448214Y-87273809D01*
X160448214Y-86892857D01*
X160400595Y-86797619D01*
X160352976Y-86750000D01*
X160257738Y-86702380D01*
X160067261Y-86702380D01*
X159972023Y-86750000D01*
X159924404Y-86797619D01*
X159876785Y-86892857D01*
X159876785Y-87130952D01*
X159924404Y-87226190D01*
X159972023Y-87273809D01*
X160067261Y-87321428D01*
X160257738Y-87321428D01*
X160352976Y-87273809D01*
X160400595Y-87226190D01*
X160448214Y-87130952D01*
X128539642Y-87702380D02*
X128206309Y-87226190D01*
X127968214Y-87702380D02*
X127968214Y-86702380D01*
X128349166Y-86702380D01*
X128444404Y-86750000D01*
X128492023Y-86797619D01*
X128539642Y-86892857D01*
X128539642Y-87035714D01*
X128492023Y-87130952D01*
X128444404Y-87178571D01*
X128349166Y-87226190D01*
X127968214Y-87226190D01*
X129492023Y-87702380D02*
X128920595Y-87702380D01*
X129206309Y-87702380D02*
X129206309Y-86702380D01*
X129111071Y-86845238D01*
X129015833Y-86940476D01*
X128920595Y-86988095D01*
X130444404Y-87702380D02*
X129872976Y-87702380D01*
X130158690Y-87702380D02*
X130158690Y-86702380D01*
X130063452Y-86845238D01*
X129968214Y-86940476D01*
X129872976Y-86988095D01*
X78406666Y-111212380D02*
X78406666Y-111926666D01*
X78359047Y-112069523D01*
X78263809Y-112164761D01*
X78120952Y-112212380D01*
X78025714Y-112212380D01*
X79406666Y-112212380D02*
X78835238Y-112212380D01*
X79120952Y-112212380D02*
X79120952Y-111212380D01*
X79025714Y-111355238D01*
X78930476Y-111450476D01*
X78835238Y-111498095D01*
G36*
X92667429Y-78807719D02*
G01*
X92761123Y-78861914D01*
X92826264Y-78915707D01*
X92873907Y-78972066D01*
X92906728Y-79040987D01*
X92927406Y-79132468D01*
X92938620Y-79256506D01*
X92943049Y-79423098D01*
X92943563Y-79542851D01*
X92943563Y-79983659D01*
X92819483Y-80039283D01*
X92695402Y-80094907D01*
X92680805Y-79612095D01*
X92674773Y-79431779D01*
X92668445Y-79300901D01*
X92660606Y-79210511D01*
X92650037Y-79151664D01*
X92635523Y-79115413D01*
X92615848Y-79092810D01*
X92609535Y-79087917D01*
X92513888Y-79049706D01*
X92417207Y-79064827D01*
X92359655Y-79104943D01*
X92336245Y-79133370D01*
X92320039Y-79170672D01*
X92309741Y-79227223D01*
X92304049Y-79313394D01*
X92301664Y-79439558D01*
X92301264Y-79571042D01*
X92301186Y-79735999D01*
X92298361Y-79852761D01*
X92288907Y-79931510D01*
X92268940Y-79982431D01*
X92234576Y-80015706D01*
X92181932Y-80041520D01*
X92111617Y-80068344D01*
X92034820Y-80097542D01*
X92043962Y-79579346D01*
X92047643Y-79392539D01*
X92051950Y-79254490D01*
X92058123Y-79155568D01*
X92067402Y-79086145D01*
X92081027Y-79036590D01*
X92100239Y-78997273D01*
X92123402Y-78962584D01*
X92235152Y-78851770D01*
X92371513Y-78787689D01*
X92519825Y-78772339D01*
X92667429Y-78807719D01*
G37*
D15*
X92667429Y-78807719D02*
X92761123Y-78861914D01*
X92826264Y-78915707D01*
X92873907Y-78972066D01*
X92906728Y-79040987D01*
X92927406Y-79132468D01*
X92938620Y-79256506D01*
X92943049Y-79423098D01*
X92943563Y-79542851D01*
X92943563Y-79983659D01*
X92819483Y-80039283D01*
X92695402Y-80094907D01*
X92680805Y-79612095D01*
X92674773Y-79431779D01*
X92668445Y-79300901D01*
X92660606Y-79210511D01*
X92650037Y-79151664D01*
X92635523Y-79115413D01*
X92615848Y-79092810D01*
X92609535Y-79087917D01*
X92513888Y-79049706D01*
X92417207Y-79064827D01*
X92359655Y-79104943D01*
X92336245Y-79133370D01*
X92320039Y-79170672D01*
X92309741Y-79227223D01*
X92304049Y-79313394D01*
X92301664Y-79439558D01*
X92301264Y-79571042D01*
X92301186Y-79735999D01*
X92298361Y-79852761D01*
X92288907Y-79931510D01*
X92268940Y-79982431D01*
X92234576Y-80015706D01*
X92181932Y-80041520D01*
X92111617Y-80068344D01*
X92034820Y-80097542D01*
X92043962Y-79579346D01*
X92047643Y-79392539D01*
X92051950Y-79254490D01*
X92058123Y-79155568D01*
X92067402Y-79086145D01*
X92081027Y-79036590D01*
X92100239Y-78997273D01*
X92123402Y-78962584D01*
X92235152Y-78851770D01*
X92371513Y-78787689D01*
X92519825Y-78772339D01*
X92667429Y-78807719D01*
G36*
X89806247Y-79255382D02*
G01*
X89811826Y-79160087D01*
X89819746Y-79092364D01*
X89830731Y-79044507D01*
X89845501Y-79008813D01*
X89864782Y-78977578D01*
X89873049Y-78965824D01*
X89982712Y-78854797D01*
X90121365Y-78791847D01*
X90281754Y-78774297D01*
X90421900Y-78791903D01*
X90533450Y-78847522D01*
X90631908Y-78949931D01*
X90659023Y-78987864D01*
X90688562Y-79037500D01*
X90707728Y-79091412D01*
X90718693Y-79163364D01*
X90723629Y-79267122D01*
X90724713Y-79404101D01*
X90719818Y-79591815D01*
X90702804Y-79732758D01*
X90670177Y-79837908D01*
X90618442Y-79918243D01*
X90544104Y-79984741D01*
X90538642Y-79988678D01*
X90465380Y-80028953D01*
X90377160Y-80048880D01*
X90264962Y-80053793D01*
X90082567Y-80053793D01*
X90082491Y-80230857D01*
X90080793Y-80329470D01*
X90070450Y-80387314D01*
X90043422Y-80422006D01*
X89991668Y-80451164D01*
X89979239Y-80457121D01*
X89921077Y-80485039D01*
X89876044Y-80502672D01*
X89842559Y-80504194D01*
X89819038Y-80483781D01*
X89803900Y-80435607D01*
X89795563Y-80353846D01*
X89792444Y-80232672D01*
X89792960Y-80066260D01*
X89795529Y-79848785D01*
X89796332Y-79783736D01*
X89799222Y-79559502D01*
X89801812Y-79412821D01*
X90082414Y-79412821D01*
X90083991Y-79537326D01*
X90091000Y-79618787D01*
X90106858Y-79672515D01*
X90134981Y-79713823D01*
X90154075Y-79733971D01*
X90232135Y-79792921D01*
X90301247Y-79797720D01*
X90372560Y-79749038D01*
X90374368Y-79747241D01*
X90403383Y-79709618D01*
X90421033Y-79658484D01*
X90429936Y-79579738D01*
X90432709Y-79459276D01*
X90432759Y-79432588D01*
X90426058Y-79266583D01*
X90404248Y-79151505D01*
X90364765Y-79081254D01*
X90305044Y-79049729D01*
X90270528Y-79046552D01*
X90188611Y-79061460D01*
X90132421Y-79110548D01*
X90098598Y-79200362D01*
X90083780Y-79337445D01*
X90082414Y-79412821D01*
X89801812Y-79412821D01*
X89802287Y-79385952D01*
X89806247Y-79255382D01*
G37*
X89806247Y-79255382D02*
X89811826Y-79160087D01*
X89819746Y-79092364D01*
X89830731Y-79044507D01*
X89845501Y-79008813D01*
X89864782Y-78977578D01*
X89873049Y-78965824D01*
X89982712Y-78854797D01*
X90121365Y-78791847D01*
X90281754Y-78774297D01*
X90421900Y-78791903D01*
X90533450Y-78847522D01*
X90631908Y-78949931D01*
X90659023Y-78987864D01*
X90688562Y-79037500D01*
X90707728Y-79091412D01*
X90718693Y-79163364D01*
X90723629Y-79267122D01*
X90724713Y-79404101D01*
X90719818Y-79591815D01*
X90702804Y-79732758D01*
X90670177Y-79837908D01*
X90618442Y-79918243D01*
X90544104Y-79984741D01*
X90538642Y-79988678D01*
X90465380Y-80028953D01*
X90377160Y-80048880D01*
X90264962Y-80053793D01*
X90082567Y-80053793D01*
X90082491Y-80230857D01*
X90080793Y-80329470D01*
X90070450Y-80387314D01*
X90043422Y-80422006D01*
X89991668Y-80451164D01*
X89979239Y-80457121D01*
X89921077Y-80485039D01*
X89876044Y-80502672D01*
X89842559Y-80504194D01*
X89819038Y-80483781D01*
X89803900Y-80435607D01*
X89795563Y-80353846D01*
X89792444Y-80232672D01*
X89792960Y-80066260D01*
X89795529Y-79848785D01*
X89796332Y-79783736D01*
X89799222Y-79559502D01*
X89801812Y-79412821D01*
X90082414Y-79412821D01*
X90083991Y-79537326D01*
X90091000Y-79618787D01*
X90106858Y-79672515D01*
X90134981Y-79713823D01*
X90154075Y-79733971D01*
X90232135Y-79792921D01*
X90301247Y-79797720D01*
X90372560Y-79749038D01*
X90374368Y-79747241D01*
X90403383Y-79709618D01*
X90421033Y-79658484D01*
X90429936Y-79579738D01*
X90432709Y-79459276D01*
X90432759Y-79432588D01*
X90426058Y-79266583D01*
X90404248Y-79151505D01*
X90364765Y-79081254D01*
X90305044Y-79049729D01*
X90270528Y-79046552D01*
X90188611Y-79061460D01*
X90132421Y-79110548D01*
X90098598Y-79200362D01*
X90083780Y-79337445D01*
X90082414Y-79412821D01*
X89801812Y-79412821D01*
X89802287Y-79385952D01*
X89806247Y-79255382D01*
G36*
X96828472Y-79134195D02*
G01*
X96873548Y-79030632D01*
X96943928Y-78949856D01*
X96998743Y-78908455D01*
X97098376Y-78863728D01*
X97213855Y-78842967D01*
X97321199Y-78848525D01*
X97381264Y-78870943D01*
X97404835Y-78877323D01*
X97420477Y-78853535D01*
X97431395Y-78789788D01*
X97439655Y-78692687D01*
X97448699Y-78584541D01*
X97461261Y-78519475D01*
X97484119Y-78482268D01*
X97524051Y-78457699D01*
X97549138Y-78446819D01*
X97644023Y-78407072D01*
X97643914Y-79084455D01*
X97643543Y-79302661D01*
X97642108Y-79470519D01*
X97639002Y-79596070D01*
X97633622Y-79687355D01*
X97625362Y-79752415D01*
X97613616Y-79799291D01*
X97597781Y-79836024D01*
X97585790Y-79856991D01*
X97486490Y-79970694D01*
X97360588Y-80041965D01*
X97221291Y-80067538D01*
X97081805Y-80044150D01*
X96998743Y-80002119D01*
X96911545Y-79929411D01*
X96852117Y-79840612D01*
X96816261Y-79724320D01*
X96799781Y-79569135D01*
X96797447Y-79455287D01*
X96797761Y-79447106D01*
X97001724Y-79447106D01*
X97002970Y-79577657D01*
X97008678Y-79664080D01*
X97021804Y-79720618D01*
X97045306Y-79761514D01*
X97073386Y-79792362D01*
X97167688Y-79851905D01*
X97268940Y-79856992D01*
X97364636Y-79807279D01*
X97372084Y-79800543D01*
X97403874Y-79765502D01*
X97423808Y-79723811D01*
X97434600Y-79661762D01*
X97438965Y-79565644D01*
X97439655Y-79459379D01*
X97438159Y-79325880D01*
X97431964Y-79236822D01*
X97418514Y-79178293D01*
X97395251Y-79136382D01*
X97376175Y-79114123D01*
X97287563Y-79057985D01*
X97185508Y-79051235D01*
X97088095Y-79094114D01*
X97069296Y-79110032D01*
X97037293Y-79145382D01*
X97017318Y-79187502D01*
X97006593Y-79250251D01*
X97002339Y-79347487D01*
X97001724Y-79447106D01*
X96797761Y-79447106D01*
X96804504Y-79271947D01*
X96828472Y-79134195D01*
G37*
X96828472Y-79134195D02*
X96873548Y-79030632D01*
X96943928Y-78949856D01*
X96998743Y-78908455D01*
X97098376Y-78863728D01*
X97213855Y-78842967D01*
X97321199Y-78848525D01*
X97381264Y-78870943D01*
X97404835Y-78877323D01*
X97420477Y-78853535D01*
X97431395Y-78789788D01*
X97439655Y-78692687D01*
X97448699Y-78584541D01*
X97461261Y-78519475D01*
X97484119Y-78482268D01*
X97524051Y-78457699D01*
X97549138Y-78446819D01*
X97644023Y-78407072D01*
X97643914Y-79084455D01*
X97643543Y-79302661D01*
X97642108Y-79470519D01*
X97639002Y-79596070D01*
X97633622Y-79687355D01*
X97625362Y-79752415D01*
X97613616Y-79799291D01*
X97597781Y-79836024D01*
X97585790Y-79856991D01*
X97486490Y-79970694D01*
X97360588Y-80041965D01*
X97221291Y-80067538D01*
X97081805Y-80044150D01*
X96998743Y-80002119D01*
X96911545Y-79929411D01*
X96852117Y-79840612D01*
X96816261Y-79724320D01*
X96799781Y-79569135D01*
X96797447Y-79455287D01*
X96797761Y-79447106D01*
X97001724Y-79447106D01*
X97002970Y-79577657D01*
X97008678Y-79664080D01*
X97021804Y-79720618D01*
X97045306Y-79761514D01*
X97073386Y-79792362D01*
X97167688Y-79851905D01*
X97268940Y-79856992D01*
X97364636Y-79807279D01*
X97372084Y-79800543D01*
X97403874Y-79765502D01*
X97423808Y-79723811D01*
X97434600Y-79661762D01*
X97438965Y-79565644D01*
X97439655Y-79459379D01*
X97438159Y-79325880D01*
X97431964Y-79236822D01*
X97418514Y-79178293D01*
X97395251Y-79136382D01*
X97376175Y-79114123D01*
X97287563Y-79057985D01*
X97185508Y-79051235D01*
X97088095Y-79094114D01*
X97069296Y-79110032D01*
X97037293Y-79145382D01*
X97017318Y-79187502D01*
X97006593Y-79250251D01*
X97002339Y-79347487D01*
X97001724Y-79447106D01*
X96797761Y-79447106D01*
X96804504Y-79271947D01*
X96828472Y-79134195D01*
G36*
X98830124Y-78869840D02*
G01*
X98834579Y-78946653D01*
X98838071Y-79063391D01*
X98840315Y-79210821D01*
X98841035Y-79365455D01*
X98841035Y-79888727D01*
X98748645Y-79981117D01*
X98684978Y-80038047D01*
X98629089Y-80061107D01*
X98552702Y-80059647D01*
X98522380Y-80055934D01*
X98427610Y-80045126D01*
X98349222Y-80038933D01*
X98330115Y-80038361D01*
X98265699Y-80042102D01*
X98173571Y-80051494D01*
X98137850Y-80055934D01*
X98050114Y-80062801D01*
X97991153Y-80047885D01*
X97932690Y-80001835D01*
X97911585Y-79981117D01*
X97819195Y-79888727D01*
X97819195Y-78909947D01*
X97893558Y-78876066D01*
X97957590Y-78850970D01*
X97995052Y-78842184D01*
X98004657Y-78869950D01*
X98013635Y-78947530D01*
X98021386Y-79066348D01*
X98027314Y-79217828D01*
X98030173Y-79345805D01*
X98038161Y-79849425D01*
X98107848Y-79859278D01*
X98171229Y-79852389D01*
X98202286Y-79830083D01*
X98210967Y-79788379D01*
X98218378Y-79699544D01*
X98223931Y-79574834D01*
X98227036Y-79425507D01*
X98227484Y-79348661D01*
X98227931Y-78906287D01*
X98319874Y-78874235D01*
X98384949Y-78852443D01*
X98420347Y-78842281D01*
X98421368Y-78842184D01*
X98424920Y-78869809D01*
X98428823Y-78946411D01*
X98432751Y-79062579D01*
X98436376Y-79208904D01*
X98438908Y-79345805D01*
X98446897Y-79849425D01*
X98622069Y-79849425D01*
X98630107Y-79389965D01*
X98638146Y-78930505D01*
X98723543Y-78886344D01*
X98786593Y-78856019D01*
X98823910Y-78842258D01*
X98824987Y-78842184D01*
X98830124Y-78869840D01*
G37*
X98830124Y-78869840D02*
X98834579Y-78946653D01*
X98838071Y-79063391D01*
X98840315Y-79210821D01*
X98841035Y-79365455D01*
X98841035Y-79888727D01*
X98748645Y-79981117D01*
X98684978Y-80038047D01*
X98629089Y-80061107D01*
X98552702Y-80059647D01*
X98522380Y-80055934D01*
X98427610Y-80045126D01*
X98349222Y-80038933D01*
X98330115Y-80038361D01*
X98265699Y-80042102D01*
X98173571Y-80051494D01*
X98137850Y-80055934D01*
X98050114Y-80062801D01*
X97991153Y-80047885D01*
X97932690Y-80001835D01*
X97911585Y-79981117D01*
X97819195Y-79888727D01*
X97819195Y-78909947D01*
X97893558Y-78876066D01*
X97957590Y-78850970D01*
X97995052Y-78842184D01*
X98004657Y-78869950D01*
X98013635Y-78947530D01*
X98021386Y-79066348D01*
X98027314Y-79217828D01*
X98030173Y-79345805D01*
X98038161Y-79849425D01*
X98107848Y-79859278D01*
X98171229Y-79852389D01*
X98202286Y-79830083D01*
X98210967Y-79788379D01*
X98218378Y-79699544D01*
X98223931Y-79574834D01*
X98227036Y-79425507D01*
X98227484Y-79348661D01*
X98227931Y-78906287D01*
X98319874Y-78874235D01*
X98384949Y-78852443D01*
X98420347Y-78842281D01*
X98421368Y-78842184D01*
X98424920Y-78869809D01*
X98428823Y-78946411D01*
X98432751Y-79062579D01*
X98436376Y-79208904D01*
X98438908Y-79345805D01*
X98446897Y-79849425D01*
X98622069Y-79849425D01*
X98630107Y-79389965D01*
X98638146Y-78930505D01*
X98723543Y-78886344D01*
X98786593Y-78856019D01*
X98823910Y-78842258D01*
X98824987Y-78842184D01*
X98830124Y-78869840D01*
G36*
X100585690Y-78870018D02*
G01*
X100620585Y-78885269D01*
X100703877Y-78951235D01*
X100775103Y-79046618D01*
X100819153Y-79148406D01*
X100826322Y-79198587D01*
X100802285Y-79268647D01*
X100749561Y-79305717D01*
X100693031Y-79328164D01*
X100667146Y-79332300D01*
X100654542Y-79302283D01*
X100629654Y-79236961D01*
X100618735Y-79207445D01*
X100557508Y-79105348D01*
X100468861Y-79054423D01*
X100355193Y-79055989D01*
X100346774Y-79057994D01*
X100286088Y-79086767D01*
X100241474Y-79142859D01*
X100211002Y-79233163D01*
X100192744Y-79364571D01*
X100184771Y-79543974D01*
X100184023Y-79639433D01*
X100183652Y-79789913D01*
X100181223Y-79892495D01*
X100174760Y-79957672D01*
X100162288Y-79995938D01*
X100141833Y-80017785D01*
X100111419Y-80033707D01*
X100109661Y-80034509D01*
X100051091Y-80059272D01*
X100022075Y-80068391D01*
X100017616Y-80040822D01*
X100013799Y-79964620D01*
X100010899Y-79849541D01*
X100009191Y-79705341D01*
X100008851Y-79599814D01*
X100010588Y-79395613D01*
X100017382Y-79240697D01*
X100031607Y-79126024D01*
X100055638Y-79042551D01*
X100091848Y-78981236D01*
X100142612Y-78933034D01*
X100192739Y-78899393D01*
X100313275Y-78854619D01*
X100453557Y-78844521D01*
X100585690Y-78870018D01*
G37*
X100585690Y-78870018D02*
X100620585Y-78885269D01*
X100703877Y-78951235D01*
X100775103Y-79046618D01*
X100819153Y-79148406D01*
X100826322Y-79198587D01*
X100802285Y-79268647D01*
X100749561Y-79305717D01*
X100693031Y-79328164D01*
X100667146Y-79332300D01*
X100654542Y-79302283D01*
X100629654Y-79236961D01*
X100618735Y-79207445D01*
X100557508Y-79105348D01*
X100468861Y-79054423D01*
X100355193Y-79055989D01*
X100346774Y-79057994D01*
X100286088Y-79086767D01*
X100241474Y-79142859D01*
X100211002Y-79233163D01*
X100192744Y-79364571D01*
X100184771Y-79543974D01*
X100184023Y-79639433D01*
X100183652Y-79789913D01*
X100181223Y-79892495D01*
X100174760Y-79957672D01*
X100162288Y-79995938D01*
X100141833Y-80017785D01*
X100111419Y-80033707D01*
X100109661Y-80034509D01*
X100051091Y-80059272D01*
X100022075Y-80068391D01*
X100017616Y-80040822D01*
X100013799Y-79964620D01*
X100010899Y-79849541D01*
X100009191Y-79705341D01*
X100008851Y-79599814D01*
X100010588Y-79395613D01*
X100017382Y-79240697D01*
X100031607Y-79126024D01*
X100055638Y-79042551D01*
X100091848Y-78981236D01*
X100142612Y-78933034D01*
X100192739Y-78899393D01*
X100313275Y-78854619D01*
X100453557Y-78844521D01*
X100585690Y-78870018D01*
G36*
X95459014Y-69382998D02*
G01*
X95617006Y-69383863D01*
X95731347Y-69386205D01*
X95809407Y-69390762D01*
X95858554Y-69398270D01*
X95886159Y-69409466D01*
X95899592Y-69425088D01*
X95906221Y-69445873D01*
X95906865Y-69448563D01*
X95916935Y-69497113D01*
X95935575Y-69592905D01*
X95960845Y-69725743D01*
X95990807Y-69885431D01*
X96023522Y-70061774D01*
X96024664Y-70067967D01*
X96057433Y-70240782D01*
X96088093Y-70393469D01*
X96114664Y-70516871D01*
X96135167Y-70601831D01*
X96147626Y-70639190D01*
X96148220Y-70639852D01*
X96184919Y-70658095D01*
X96260586Y-70688497D01*
X96358878Y-70724493D01*
X96359425Y-70724685D01*
X96483233Y-70771222D01*
X96629196Y-70830504D01*
X96766781Y-70890109D01*
X96773293Y-70893056D01*
X96997390Y-70994765D01*
X97493619Y-70655897D01*
X97645846Y-70552592D01*
X97783741Y-70460237D01*
X97899315Y-70384084D01*
X97984579Y-70329385D01*
X98031544Y-70301393D01*
X98036004Y-70299317D01*
X98070134Y-70308560D01*
X98133881Y-70353156D01*
X98229731Y-70435209D01*
X98360169Y-70556821D01*
X98493328Y-70686205D01*
X98621694Y-70813702D01*
X98736581Y-70930046D01*
X98831073Y-71028052D01*
X98898253Y-71100536D01*
X98931206Y-71140313D01*
X98932432Y-71142361D01*
X98936074Y-71169656D01*
X98922350Y-71214234D01*
X98887869Y-71282112D01*
X98829239Y-71379311D01*
X98743070Y-71511851D01*
X98628200Y-71682476D01*
X98526254Y-71832655D01*
X98435123Y-71967350D01*
X98360073Y-72078740D01*
X98306369Y-72159005D01*
X98279280Y-72200325D01*
X98277574Y-72203130D01*
X98280882Y-72242721D01*
X98305953Y-72319669D01*
X98347798Y-72419432D01*
X98362712Y-72451291D01*
X98427786Y-72593226D01*
X98497212Y-72754273D01*
X98553609Y-72893621D01*
X98594247Y-72997044D01*
X98626526Y-73075642D01*
X98645178Y-73116720D01*
X98647497Y-73119885D01*
X98681803Y-73125128D01*
X98762669Y-73139494D01*
X98879343Y-73160937D01*
X99021075Y-73187413D01*
X99177110Y-73216877D01*
X99336698Y-73247283D01*
X99489085Y-73276588D01*
X99623521Y-73302745D01*
X99729252Y-73323710D01*
X99795526Y-73337439D01*
X99811782Y-73341320D01*
X99828573Y-73350900D01*
X99841249Y-73372536D01*
X99850378Y-73413531D01*
X99856531Y-73481189D01*
X99860280Y-73582812D01*
X99862192Y-73725703D01*
X99862840Y-73917165D01*
X99862874Y-73995645D01*
X99862874Y-74633906D01*
X99709598Y-74664160D01*
X99624322Y-74680564D01*
X99497070Y-74704509D01*
X99343315Y-74733107D01*
X99178534Y-74763467D01*
X99132989Y-74771806D01*
X98980932Y-74801370D01*
X98848468Y-74830442D01*
X98746714Y-74856329D01*
X98686788Y-74876337D01*
X98676805Y-74882301D01*
X98652293Y-74924534D01*
X98617148Y-75006370D01*
X98578173Y-75111683D01*
X98570442Y-75134368D01*
X98519360Y-75275018D01*
X98455954Y-75433714D01*
X98393904Y-75576225D01*
X98393598Y-75576886D01*
X98290267Y-75800440D01*
X98969961Y-76800232D01*
X98533621Y-77237300D01*
X98401649Y-77367381D01*
X98281279Y-77482048D01*
X98179273Y-77575181D01*
X98102391Y-77640658D01*
X98057393Y-77672357D01*
X98050938Y-77674368D01*
X98013040Y-77658529D01*
X97935708Y-77614496D01*
X97827389Y-77547490D01*
X97696532Y-77462734D01*
X97555052Y-77367816D01*
X97411461Y-77270998D01*
X97283435Y-77186751D01*
X97179105Y-77120258D01*
X97106600Y-77076702D01*
X97074158Y-77061264D01*
X97034576Y-77074328D01*
X96959519Y-77108750D01*
X96864468Y-77157380D01*
X96854392Y-77162785D01*
X96726391Y-77226980D01*
X96638618Y-77258463D01*
X96584028Y-77258798D01*
X96555575Y-77229548D01*
X96555410Y-77229138D01*
X96541188Y-77194498D01*
X96507269Y-77112269D01*
X96456284Y-76988814D01*
X96390862Y-76830498D01*
X96313634Y-76643686D01*
X96227229Y-76434742D01*
X96143551Y-76232446D01*
X96051588Y-76009200D01*
X95967150Y-75802392D01*
X95892769Y-75618362D01*
X95830974Y-75463451D01*
X95784297Y-75343996D01*
X95755268Y-75266339D01*
X95746322Y-75237356D01*
X95768756Y-75204110D01*
X95827439Y-75151123D01*
X95905689Y-75092704D01*
X96128534Y-74907952D01*
X96302718Y-74696182D01*
X96426154Y-74461856D01*
X96496754Y-74209434D01*
X96512431Y-73943377D01*
X96501036Y-73820575D01*
X96438950Y-73565793D01*
X96332023Y-73340801D01*
X96186889Y-73147817D01*
X96010178Y-72989061D01*
X95808522Y-72866750D01*
X95588554Y-72783105D01*
X95356906Y-72740344D01*
X95120209Y-72740687D01*
X94885095Y-72786352D01*
X94658196Y-72879559D01*
X94446144Y-73022527D01*
X94357636Y-73103383D01*
X94187889Y-73311007D01*
X94069699Y-73537895D01*
X94002278Y-73777433D01*
X93984840Y-74023007D01*
X94016598Y-74268003D01*
X94096765Y-74505808D01*
X94224555Y-74729807D01*
X94399180Y-74933387D01*
X94594312Y-75092704D01*
X94675591Y-75153602D01*
X94733009Y-75206015D01*
X94753678Y-75237406D01*
X94742856Y-75271639D01*
X94712077Y-75353419D01*
X94663874Y-75476407D01*
X94600778Y-75634263D01*
X94525322Y-75820649D01*
X94440038Y-76029226D01*
X94356219Y-76232496D01*
X94263745Y-76455933D01*
X94178089Y-76662984D01*
X94101882Y-76847286D01*
X94037753Y-77002475D01*
X93988332Y-77122188D01*
X93956248Y-77200061D01*
X93944359Y-77229138D01*
X93916274Y-77258677D01*
X93861949Y-77258591D01*
X93774395Y-77227326D01*
X93646619Y-77163329D01*
X93645608Y-77162785D01*
X93549402Y-77113121D01*
X93471631Y-77076945D01*
X93427777Y-77061408D01*
X93425842Y-77061264D01*
X93392829Y-77077024D01*
X93319946Y-77120850D01*
X93215322Y-77187557D01*
X93087090Y-77271964D01*
X92944948Y-77367816D01*
X92800233Y-77464867D01*
X92669804Y-77549270D01*
X92562110Y-77615801D01*
X92485598Y-77659238D01*
X92449062Y-77674368D01*
X92415418Y-77654482D01*
X92347776Y-77598903D01*
X92252893Y-77513754D01*
X92137530Y-77405153D01*
X92008445Y-77279221D01*
X91966229Y-77237149D01*
X91529739Y-76799931D01*
X91861977Y-76312340D01*
X91962946Y-76162605D01*
X92051562Y-76028220D01*
X92122854Y-75916969D01*
X92171850Y-75836639D01*
X92193578Y-75795014D01*
X92194215Y-75792053D01*
X92182760Y-75752818D01*
X92151949Y-75673895D01*
X92107116Y-75568509D01*
X92075647Y-75497954D01*
X92016808Y-75362876D01*
X91961396Y-75226409D01*
X91918436Y-75111103D01*
X91906766Y-75075977D01*
X91873611Y-74982174D01*
X91841201Y-74909694D01*
X91823399Y-74882301D01*
X91784114Y-74865536D01*
X91698374Y-74841770D01*
X91577303Y-74813697D01*
X91432027Y-74784009D01*
X91367012Y-74771806D01*
X91201913Y-74741468D01*
X91043552Y-74712093D01*
X90907404Y-74686569D01*
X90808943Y-74667785D01*
X90790402Y-74664160D01*
X90637127Y-74633906D01*
X90637127Y-73995645D01*
X90637471Y-73785770D01*
X90638884Y-73626980D01*
X90641936Y-73511973D01*
X90647197Y-73433446D01*
X90655237Y-73384096D01*
X90666627Y-73356619D01*
X90681937Y-73343713D01*
X90688218Y-73341320D01*
X90726104Y-73332833D01*
X90809805Y-73315900D01*
X90928567Y-73292566D01*
X91071639Y-73264875D01*
X91228268Y-73234873D01*
X91387703Y-73204604D01*
X91539191Y-73176115D01*
X91671981Y-73151449D01*
X91775319Y-73132651D01*
X91838455Y-73121767D01*
X91852503Y-73119885D01*
X91865230Y-73094704D01*
X91893400Y-73027622D01*
X91931748Y-72931333D01*
X91946391Y-72893621D01*
X92005452Y-72747921D01*
X92075000Y-72586951D01*
X92137288Y-72451291D01*
X92183121Y-72347561D01*
X92213613Y-72262326D01*
X92223792Y-72210126D01*
X92222169Y-72203130D01*
X92200657Y-72170102D01*
X92151535Y-72096643D01*
X92080077Y-71990577D01*
X91991555Y-71859726D01*
X91891241Y-71711912D01*
X91871406Y-71682734D01*
X91755012Y-71509863D01*
X91669452Y-71378226D01*
X91611316Y-71281761D01*
X91577192Y-71214408D01*
X91563669Y-71170106D01*
X91567336Y-71142794D01*
X91567430Y-71142620D01*
X91596293Y-71106746D01*
X91660133Y-71037391D01*
X91752031Y-70941745D01*
X91865067Y-70826999D01*
X91992321Y-70700341D01*
X92006672Y-70686205D01*
X92167043Y-70530903D01*
X92290805Y-70416870D01*
X92380445Y-70342002D01*
X92438448Y-70304196D01*
X92463996Y-70299317D01*
X92501282Y-70320603D01*
X92578657Y-70369773D01*
X92688133Y-70441575D01*
X92821720Y-70530755D01*
X92971430Y-70632063D01*
X93006382Y-70655897D01*
X93502610Y-70994765D01*
X93726707Y-70893056D01*
X93862989Y-70833783D01*
X94009276Y-70774170D01*
X94135035Y-70726640D01*
X94140575Y-70724685D01*
X94238943Y-70688677D01*
X94314771Y-70658229D01*
X94351718Y-70639905D01*
X94351780Y-70639852D01*
X94363504Y-70606729D01*
X94383432Y-70525267D01*
X94409587Y-70404625D01*
X94439990Y-70253959D01*
X94472663Y-70082428D01*
X94475336Y-70067967D01*
X94508110Y-69891235D01*
X94538198Y-69730810D01*
X94563661Y-69596888D01*
X94582559Y-69499663D01*
X94592953Y-69449332D01*
X94593135Y-69448563D01*
X94599461Y-69427153D01*
X94611761Y-69410988D01*
X94637406Y-69399331D01*
X94683765Y-69391445D01*
X94758208Y-69386593D01*
X94868105Y-69384039D01*
X95020825Y-69383045D01*
X95223738Y-69382874D01*
X95250000Y-69382874D01*
X95459014Y-69382998D01*
G37*
X95459014Y-69382998D02*
X95617006Y-69383863D01*
X95731347Y-69386205D01*
X95809407Y-69390762D01*
X95858554Y-69398270D01*
X95886159Y-69409466D01*
X95899592Y-69425088D01*
X95906221Y-69445873D01*
X95906865Y-69448563D01*
X95916935Y-69497113D01*
X95935575Y-69592905D01*
X95960845Y-69725743D01*
X95990807Y-69885431D01*
X96023522Y-70061774D01*
X96024664Y-70067967D01*
X96057433Y-70240782D01*
X96088093Y-70393469D01*
X96114664Y-70516871D01*
X96135167Y-70601831D01*
X96147626Y-70639190D01*
X96148220Y-70639852D01*
X96184919Y-70658095D01*
X96260586Y-70688497D01*
X96358878Y-70724493D01*
X96359425Y-70724685D01*
X96483233Y-70771222D01*
X96629196Y-70830504D01*
X96766781Y-70890109D01*
X96773293Y-70893056D01*
X96997390Y-70994765D01*
X97493619Y-70655897D01*
X97645846Y-70552592D01*
X97783741Y-70460237D01*
X97899315Y-70384084D01*
X97984579Y-70329385D01*
X98031544Y-70301393D01*
X98036004Y-70299317D01*
X98070134Y-70308560D01*
X98133881Y-70353156D01*
X98229731Y-70435209D01*
X98360169Y-70556821D01*
X98493328Y-70686205D01*
X98621694Y-70813702D01*
X98736581Y-70930046D01*
X98831073Y-71028052D01*
X98898253Y-71100536D01*
X98931206Y-71140313D01*
X98932432Y-71142361D01*
X98936074Y-71169656D01*
X98922350Y-71214234D01*
X98887869Y-71282112D01*
X98829239Y-71379311D01*
X98743070Y-71511851D01*
X98628200Y-71682476D01*
X98526254Y-71832655D01*
X98435123Y-71967350D01*
X98360073Y-72078740D01*
X98306369Y-72159005D01*
X98279280Y-72200325D01*
X98277574Y-72203130D01*
X98280882Y-72242721D01*
X98305953Y-72319669D01*
X98347798Y-72419432D01*
X98362712Y-72451291D01*
X98427786Y-72593226D01*
X98497212Y-72754273D01*
X98553609Y-72893621D01*
X98594247Y-72997044D01*
X98626526Y-73075642D01*
X98645178Y-73116720D01*
X98647497Y-73119885D01*
X98681803Y-73125128D01*
X98762669Y-73139494D01*
X98879343Y-73160937D01*
X99021075Y-73187413D01*
X99177110Y-73216877D01*
X99336698Y-73247283D01*
X99489085Y-73276588D01*
X99623521Y-73302745D01*
X99729252Y-73323710D01*
X99795526Y-73337439D01*
X99811782Y-73341320D01*
X99828573Y-73350900D01*
X99841249Y-73372536D01*
X99850378Y-73413531D01*
X99856531Y-73481189D01*
X99860280Y-73582812D01*
X99862192Y-73725703D01*
X99862840Y-73917165D01*
X99862874Y-73995645D01*
X99862874Y-74633906D01*
X99709598Y-74664160D01*
X99624322Y-74680564D01*
X99497070Y-74704509D01*
X99343315Y-74733107D01*
X99178534Y-74763467D01*
X99132989Y-74771806D01*
X98980932Y-74801370D01*
X98848468Y-74830442D01*
X98746714Y-74856329D01*
X98686788Y-74876337D01*
X98676805Y-74882301D01*
X98652293Y-74924534D01*
X98617148Y-75006370D01*
X98578173Y-75111683D01*
X98570442Y-75134368D01*
X98519360Y-75275018D01*
X98455954Y-75433714D01*
X98393904Y-75576225D01*
X98393598Y-75576886D01*
X98290267Y-75800440D01*
X98969961Y-76800232D01*
X98533621Y-77237300D01*
X98401649Y-77367381D01*
X98281279Y-77482048D01*
X98179273Y-77575181D01*
X98102391Y-77640658D01*
X98057393Y-77672357D01*
X98050938Y-77674368D01*
X98013040Y-77658529D01*
X97935708Y-77614496D01*
X97827389Y-77547490D01*
X97696532Y-77462734D01*
X97555052Y-77367816D01*
X97411461Y-77270998D01*
X97283435Y-77186751D01*
X97179105Y-77120258D01*
X97106600Y-77076702D01*
X97074158Y-77061264D01*
X97034576Y-77074328D01*
X96959519Y-77108750D01*
X96864468Y-77157380D01*
X96854392Y-77162785D01*
X96726391Y-77226980D01*
X96638618Y-77258463D01*
X96584028Y-77258798D01*
X96555575Y-77229548D01*
X96555410Y-77229138D01*
X96541188Y-77194498D01*
X96507269Y-77112269D01*
X96456284Y-76988814D01*
X96390862Y-76830498D01*
X96313634Y-76643686D01*
X96227229Y-76434742D01*
X96143551Y-76232446D01*
X96051588Y-76009200D01*
X95967150Y-75802392D01*
X95892769Y-75618362D01*
X95830974Y-75463451D01*
X95784297Y-75343996D01*
X95755268Y-75266339D01*
X95746322Y-75237356D01*
X95768756Y-75204110D01*
X95827439Y-75151123D01*
X95905689Y-75092704D01*
X96128534Y-74907952D01*
X96302718Y-74696182D01*
X96426154Y-74461856D01*
X96496754Y-74209434D01*
X96512431Y-73943377D01*
X96501036Y-73820575D01*
X96438950Y-73565793D01*
X96332023Y-73340801D01*
X96186889Y-73147817D01*
X96010178Y-72989061D01*
X95808522Y-72866750D01*
X95588554Y-72783105D01*
X95356906Y-72740344D01*
X95120209Y-72740687D01*
X94885095Y-72786352D01*
X94658196Y-72879559D01*
X94446144Y-73022527D01*
X94357636Y-73103383D01*
X94187889Y-73311007D01*
X94069699Y-73537895D01*
X94002278Y-73777433D01*
X93984840Y-74023007D01*
X94016598Y-74268003D01*
X94096765Y-74505808D01*
X94224555Y-74729807D01*
X94399180Y-74933387D01*
X94594312Y-75092704D01*
X94675591Y-75153602D01*
X94733009Y-75206015D01*
X94753678Y-75237406D01*
X94742856Y-75271639D01*
X94712077Y-75353419D01*
X94663874Y-75476407D01*
X94600778Y-75634263D01*
X94525322Y-75820649D01*
X94440038Y-76029226D01*
X94356219Y-76232496D01*
X94263745Y-76455933D01*
X94178089Y-76662984D01*
X94101882Y-76847286D01*
X94037753Y-77002475D01*
X93988332Y-77122188D01*
X93956248Y-77200061D01*
X93944359Y-77229138D01*
X93916274Y-77258677D01*
X93861949Y-77258591D01*
X93774395Y-77227326D01*
X93646619Y-77163329D01*
X93645608Y-77162785D01*
X93549402Y-77113121D01*
X93471631Y-77076945D01*
X93427777Y-77061408D01*
X93425842Y-77061264D01*
X93392829Y-77077024D01*
X93319946Y-77120850D01*
X93215322Y-77187557D01*
X93087090Y-77271964D01*
X92944948Y-77367816D01*
X92800233Y-77464867D01*
X92669804Y-77549270D01*
X92562110Y-77615801D01*
X92485598Y-77659238D01*
X92449062Y-77674368D01*
X92415418Y-77654482D01*
X92347776Y-77598903D01*
X92252893Y-77513754D01*
X92137530Y-77405153D01*
X92008445Y-77279221D01*
X91966229Y-77237149D01*
X91529739Y-76799931D01*
X91861977Y-76312340D01*
X91962946Y-76162605D01*
X92051562Y-76028220D01*
X92122854Y-75916969D01*
X92171850Y-75836639D01*
X92193578Y-75795014D01*
X92194215Y-75792053D01*
X92182760Y-75752818D01*
X92151949Y-75673895D01*
X92107116Y-75568509D01*
X92075647Y-75497954D01*
X92016808Y-75362876D01*
X91961396Y-75226409D01*
X91918436Y-75111103D01*
X91906766Y-75075977D01*
X91873611Y-74982174D01*
X91841201Y-74909694D01*
X91823399Y-74882301D01*
X91784114Y-74865536D01*
X91698374Y-74841770D01*
X91577303Y-74813697D01*
X91432027Y-74784009D01*
X91367012Y-74771806D01*
X91201913Y-74741468D01*
X91043552Y-74712093D01*
X90907404Y-74686569D01*
X90808943Y-74667785D01*
X90790402Y-74664160D01*
X90637127Y-74633906D01*
X90637127Y-73995645D01*
X90637471Y-73785770D01*
X90638884Y-73626980D01*
X90641936Y-73511973D01*
X90647197Y-73433446D01*
X90655237Y-73384096D01*
X90666627Y-73356619D01*
X90681937Y-73343713D01*
X90688218Y-73341320D01*
X90726104Y-73332833D01*
X90809805Y-73315900D01*
X90928567Y-73292566D01*
X91071639Y-73264875D01*
X91228268Y-73234873D01*
X91387703Y-73204604D01*
X91539191Y-73176115D01*
X91671981Y-73151449D01*
X91775319Y-73132651D01*
X91838455Y-73121767D01*
X91852503Y-73119885D01*
X91865230Y-73094704D01*
X91893400Y-73027622D01*
X91931748Y-72931333D01*
X91946391Y-72893621D01*
X92005452Y-72747921D01*
X92075000Y-72586951D01*
X92137288Y-72451291D01*
X92183121Y-72347561D01*
X92213613Y-72262326D01*
X92223792Y-72210126D01*
X92222169Y-72203130D01*
X92200657Y-72170102D01*
X92151535Y-72096643D01*
X92080077Y-71990577D01*
X91991555Y-71859726D01*
X91891241Y-71711912D01*
X91871406Y-71682734D01*
X91755012Y-71509863D01*
X91669452Y-71378226D01*
X91611316Y-71281761D01*
X91577192Y-71214408D01*
X91563669Y-71170106D01*
X91567336Y-71142794D01*
X91567430Y-71142620D01*
X91596293Y-71106746D01*
X91660133Y-71037391D01*
X91752031Y-70941745D01*
X91865067Y-70826999D01*
X91992321Y-70700341D01*
X92006672Y-70686205D01*
X92167043Y-70530903D01*
X92290805Y-70416870D01*
X92380445Y-70342002D01*
X92438448Y-70304196D01*
X92463996Y-70299317D01*
X92501282Y-70320603D01*
X92578657Y-70369773D01*
X92688133Y-70441575D01*
X92821720Y-70530755D01*
X92971430Y-70632063D01*
X93006382Y-70655897D01*
X93502610Y-70994765D01*
X93726707Y-70893056D01*
X93862989Y-70833783D01*
X94009276Y-70774170D01*
X94135035Y-70726640D01*
X94140575Y-70724685D01*
X94238943Y-70688677D01*
X94314771Y-70658229D01*
X94351718Y-70639905D01*
X94351780Y-70639852D01*
X94363504Y-70606729D01*
X94383432Y-70525267D01*
X94409587Y-70404625D01*
X94439990Y-70253959D01*
X94472663Y-70082428D01*
X94475336Y-70067967D01*
X94508110Y-69891235D01*
X94538198Y-69730810D01*
X94563661Y-69596888D01*
X94582559Y-69499663D01*
X94592953Y-69449332D01*
X94593135Y-69448563D01*
X94599461Y-69427153D01*
X94611761Y-69410988D01*
X94637406Y-69399331D01*
X94683765Y-69391445D01*
X94758208Y-69386593D01*
X94868105Y-69384039D01*
X95020825Y-69383045D01*
X95223738Y-69382874D01*
X95250000Y-69382874D01*
X95459014Y-69382998D01*
G36*
X95329944Y-78854360D02*
G01*
X95444343Y-78896842D01*
X95445652Y-78897658D01*
X95516403Y-78949730D01*
X95568636Y-79010584D01*
X95605371Y-79089887D01*
X95629634Y-79197309D01*
X95644445Y-79342517D01*
X95652829Y-79535179D01*
X95653564Y-79562628D01*
X95664120Y-79976521D01*
X95575291Y-80022456D01*
X95511018Y-80053498D01*
X95472210Y-80068206D01*
X95470415Y-80068391D01*
X95463700Y-80041250D01*
X95458365Y-79968041D01*
X95455083Y-79861081D01*
X95454368Y-79774469D01*
X95454351Y-79634162D01*
X95447937Y-79546051D01*
X95425580Y-79504025D01*
X95377732Y-79501975D01*
X95294849Y-79533790D01*
X95169713Y-79592272D01*
X95077697Y-79640845D01*
X95030371Y-79682986D01*
X95016458Y-79728916D01*
X95016437Y-79731189D01*
X95039395Y-79810311D01*
X95107370Y-79853055D01*
X95211398Y-79859246D01*
X95286330Y-79858172D01*
X95325839Y-79879753D01*
X95350478Y-79931591D01*
X95364659Y-79997632D01*
X95344223Y-80035104D01*
X95336528Y-80040467D01*
X95264083Y-80062006D01*
X95162633Y-80065055D01*
X95058157Y-80050778D01*
X94984125Y-80024688D01*
X94881772Y-79937785D01*
X94823591Y-79816816D01*
X94812069Y-79722308D01*
X94820862Y-79637062D01*
X94852680Y-79567476D01*
X94915684Y-79505672D01*
X95018031Y-79443772D01*
X95167882Y-79373897D01*
X95177012Y-79369948D01*
X95311997Y-79307588D01*
X95395294Y-79256446D01*
X95430997Y-79210488D01*
X95423203Y-79163683D01*
X95376007Y-79109998D01*
X95361894Y-79097644D01*
X95267359Y-79049741D01*
X95169406Y-79051758D01*
X95084097Y-79098724D01*
X95027496Y-79185669D01*
X95022237Y-79202734D01*
X94971023Y-79285504D01*
X94906037Y-79325372D01*
X94812069Y-79364882D01*
X94812069Y-79262658D01*
X94840653Y-79114072D01*
X94925495Y-78977784D01*
X94969645Y-78932191D01*
X95070005Y-78873674D01*
X95197635Y-78847184D01*
X95329944Y-78854360D01*
G37*
X95329944Y-78854360D02*
X95444343Y-78896842D01*
X95445652Y-78897658D01*
X95516403Y-78949730D01*
X95568636Y-79010584D01*
X95605371Y-79089887D01*
X95629634Y-79197309D01*
X95644445Y-79342517D01*
X95652829Y-79535179D01*
X95653564Y-79562628D01*
X95664120Y-79976521D01*
X95575291Y-80022456D01*
X95511018Y-80053498D01*
X95472210Y-80068206D01*
X95470415Y-80068391D01*
X95463700Y-80041250D01*
X95458365Y-79968041D01*
X95455083Y-79861081D01*
X95454368Y-79774469D01*
X95454351Y-79634162D01*
X95447937Y-79546051D01*
X95425580Y-79504025D01*
X95377732Y-79501975D01*
X95294849Y-79533790D01*
X95169713Y-79592272D01*
X95077697Y-79640845D01*
X95030371Y-79682986D01*
X95016458Y-79728916D01*
X95016437Y-79731189D01*
X95039395Y-79810311D01*
X95107370Y-79853055D01*
X95211398Y-79859246D01*
X95286330Y-79858172D01*
X95325839Y-79879753D01*
X95350478Y-79931591D01*
X95364659Y-79997632D01*
X95344223Y-80035104D01*
X95336528Y-80040467D01*
X95264083Y-80062006D01*
X95162633Y-80065055D01*
X95058157Y-80050778D01*
X94984125Y-80024688D01*
X94881772Y-79937785D01*
X94823591Y-79816816D01*
X94812069Y-79722308D01*
X94820862Y-79637062D01*
X94852680Y-79567476D01*
X94915684Y-79505672D01*
X95018031Y-79443772D01*
X95167882Y-79373897D01*
X95177012Y-79369948D01*
X95311997Y-79307588D01*
X95395294Y-79256446D01*
X95430997Y-79210488D01*
X95423203Y-79163683D01*
X95376007Y-79109998D01*
X95361894Y-79097644D01*
X95267359Y-79049741D01*
X95169406Y-79051758D01*
X95084097Y-79098724D01*
X95027496Y-79185669D01*
X95022237Y-79202734D01*
X94971023Y-79285504D01*
X94906037Y-79325372D01*
X94812069Y-79364882D01*
X94812069Y-79262658D01*
X94840653Y-79114072D01*
X94925495Y-78977784D01*
X94969645Y-78932191D01*
X95070005Y-78873674D01*
X95197635Y-78847184D01*
X95329944Y-78854360D01*
G36*
X88686688Y-79170549D02*
G01*
X88696688Y-79097714D01*
X88714079Y-79044108D01*
X88740816Y-78996681D01*
X88746724Y-78987864D01*
X88846032Y-78869007D01*
X88954242Y-78800008D01*
X89085981Y-78772619D01*
X89130717Y-78771281D01*
X89298221Y-78796015D01*
X89435061Y-78867968D01*
X89536051Y-78983766D01*
X89571925Y-79058213D01*
X89599839Y-79169992D01*
X89614129Y-79311227D01*
X89615484Y-79465371D01*
X89604595Y-79615879D01*
X89582153Y-79746205D01*
X89548850Y-79839803D01*
X89538615Y-79855922D01*
X89417382Y-79976249D01*
X89273387Y-80048317D01*
X89117139Y-80069408D01*
X88959148Y-80036802D01*
X88915180Y-80017253D01*
X88829556Y-79957012D01*
X88754408Y-79877135D01*
X88747306Y-79867004D01*
X88718439Y-79818181D01*
X88699357Y-79765990D01*
X88688084Y-79697285D01*
X88682645Y-79598918D01*
X88681062Y-79457744D01*
X88681035Y-79426092D01*
X88681107Y-79416019D01*
X88972989Y-79416019D01*
X88974687Y-79549256D01*
X88981372Y-79637674D01*
X88995425Y-79694785D01*
X89019229Y-79734102D01*
X89031379Y-79747241D01*
X89101236Y-79797172D01*
X89169059Y-79794895D01*
X89237635Y-79751584D01*
X89278535Y-79705346D01*
X89302758Y-79637857D01*
X89316361Y-79531433D01*
X89317294Y-79519020D01*
X89319616Y-79326147D01*
X89295350Y-79182900D01*
X89244824Y-79090160D01*
X89168368Y-79048807D01*
X89141076Y-79046552D01*
X89069411Y-79057893D01*
X89020390Y-79097184D01*
X88990418Y-79172326D01*
X88975899Y-79291222D01*
X88972989Y-79416019D01*
X88681107Y-79416019D01*
X88682122Y-79275659D01*
X88686688Y-79170549D01*
G37*
X88686688Y-79170549D02*
X88696688Y-79097714D01*
X88714079Y-79044108D01*
X88740816Y-78996681D01*
X88746724Y-78987864D01*
X88846032Y-78869007D01*
X88954242Y-78800008D01*
X89085981Y-78772619D01*
X89130717Y-78771281D01*
X89298221Y-78796015D01*
X89435061Y-78867968D01*
X89536051Y-78983766D01*
X89571925Y-79058213D01*
X89599839Y-79169992D01*
X89614129Y-79311227D01*
X89615484Y-79465371D01*
X89604595Y-79615879D01*
X89582153Y-79746205D01*
X89548850Y-79839803D01*
X89538615Y-79855922D01*
X89417382Y-79976249D01*
X89273387Y-80048317D01*
X89117139Y-80069408D01*
X88959148Y-80036802D01*
X88915180Y-80017253D01*
X88829556Y-79957012D01*
X88754408Y-79877135D01*
X88747306Y-79867004D01*
X88718439Y-79818181D01*
X88699357Y-79765990D01*
X88688084Y-79697285D01*
X88682645Y-79598918D01*
X88681062Y-79457744D01*
X88681035Y-79426092D01*
X88681107Y-79416019D01*
X88972989Y-79416019D01*
X88974687Y-79549256D01*
X88981372Y-79637674D01*
X88995425Y-79694785D01*
X89019229Y-79734102D01*
X89031379Y-79747241D01*
X89101236Y-79797172D01*
X89169059Y-79794895D01*
X89237635Y-79751584D01*
X89278535Y-79705346D01*
X89302758Y-79637857D01*
X89316361Y-79531433D01*
X89317294Y-79519020D01*
X89319616Y-79326147D01*
X89295350Y-79182900D01*
X89244824Y-79090160D01*
X89168368Y-79048807D01*
X89141076Y-79046552D01*
X89069411Y-79057893D01*
X89020390Y-79097184D01*
X88990418Y-79172326D01*
X88975899Y-79291222D01*
X88972989Y-79416019D01*
X88681107Y-79416019D01*
X88682122Y-79275659D01*
X88686688Y-79170549D01*
G36*
X96315943Y-78851920D02*
G01*
X96448565Y-78900859D01*
X96556010Y-78987419D01*
X96598032Y-79048352D01*
X96643843Y-79160161D01*
X96642891Y-79241006D01*
X96594808Y-79295378D01*
X96577017Y-79304624D01*
X96500204Y-79333450D01*
X96460976Y-79326065D01*
X96447689Y-79277658D01*
X96447012Y-79250920D01*
X96422686Y-79152548D01*
X96359281Y-79083734D01*
X96271154Y-79050498D01*
X96172663Y-79058861D01*
X96092602Y-79102296D01*
X96065561Y-79127072D01*
X96046394Y-79157129D01*
X96033446Y-79202565D01*
X96025064Y-79273476D01*
X96019593Y-79379960D01*
X96015378Y-79532112D01*
X96014287Y-79580287D01*
X96010307Y-79745095D01*
X96005781Y-79861088D01*
X95998995Y-79937833D01*
X95988231Y-79984893D01*
X95971773Y-80011835D01*
X95947906Y-80028223D01*
X95932626Y-80035463D01*
X95867733Y-80060220D01*
X95829534Y-80068391D01*
X95816912Y-80041103D01*
X95809208Y-79958603D01*
X95806380Y-79819941D01*
X95808386Y-79624162D01*
X95809011Y-79593965D01*
X95813421Y-79415349D01*
X95818635Y-79284923D01*
X95826055Y-79192492D01*
X95837082Y-79127858D01*
X95853117Y-79080825D01*
X95875561Y-79041196D01*
X95887302Y-79024215D01*
X95954619Y-78949080D01*
X96029910Y-78890638D01*
X96039128Y-78885536D01*
X96174133Y-78845260D01*
X96315943Y-78851920D01*
G37*
X96315943Y-78851920D02*
X96448565Y-78900859D01*
X96556010Y-78987419D01*
X96598032Y-79048352D01*
X96643843Y-79160161D01*
X96642891Y-79241006D01*
X96594808Y-79295378D01*
X96577017Y-79304624D01*
X96500204Y-79333450D01*
X96460976Y-79326065D01*
X96447689Y-79277658D01*
X96447012Y-79250920D01*
X96422686Y-79152548D01*
X96359281Y-79083734D01*
X96271154Y-79050498D01*
X96172663Y-79058861D01*
X96092602Y-79102296D01*
X96065561Y-79127072D01*
X96046394Y-79157129D01*
X96033446Y-79202565D01*
X96025064Y-79273476D01*
X96019593Y-79379960D01*
X96015378Y-79532112D01*
X96014287Y-79580287D01*
X96010307Y-79745095D01*
X96005781Y-79861088D01*
X95998995Y-79937833D01*
X95988231Y-79984893D01*
X95971773Y-80011835D01*
X95947906Y-80028223D01*
X95932626Y-80035463D01*
X95867733Y-80060220D01*
X95829534Y-80068391D01*
X95816912Y-80041103D01*
X95809208Y-79958603D01*
X95806380Y-79819941D01*
X95808386Y-79624162D01*
X95809011Y-79593965D01*
X95813421Y-79415349D01*
X95818635Y-79284923D01*
X95826055Y-79192492D01*
X95837082Y-79127858D01*
X95853117Y-79080825D01*
X95875561Y-79041196D01*
X95887302Y-79024215D01*
X95954619Y-78949080D01*
X96029910Y-78890638D01*
X96039128Y-78885536D01*
X96174133Y-78845260D01*
X96315943Y-78851920D01*
G36*
X93994598Y-78653857D02*
G01*
X94003154Y-78773188D01*
X94012981Y-78843506D01*
X94026599Y-78874179D01*
X94046527Y-78874571D01*
X94052989Y-78870910D01*
X94138940Y-78844398D01*
X94250745Y-78845946D01*
X94364414Y-78873199D01*
X94435510Y-78908455D01*
X94508405Y-78964778D01*
X94561693Y-79028519D01*
X94598275Y-79109510D01*
X94621050Y-79217586D01*
X94632919Y-79362580D01*
X94636782Y-79554326D01*
X94636851Y-79591109D01*
X94636897Y-80004288D01*
X94544954Y-80036339D01*
X94479652Y-80058144D01*
X94443824Y-80068297D01*
X94442770Y-80068391D01*
X94439242Y-80040860D01*
X94436239Y-79964923D01*
X94433990Y-79850565D01*
X94432724Y-79707769D01*
X94432529Y-79620951D01*
X94432123Y-79449773D01*
X94430032Y-79327088D01*
X94424947Y-79243000D01*
X94415560Y-79187614D01*
X94400561Y-79151032D01*
X94378642Y-79123359D01*
X94364957Y-79110032D01*
X94270949Y-79056328D01*
X94168364Y-79052307D01*
X94075290Y-79097725D01*
X94058078Y-79114123D01*
X94032832Y-79144957D01*
X94015320Y-79181531D01*
X94004142Y-79234415D01*
X93997896Y-79314177D01*
X93995182Y-79431385D01*
X93994598Y-79592991D01*
X93994598Y-80004288D01*
X93902655Y-80036339D01*
X93837353Y-80058144D01*
X93801525Y-80068297D01*
X93800471Y-80068391D01*
X93797775Y-80040448D01*
X93795345Y-79961630D01*
X93793278Y-79839453D01*
X93791671Y-79681432D01*
X93790623Y-79495083D01*
X93790231Y-79287920D01*
X93790230Y-79278706D01*
X93790230Y-78489020D01*
X93885115Y-78448997D01*
X93980000Y-78408973D01*
X93994598Y-78653857D01*
G37*
X93994598Y-78653857D02*
X94003154Y-78773188D01*
X94012981Y-78843506D01*
X94026599Y-78874179D01*
X94046527Y-78874571D01*
X94052989Y-78870910D01*
X94138940Y-78844398D01*
X94250745Y-78845946D01*
X94364414Y-78873199D01*
X94435510Y-78908455D01*
X94508405Y-78964778D01*
X94561693Y-79028519D01*
X94598275Y-79109510D01*
X94621050Y-79217586D01*
X94632919Y-79362580D01*
X94636782Y-79554326D01*
X94636851Y-79591109D01*
X94636897Y-80004288D01*
X94544954Y-80036339D01*
X94479652Y-80058144D01*
X94443824Y-80068297D01*
X94442770Y-80068391D01*
X94439242Y-80040860D01*
X94436239Y-79964923D01*
X94433990Y-79850565D01*
X94432724Y-79707769D01*
X94432529Y-79620951D01*
X94432123Y-79449773D01*
X94430032Y-79327088D01*
X94424947Y-79243000D01*
X94415560Y-79187614D01*
X94400561Y-79151032D01*
X94378642Y-79123359D01*
X94364957Y-79110032D01*
X94270949Y-79056328D01*
X94168364Y-79052307D01*
X94075290Y-79097725D01*
X94058078Y-79114123D01*
X94032832Y-79144957D01*
X94015320Y-79181531D01*
X94004142Y-79234415D01*
X93997896Y-79314177D01*
X93995182Y-79431385D01*
X93994598Y-79592991D01*
X93994598Y-80004288D01*
X93902655Y-80036339D01*
X93837353Y-80058144D01*
X93801525Y-80068297D01*
X93800471Y-80068391D01*
X93797775Y-80040448D01*
X93795345Y-79961630D01*
X93793278Y-79839453D01*
X93791671Y-79681432D01*
X93790623Y-79495083D01*
X93790231Y-79287920D01*
X93790230Y-79278706D01*
X93790230Y-78489020D01*
X93885115Y-78448997D01*
X93980000Y-78408973D01*
X93994598Y-78653857D01*
G36*
X90968634Y-79025829D02*
G01*
X91036836Y-78927447D01*
X91159935Y-78828030D01*
X91295528Y-78778711D01*
X91433955Y-78775568D01*
X91565552Y-78814676D01*
X91680658Y-78892111D01*
X91769611Y-79003949D01*
X91822749Y-79146265D01*
X91833497Y-79251015D01*
X91832276Y-79294726D01*
X91822056Y-79328194D01*
X91793961Y-79358179D01*
X91739116Y-79391440D01*
X91648645Y-79434738D01*
X91513672Y-79494833D01*
X91512989Y-79495134D01*
X91388751Y-79552037D01*
X91286873Y-79602565D01*
X91217767Y-79641280D01*
X91191846Y-79662740D01*
X91191839Y-79662913D01*
X91214685Y-79709644D01*
X91268109Y-79761154D01*
X91329442Y-79798261D01*
X91360515Y-79805632D01*
X91445289Y-79780138D01*
X91518293Y-79716291D01*
X91553913Y-79646094D01*
X91588180Y-79594343D01*
X91655303Y-79535409D01*
X91734208Y-79484496D01*
X91803821Y-79456809D01*
X91818377Y-79455287D01*
X91834763Y-79480321D01*
X91835750Y-79544311D01*
X91823708Y-79630593D01*
X91801007Y-79722501D01*
X91770014Y-79803369D01*
X91768448Y-79806509D01*
X91675181Y-79936734D01*
X91554304Y-80025311D01*
X91417027Y-80068786D01*
X91274560Y-80063706D01*
X91138112Y-80006616D01*
X91132045Y-80002602D01*
X91024710Y-79905326D01*
X90954132Y-79778409D01*
X90915074Y-79611526D01*
X90909832Y-79564639D01*
X90900548Y-79343329D01*
X90911678Y-79240124D01*
X91191839Y-79240124D01*
X91195479Y-79304503D01*
X91215389Y-79323291D01*
X91265026Y-79309235D01*
X91343267Y-79276009D01*
X91430726Y-79234359D01*
X91432899Y-79233256D01*
X91507030Y-79194265D01*
X91536781Y-79168244D01*
X91529445Y-79140965D01*
X91498553Y-79105121D01*
X91419960Y-79053251D01*
X91335323Y-79049439D01*
X91259403Y-79087189D01*
X91206965Y-79160001D01*
X91191839Y-79240124D01*
X90911678Y-79240124D01*
X90919644Y-79166261D01*
X90968634Y-79025829D01*
G37*
X90968634Y-79025829D02*
X91036836Y-78927447D01*
X91159935Y-78828030D01*
X91295528Y-78778711D01*
X91433955Y-78775568D01*
X91565552Y-78814676D01*
X91680658Y-78892111D01*
X91769611Y-79003949D01*
X91822749Y-79146265D01*
X91833497Y-79251015D01*
X91832276Y-79294726D01*
X91822056Y-79328194D01*
X91793961Y-79358179D01*
X91739116Y-79391440D01*
X91648645Y-79434738D01*
X91513672Y-79494833D01*
X91512989Y-79495134D01*
X91388751Y-79552037D01*
X91286873Y-79602565D01*
X91217767Y-79641280D01*
X91191846Y-79662740D01*
X91191839Y-79662913D01*
X91214685Y-79709644D01*
X91268109Y-79761154D01*
X91329442Y-79798261D01*
X91360515Y-79805632D01*
X91445289Y-79780138D01*
X91518293Y-79716291D01*
X91553913Y-79646094D01*
X91588180Y-79594343D01*
X91655303Y-79535409D01*
X91734208Y-79484496D01*
X91803821Y-79456809D01*
X91818377Y-79455287D01*
X91834763Y-79480321D01*
X91835750Y-79544311D01*
X91823708Y-79630593D01*
X91801007Y-79722501D01*
X91770014Y-79803369D01*
X91768448Y-79806509D01*
X91675181Y-79936734D01*
X91554304Y-80025311D01*
X91417027Y-80068786D01*
X91274560Y-80063706D01*
X91138112Y-80006616D01*
X91132045Y-80002602D01*
X91024710Y-79905326D01*
X90954132Y-79778409D01*
X90915074Y-79611526D01*
X90909832Y-79564639D01*
X90900548Y-79343329D01*
X90911678Y-79240124D01*
X91191839Y-79240124D01*
X91195479Y-79304503D01*
X91215389Y-79323291D01*
X91265026Y-79309235D01*
X91343267Y-79276009D01*
X91430726Y-79234359D01*
X91432899Y-79233256D01*
X91507030Y-79194265D01*
X91536781Y-79168244D01*
X91529445Y-79140965D01*
X91498553Y-79105121D01*
X91419960Y-79053251D01*
X91335323Y-79049439D01*
X91259403Y-79087189D01*
X91206965Y-79160001D01*
X91191839Y-79240124D01*
X90911678Y-79240124D01*
X90919644Y-79166261D01*
X90968634Y-79025829D01*
G36*
X99564406Y-78865156D02*
G01*
X99648469Y-78903393D01*
X99714450Y-78949726D01*
X99762794Y-79001532D01*
X99796172Y-79068363D01*
X99817253Y-79159769D01*
X99828707Y-79285301D01*
X99833203Y-79454508D01*
X99833678Y-79565933D01*
X99833678Y-80000627D01*
X99759316Y-80034509D01*
X99700746Y-80059272D01*
X99671730Y-80068391D01*
X99666179Y-80041257D01*
X99661775Y-79968094D01*
X99659078Y-79861263D01*
X99658506Y-79776437D01*
X99656046Y-79653887D01*
X99649412Y-79556668D01*
X99639726Y-79497134D01*
X99632032Y-79484483D01*
X99580311Y-79497402D01*
X99499117Y-79530539D01*
X99405102Y-79575461D01*
X99314917Y-79623735D01*
X99245215Y-79666928D01*
X99212648Y-79696608D01*
X99212519Y-79696929D01*
X99215320Y-79751857D01*
X99240439Y-79804292D01*
X99284541Y-79846881D01*
X99348909Y-79861126D01*
X99403921Y-79859466D01*
X99481835Y-79858245D01*
X99522732Y-79876498D01*
X99547295Y-79924726D01*
X99550392Y-79933820D01*
X99561040Y-80002598D01*
X99532565Y-80044360D01*
X99458344Y-80064263D01*
X99378168Y-80067944D01*
X99233890Y-80040658D01*
X99159203Y-80001690D01*
X99066963Y-79910148D01*
X99018043Y-79797782D01*
X99013654Y-79679051D01*
X99055001Y-79568411D01*
X99117197Y-79499080D01*
X99179294Y-79460265D01*
X99276895Y-79411125D01*
X99390632Y-79361292D01*
X99409590Y-79353677D01*
X99534521Y-79298545D01*
X99606539Y-79249954D01*
X99629700Y-79201647D01*
X99608064Y-79147370D01*
X99570920Y-79104943D01*
X99483127Y-79052702D01*
X99386530Y-79048784D01*
X99297944Y-79089041D01*
X99234186Y-79169326D01*
X99225817Y-79190040D01*
X99177096Y-79266225D01*
X99105965Y-79322785D01*
X99016207Y-79369201D01*
X99016207Y-79237584D01*
X99021490Y-79157168D01*
X99044142Y-79093786D01*
X99094367Y-79026163D01*
X99142582Y-78974076D01*
X99217554Y-78900322D01*
X99275806Y-78860702D01*
X99338372Y-78844810D01*
X99409193Y-78842184D01*
X99564406Y-78865156D01*
G37*
X99564406Y-78865156D02*
X99648469Y-78903393D01*
X99714450Y-78949726D01*
X99762794Y-79001532D01*
X99796172Y-79068363D01*
X99817253Y-79159769D01*
X99828707Y-79285301D01*
X99833203Y-79454508D01*
X99833678Y-79565933D01*
X99833678Y-80000627D01*
X99759316Y-80034509D01*
X99700746Y-80059272D01*
X99671730Y-80068391D01*
X99666179Y-80041257D01*
X99661775Y-79968094D01*
X99659078Y-79861263D01*
X99658506Y-79776437D01*
X99656046Y-79653887D01*
X99649412Y-79556668D01*
X99639726Y-79497134D01*
X99632032Y-79484483D01*
X99580311Y-79497402D01*
X99499117Y-79530539D01*
X99405102Y-79575461D01*
X99314917Y-79623735D01*
X99245215Y-79666928D01*
X99212648Y-79696608D01*
X99212519Y-79696929D01*
X99215320Y-79751857D01*
X99240439Y-79804292D01*
X99284541Y-79846881D01*
X99348909Y-79861126D01*
X99403921Y-79859466D01*
X99481835Y-79858245D01*
X99522732Y-79876498D01*
X99547295Y-79924726D01*
X99550392Y-79933820D01*
X99561040Y-80002598D01*
X99532565Y-80044360D01*
X99458344Y-80064263D01*
X99378168Y-80067944D01*
X99233890Y-80040658D01*
X99159203Y-80001690D01*
X99066963Y-79910148D01*
X99018043Y-79797782D01*
X99013654Y-79679051D01*
X99055001Y-79568411D01*
X99117197Y-79499080D01*
X99179294Y-79460265D01*
X99276895Y-79411125D01*
X99390632Y-79361292D01*
X99409590Y-79353677D01*
X99534521Y-79298545D01*
X99606539Y-79249954D01*
X99629700Y-79201647D01*
X99608064Y-79147370D01*
X99570920Y-79104943D01*
X99483127Y-79052702D01*
X99386530Y-79048784D01*
X99297944Y-79089041D01*
X99234186Y-79169326D01*
X99225817Y-79190040D01*
X99177096Y-79266225D01*
X99105965Y-79322785D01*
X99016207Y-79369201D01*
X99016207Y-79237584D01*
X99021490Y-79157168D01*
X99044142Y-79093786D01*
X99094367Y-79026163D01*
X99142582Y-78974076D01*
X99217554Y-78900322D01*
X99275806Y-78860702D01*
X99338372Y-78844810D01*
X99409193Y-78842184D01*
X99564406Y-78865156D01*
G36*
X101019359Y-79144853D02*
G01*
X101046894Y-79046916D01*
X101091572Y-78974811D01*
X101156901Y-78917813D01*
X101185383Y-78899393D01*
X101314763Y-78851422D01*
X101456412Y-78848403D01*
X101593439Y-78886540D01*
X101708950Y-78962034D01*
X101764664Y-79029617D01*
X101808804Y-79152255D01*
X101812309Y-79249298D01*
X101804368Y-79379056D01*
X101505115Y-79510039D01*
X101359611Y-79576958D01*
X101264537Y-79630790D01*
X101215101Y-79677416D01*
X101206511Y-79722720D01*
X101233972Y-79772582D01*
X101264253Y-79805632D01*
X101352363Y-79858633D01*
X101448196Y-79862347D01*
X101536212Y-79821041D01*
X101600869Y-79738983D01*
X101612433Y-79710008D01*
X101667825Y-79619509D01*
X101731553Y-79580940D01*
X101818966Y-79547946D01*
X101818966Y-79673034D01*
X101811238Y-79758156D01*
X101780966Y-79829938D01*
X101717518Y-79912356D01*
X101708088Y-79923066D01*
X101637513Y-79996391D01*
X101576847Y-80035742D01*
X101500950Y-80053845D01*
X101438030Y-80059774D01*
X101325487Y-80061251D01*
X101245370Y-80042535D01*
X101195390Y-80014747D01*
X101116838Y-79953641D01*
X101062463Y-79887554D01*
X101028052Y-79804441D01*
X101009388Y-79692254D01*
X101002256Y-79538946D01*
X101001687Y-79461136D01*
X101003622Y-79367853D01*
X101179899Y-79367853D01*
X101181944Y-79417896D01*
X101187039Y-79426092D01*
X101220666Y-79414958D01*
X101293030Y-79385493D01*
X101389747Y-79343601D01*
X101409973Y-79334597D01*
X101532203Y-79272442D01*
X101599547Y-79217815D01*
X101614348Y-79166649D01*
X101578947Y-79114876D01*
X101549711Y-79092000D01*
X101444216Y-79046250D01*
X101345476Y-79053808D01*
X101262812Y-79109651D01*
X101205548Y-79208753D01*
X101187188Y-79287414D01*
X101179899Y-79367853D01*
X101003622Y-79367853D01*
X101005459Y-79279351D01*
X101019359Y-79144853D01*
G37*
X101019359Y-79144853D02*
X101046894Y-79046916D01*
X101091572Y-78974811D01*
X101156901Y-78917813D01*
X101185383Y-78899393D01*
X101314763Y-78851422D01*
X101456412Y-78848403D01*
X101593439Y-78886540D01*
X101708950Y-78962034D01*
X101764664Y-79029617D01*
X101808804Y-79152255D01*
X101812309Y-79249298D01*
X101804368Y-79379056D01*
X101505115Y-79510039D01*
X101359611Y-79576958D01*
X101264537Y-79630790D01*
X101215101Y-79677416D01*
X101206511Y-79722720D01*
X101233972Y-79772582D01*
X101264253Y-79805632D01*
X101352363Y-79858633D01*
X101448196Y-79862347D01*
X101536212Y-79821041D01*
X101600869Y-79738983D01*
X101612433Y-79710008D01*
X101667825Y-79619509D01*
X101731553Y-79580940D01*
X101818966Y-79547946D01*
X101818966Y-79673034D01*
X101811238Y-79758156D01*
X101780966Y-79829938D01*
X101717518Y-79912356D01*
X101708088Y-79923066D01*
X101637513Y-79996391D01*
X101576847Y-80035742D01*
X101500950Y-80053845D01*
X101438030Y-80059774D01*
X101325487Y-80061251D01*
X101245370Y-80042535D01*
X101195390Y-80014747D01*
X101116838Y-79953641D01*
X101062463Y-79887554D01*
X101028052Y-79804441D01*
X101009388Y-79692254D01*
X101002256Y-79538946D01*
X101001687Y-79461136D01*
X101003622Y-79367853D01*
X101179899Y-79367853D01*
X101181944Y-79417896D01*
X101187039Y-79426092D01*
X101220666Y-79414958D01*
X101293030Y-79385493D01*
X101389747Y-79343601D01*
X101409973Y-79334597D01*
X101532203Y-79272442D01*
X101599547Y-79217815D01*
X101614348Y-79166649D01*
X101578947Y-79114876D01*
X101549711Y-79092000D01*
X101444216Y-79046250D01*
X101345476Y-79053808D01*
X101262812Y-79109651D01*
X101205548Y-79208753D01*
X101187188Y-79287414D01*
X101179899Y-79367853D01*
X101003622Y-79367853D01*
X101005459Y-79279351D01*
X101019359Y-79144853D01*
G36*
X102890000Y-126330000D02*
G01*
X101800000Y-124730000D01*
X102900000Y-124730000D01*
X102890000Y-126330000D01*
G37*
X102890000Y-126330000D02*
X101800000Y-124730000D01*
X102900000Y-124730000D01*
X102890000Y-126330000D01*
G36*
X87660000Y-125190000D02*
G01*
X87770000Y-125320000D01*
X87790000Y-125500000D01*
X87750000Y-125660000D01*
X87600000Y-125780000D01*
X87490000Y-125790000D01*
X87150000Y-125790000D01*
X87150000Y-125140000D01*
X87520000Y-125140000D01*
X87660000Y-125190000D01*
G37*
X87660000Y-125190000D02*
X87770000Y-125320000D01*
X87790000Y-125500000D01*
X87750000Y-125660000D01*
X87600000Y-125780000D01*
X87490000Y-125790000D01*
X87150000Y-125790000D01*
X87150000Y-125140000D01*
X87520000Y-125140000D01*
X87660000Y-125190000D01*
G36*
X97790000Y-126330000D02*
G01*
X96700000Y-124730000D01*
X97800000Y-124730000D01*
X97790000Y-126330000D01*
G37*
X97790000Y-126330000D02*
X96700000Y-124730000D01*
X97800000Y-124730000D01*
X97790000Y-126330000D01*
G36*
X104960000Y-126130000D02*
G01*
X104330000Y-126130000D01*
X104640000Y-125260000D01*
X104960000Y-126130000D01*
G37*
X104960000Y-126130000D02*
X104330000Y-126130000D01*
X104640000Y-125260000D01*
X104960000Y-126130000D01*
G36*
X92130000Y-126280000D02*
G01*
X91530000Y-124710000D01*
X92740000Y-124710000D01*
X92130000Y-126280000D01*
G37*
X92130000Y-126280000D02*
X91530000Y-124710000D01*
X92740000Y-124710000D01*
X92130000Y-126280000D01*
G36*
X105050000Y-124730000D02*
G01*
X95170000Y-124740000D01*
X94802600Y-124700900D01*
X94450000Y-124730000D01*
X84650000Y-124730000D01*
X84650000Y-124430000D01*
X82680000Y-124430000D01*
X82710000Y-124030000D01*
X105050000Y-124030000D01*
X105050000Y-124730000D01*
G37*
X105050000Y-124730000D02*
X95170000Y-124740000D01*
X94802600Y-124700900D01*
X94450000Y-124730000D01*
X84650000Y-124730000D01*
X84650000Y-124430000D01*
X82680000Y-124430000D01*
X82710000Y-124030000D01*
X105050000Y-124030000D01*
X105050000Y-124730000D01*
G36*
X95050000Y-125180000D02*
G01*
X95280000Y-125320000D01*
X95430000Y-125530000D01*
X95510000Y-125730000D01*
X95520000Y-125980000D01*
X95450000Y-126230000D01*
X95310000Y-126430000D01*
X95080000Y-126600000D01*
X94820000Y-126650000D01*
X94610000Y-126620000D01*
X94370000Y-126500000D01*
X94170000Y-126270000D01*
X94080000Y-125990000D01*
X94100000Y-125680000D01*
X94200000Y-125450000D01*
X94390000Y-125250000D01*
X94600000Y-125160000D01*
X94796000Y-125136600D01*
X95050000Y-125180000D01*
G37*
X95050000Y-125180000D02*
X95280000Y-125320000D01*
X95430000Y-125530000D01*
X95510000Y-125730000D01*
X95520000Y-125980000D01*
X95450000Y-126230000D01*
X95310000Y-126430000D01*
X95080000Y-126600000D01*
X94820000Y-126650000D01*
X94610000Y-126620000D01*
X94370000Y-126500000D01*
X94170000Y-126270000D01*
X94080000Y-125990000D01*
X94100000Y-125680000D01*
X94200000Y-125450000D01*
X94390000Y-125250000D01*
X94600000Y-125160000D01*
X94796000Y-125136600D01*
X95050000Y-125180000D01*
G36*
X106860000Y-123240000D02*
G01*
X107180000Y-123360000D01*
X107430000Y-123550000D01*
X107600000Y-123840000D01*
X107670000Y-124100000D01*
X107682600Y-124309500D01*
X107682600Y-127207900D01*
X107640000Y-127560000D01*
X107500000Y-127880000D01*
X107210000Y-128150000D01*
X106910000Y-128270000D01*
X106588300Y-128302300D01*
X83776900Y-128302300D01*
X83430000Y-128260000D01*
X83150000Y-128140000D01*
X82870000Y-127880000D01*
X82710000Y-127510000D01*
X82682600Y-127207900D01*
X82682600Y-124309500D01*
X84720000Y-124310000D01*
X84720000Y-125020000D01*
X84770000Y-125120000D01*
X84930000Y-125160000D01*
X85360000Y-125160000D01*
X85360000Y-126910000D01*
X85400000Y-127010000D01*
X85510000Y-127040000D01*
X85810000Y-127040000D01*
X85810000Y-125150000D01*
X86440000Y-125150000D01*
X86440000Y-124730000D01*
X86720000Y-124730000D01*
X86720000Y-126940000D01*
X86790000Y-127020000D01*
X86889300Y-127036200D01*
X87143800Y-127036200D01*
X87143800Y-126189800D01*
X87439600Y-126189800D01*
X87870000Y-127000000D01*
X87980000Y-127040000D01*
X88368700Y-127036200D01*
X87850000Y-126110000D01*
X88090000Y-125930000D01*
X88220000Y-125630000D01*
X88230000Y-125310000D01*
X88050000Y-124940000D01*
X87780000Y-124790000D01*
X87570000Y-124740000D01*
X89340000Y-124740000D01*
X88450000Y-127040000D01*
X88900000Y-127030000D01*
X89080000Y-126530000D01*
X90006900Y-126530300D01*
X90190000Y-126980000D01*
X90280000Y-127040000D01*
X90640000Y-127030000D01*
X89750000Y-124630000D01*
X91150000Y-124630000D01*
X90774300Y-127036200D01*
X91206900Y-127036200D01*
X91410000Y-125480000D01*
X91910000Y-126730000D01*
X91990000Y-126830000D01*
X92100000Y-126850000D01*
X92310900Y-126845200D01*
X92820000Y-125500000D01*
X93020000Y-126910000D01*
X93090000Y-127000000D01*
X93210000Y-127040000D01*
X93480000Y-127040000D01*
X93125500Y-124690000D01*
X94540000Y-124700000D01*
X94150000Y-124890000D01*
X93860000Y-125160000D01*
X93670000Y-125480000D01*
X93610000Y-125950000D01*
X93650000Y-126280000D01*
X93830000Y-126580000D01*
X94090000Y-126870000D01*
X94520000Y-127060000D01*
X95000000Y-127060000D01*
X95380000Y-126930000D01*
X95670000Y-126700000D01*
X95910000Y-126330000D01*
X96000000Y-125800000D01*
X95860000Y-125340000D01*
X95610000Y-125000000D01*
X95150000Y-124730000D01*
X96275500Y-124742100D01*
X96280000Y-126870000D01*
X96310000Y-127000000D01*
X96400000Y-127030000D01*
X96690000Y-127030000D01*
X96690000Y-125460000D01*
X97780000Y-126990000D01*
X97900000Y-127040000D01*
X98200000Y-127030000D01*
X98200000Y-124710000D01*
X98490000Y-124710000D01*
X98490000Y-125060000D01*
X98550000Y-125130000D01*
X98680000Y-125150000D01*
X99120000Y-125150000D01*
X99120000Y-126930000D01*
X99150000Y-126990000D01*
X99210000Y-127020000D01*
X99288800Y-127036200D01*
X99570000Y-127030000D01*
X99570000Y-125150000D01*
X100200000Y-125150000D01*
X100198900Y-124742100D01*
X100491800Y-124742100D01*
X100500000Y-126920000D01*
X100540000Y-127000000D01*
X100620000Y-127030000D01*
X100940000Y-127030000D01*
X100940000Y-124740000D01*
X101379500Y-124742100D01*
X101380000Y-126930000D01*
X101440000Y-127020000D01*
X101560000Y-127040000D01*
X101796000Y-127036200D01*
X101800000Y-125450000D01*
X102830000Y-126930000D01*
X102980000Y-127020000D01*
X103080000Y-127040000D01*
X103320000Y-127030000D01*
X103320000Y-124700000D01*
X104440000Y-124700000D01*
X103560000Y-127030000D01*
X104000000Y-127030000D01*
X104190000Y-126520000D01*
X105110000Y-126540000D01*
X105270000Y-126950000D01*
X105340000Y-127010000D01*
X105450000Y-127040000D01*
X105754200Y-127036200D01*
X104870000Y-124750000D01*
X104870000Y-124110000D01*
X82690000Y-124090000D01*
X82860000Y-123650000D01*
X83140000Y-123380000D01*
X83540000Y-123220000D01*
X83776900Y-123214900D01*
X106588300Y-123214900D01*
X106860000Y-123240000D01*
G37*
X106860000Y-123240000D02*
X107180000Y-123360000D01*
X107430000Y-123550000D01*
X107600000Y-123840000D01*
X107670000Y-124100000D01*
X107682600Y-124309500D01*
X107682600Y-127207900D01*
X107640000Y-127560000D01*
X107500000Y-127880000D01*
X107210000Y-128150000D01*
X106910000Y-128270000D01*
X106588300Y-128302300D01*
X83776900Y-128302300D01*
X83430000Y-128260000D01*
X83150000Y-128140000D01*
X82870000Y-127880000D01*
X82710000Y-127510000D01*
X82682600Y-127207900D01*
X82682600Y-124309500D01*
X84720000Y-124310000D01*
X84720000Y-125020000D01*
X84770000Y-125120000D01*
X84930000Y-125160000D01*
X85360000Y-125160000D01*
X85360000Y-126910000D01*
X85400000Y-127010000D01*
X85510000Y-127040000D01*
X85810000Y-127040000D01*
X85810000Y-125150000D01*
X86440000Y-125150000D01*
X86440000Y-124730000D01*
X86720000Y-124730000D01*
X86720000Y-126940000D01*
X86790000Y-127020000D01*
X86889300Y-127036200D01*
X87143800Y-127036200D01*
X87143800Y-126189800D01*
X87439600Y-126189800D01*
X87870000Y-127000000D01*
X87980000Y-127040000D01*
X88368700Y-127036200D01*
X87850000Y-126110000D01*
X88090000Y-125930000D01*
X88220000Y-125630000D01*
X88230000Y-125310000D01*
X88050000Y-124940000D01*
X87780000Y-124790000D01*
X87570000Y-124740000D01*
X89340000Y-124740000D01*
X88450000Y-127040000D01*
X88900000Y-127030000D01*
X89080000Y-126530000D01*
X90006900Y-126530300D01*
X90190000Y-126980000D01*
X90280000Y-127040000D01*
X90640000Y-127030000D01*
X89750000Y-124630000D01*
X91150000Y-124630000D01*
X90774300Y-127036200D01*
X91206900Y-127036200D01*
X91410000Y-125480000D01*
X91910000Y-126730000D01*
X91990000Y-126830000D01*
X92100000Y-126850000D01*
X92310900Y-126845200D01*
X92820000Y-125500000D01*
X93020000Y-126910000D01*
X93090000Y-127000000D01*
X93210000Y-127040000D01*
X93480000Y-127040000D01*
X93125500Y-124690000D01*
X94540000Y-124700000D01*
X94150000Y-124890000D01*
X93860000Y-125160000D01*
X93670000Y-125480000D01*
X93610000Y-125950000D01*
X93650000Y-126280000D01*
X93830000Y-126580000D01*
X94090000Y-126870000D01*
X94520000Y-127060000D01*
X95000000Y-127060000D01*
X95380000Y-126930000D01*
X95670000Y-126700000D01*
X95910000Y-126330000D01*
X96000000Y-125800000D01*
X95860000Y-125340000D01*
X95610000Y-125000000D01*
X95150000Y-124730000D01*
X96275500Y-124742100D01*
X96280000Y-126870000D01*
X96310000Y-127000000D01*
X96400000Y-127030000D01*
X96690000Y-127030000D01*
X96690000Y-125460000D01*
X97780000Y-126990000D01*
X97900000Y-127040000D01*
X98200000Y-127030000D01*
X98200000Y-124710000D01*
X98490000Y-124710000D01*
X98490000Y-125060000D01*
X98550000Y-125130000D01*
X98680000Y-125150000D01*
X99120000Y-125150000D01*
X99120000Y-126930000D01*
X99150000Y-126990000D01*
X99210000Y-127020000D01*
X99288800Y-127036200D01*
X99570000Y-127030000D01*
X99570000Y-125150000D01*
X100200000Y-125150000D01*
X100198900Y-124742100D01*
X100491800Y-124742100D01*
X100500000Y-126920000D01*
X100540000Y-127000000D01*
X100620000Y-127030000D01*
X100940000Y-127030000D01*
X100940000Y-124740000D01*
X101379500Y-124742100D01*
X101380000Y-126930000D01*
X101440000Y-127020000D01*
X101560000Y-127040000D01*
X101796000Y-127036200D01*
X101800000Y-125450000D01*
X102830000Y-126930000D01*
X102980000Y-127020000D01*
X103080000Y-127040000D01*
X103320000Y-127030000D01*
X103320000Y-124700000D01*
X104440000Y-124700000D01*
X103560000Y-127030000D01*
X104000000Y-127030000D01*
X104190000Y-126520000D01*
X105110000Y-126540000D01*
X105270000Y-126950000D01*
X105340000Y-127010000D01*
X105450000Y-127040000D01*
X105754200Y-127036200D01*
X104870000Y-124750000D01*
X104870000Y-124110000D01*
X82690000Y-124090000D01*
X82860000Y-123650000D01*
X83140000Y-123380000D01*
X83540000Y-123220000D01*
X83776900Y-123214900D01*
X106588300Y-123214900D01*
X106860000Y-123240000D01*
G36*
X89860000Y-126120000D02*
G01*
X89230000Y-126120000D01*
X89540000Y-125250000D01*
X89860000Y-126120000D01*
G37*
X89860000Y-126120000D02*
X89230000Y-126120000D01*
X89540000Y-125250000D01*
X89860000Y-126120000D01*
D16*
X90774300Y-127036200D02*
X91206900Y-127036200D01*
X104647200Y-125235200D02*
X104968000Y-126129500D01*
X99113600Y-126860900D02*
X99117611Y-126912914D01*
X99133302Y-126962717D01*
X99167248Y-127004110D01*
X99218811Y-127028320D01*
X99277642Y-127036041D01*
X99288800Y-127036200D01*
X91534700Y-124742100D02*
X91130800Y-124742100D01*
X98206900Y-127036200D02*
X98206900Y-124742100D01*
X85355400Y-126860900D02*
X85359399Y-126912914D01*
X85375055Y-126962717D01*
X85408965Y-127004110D01*
X85460531Y-127028320D01*
X85519425Y-127036041D01*
X85530600Y-127036200D01*
X101379500Y-124742100D02*
X101379500Y-126860900D01*
X85530600Y-127036200D02*
X85807400Y-127036200D01*
X87789600Y-125470800D02*
X87784908Y-125537006D01*
X87771512Y-125594479D01*
X87750435Y-125643704D01*
X87712145Y-125697346D01*
X87664433Y-125738336D01*
X87609718Y-125767825D01*
X87550420Y-125786962D01*
X87488959Y-125796896D01*
X87442900Y-125799000D01*
X88024600Y-127036200D02*
X88368700Y-127036200D01*
X88451100Y-127036200D02*
X88900000Y-127036200D01*
X87843800Y-126107500D02*
X87906259Y-126073086D01*
X87964587Y-126032877D01*
X88018345Y-125987088D01*
X88067093Y-125935935D01*
X88110391Y-125879635D01*
X88147801Y-125818404D01*
X88178882Y-125752457D01*
X88203195Y-125682010D01*
X88215427Y-125632653D01*
X88224325Y-125581456D01*
X88229759Y-125528484D01*
X88231600Y-125473800D01*
X88368700Y-127036200D02*
X87843800Y-126107500D01*
X99288800Y-127036200D02*
X99565600Y-127036200D01*
X90650100Y-127036200D02*
X89765200Y-124742100D01*
X98655500Y-125152300D02*
X99113600Y-125152300D01*
X99113600Y-125152300D02*
X99113600Y-126860900D01*
X96275500Y-124742100D02*
X96275500Y-126860900D01*
X99565600Y-125152300D02*
X100198900Y-125152300D01*
X102792000Y-126877000D02*
X102829141Y-126925722D01*
X102866892Y-126964749D01*
X102914412Y-126999612D01*
X102965993Y-127022378D01*
X103023370Y-127034063D01*
X103065700Y-127036200D01*
X83776900Y-128302300D02*
X83715569Y-128301040D01*
X83655615Y-128297285D01*
X83597074Y-128291073D01*
X83539985Y-128282439D01*
X83484384Y-128271422D01*
X83430309Y-128258057D01*
X83377798Y-128242383D01*
X83326887Y-128224435D01*
X83277615Y-128204252D01*
X83230018Y-128181869D01*
X83184135Y-128157324D01*
X83140002Y-128130654D01*
X83097657Y-128101896D01*
X83057137Y-128071087D01*
X83018481Y-128038263D01*
X82981725Y-128003462D01*
X82946906Y-127966721D01*
X82914062Y-127928076D01*
X82883231Y-127887565D01*
X82854450Y-127845224D01*
X82827757Y-127801091D01*
X82803188Y-127755203D01*
X82780781Y-127707596D01*
X82760575Y-127658307D01*
X82742605Y-127607374D01*
X82726910Y-127554833D01*
X82713526Y-127500722D01*
X82702492Y-127445077D01*
X82693845Y-127387935D01*
X82687623Y-127329334D01*
X82683862Y-127269310D01*
X82682600Y-127207900D01*
X91206900Y-127036200D02*
X91413600Y-125461400D01*
X82682600Y-124309500D02*
X82683862Y-124248133D01*
X82687623Y-124188145D01*
X82693845Y-124129574D01*
X82702492Y-124072457D01*
X82713526Y-124016831D01*
X82726910Y-123962733D01*
X82742605Y-123910201D01*
X82760575Y-123859271D01*
X82780781Y-123809983D01*
X82803188Y-123762371D01*
X82827757Y-123716475D01*
X82854450Y-123672331D01*
X82883231Y-123629977D01*
X82914062Y-123589449D01*
X82946906Y-123550786D01*
X82981725Y-123514025D01*
X83018481Y-123479202D01*
X83057137Y-123446355D01*
X83097657Y-123415522D01*
X83140002Y-123386740D01*
X83184135Y-123360046D01*
X83230018Y-123335477D01*
X83277615Y-123313071D01*
X83326887Y-123292865D01*
X83377798Y-123274897D01*
X83430309Y-123259203D01*
X83484384Y-123245821D01*
X83539985Y-123234789D01*
X83597074Y-123226143D01*
X83655615Y-123219922D01*
X83715569Y-123216161D01*
X83776900Y-123214900D01*
X89864200Y-126129500D02*
X89221500Y-126129500D01*
X100942900Y-124742100D02*
X100491800Y-124742100D01*
X94796000Y-125136600D02*
X94869664Y-125140525D01*
X94941239Y-125152039D01*
X95010357Y-125170750D01*
X95076650Y-125196268D01*
X95139750Y-125228201D01*
X95199291Y-125266157D01*
X95254905Y-125309746D01*
X95306225Y-125358575D01*
X95352882Y-125412253D01*
X95394511Y-125470389D01*
X95430744Y-125532591D01*
X95461212Y-125598468D01*
X95485549Y-125667629D01*
X95503388Y-125739682D01*
X95514360Y-125814236D01*
X95518100Y-125890900D01*
X95982700Y-125887699D02*
X95981164Y-125826886D01*
X95976607Y-125766842D01*
X95969103Y-125707643D01*
X95958726Y-125649365D01*
X95945550Y-125592084D01*
X95929649Y-125535877D01*
X95911097Y-125480820D01*
X95889968Y-125426988D01*
X95866337Y-125374459D01*
X95840278Y-125323308D01*
X95811864Y-125273611D01*
X95781170Y-125225445D01*
X95748270Y-125178886D01*
X95713238Y-125134010D01*
X95676148Y-125090893D01*
X95637075Y-125049612D01*
X95596091Y-125010242D01*
X95553273Y-124972860D01*
X95508693Y-124937542D01*
X95462426Y-124904364D01*
X95414546Y-124873403D01*
X95365127Y-124844734D01*
X95314243Y-124818434D01*
X95261968Y-124794579D01*
X95208377Y-124773245D01*
X95153543Y-124754509D01*
X95097541Y-124738446D01*
X95040445Y-124725132D01*
X94982328Y-124714645D01*
X94923266Y-124707059D01*
X94863332Y-124702452D01*
X94802600Y-124700900D01*
X102893400Y-126365000D02*
X101786600Y-124742100D01*
X93217800Y-127036200D02*
X93482200Y-127036200D01*
X85807400Y-127036200D02*
X85807400Y-125152300D01*
X87481100Y-124742100D02*
X86714300Y-124742100D01*
X90341100Y-127036200D02*
X90650100Y-127036200D01*
X89329300Y-124742100D02*
X88451100Y-127036200D01*
X101796000Y-127036200D02*
X101796000Y-125442000D01*
X104325700Y-126129500D02*
X104647200Y-125235200D01*
X101796000Y-125442000D02*
X102792000Y-126877000D01*
X96275500Y-126860900D02*
X96279499Y-126912914D01*
X96295155Y-126962717D01*
X96329065Y-127004110D01*
X96380631Y-127028320D01*
X96439525Y-127036041D01*
X96450700Y-127036200D01*
X84722000Y-124977700D02*
X84726024Y-125029368D01*
X84741752Y-125078926D01*
X84775749Y-125120204D01*
X84827339Y-125144404D01*
X84886151Y-125152141D01*
X84897300Y-125152300D01*
X101379500Y-126860900D02*
X101383509Y-126912914D01*
X101399177Y-126962717D01*
X101433041Y-127004110D01*
X101484425Y-127028320D01*
X101542997Y-127036041D01*
X101554100Y-127036200D01*
X88231600Y-125473800D02*
X88227958Y-125391144D01*
X88217222Y-125312672D01*
X88199676Y-125238541D01*
X88175604Y-125168910D01*
X88145290Y-125103939D01*
X88109018Y-125043784D01*
X88067073Y-124988606D01*
X88019737Y-124938562D01*
X87967295Y-124893812D01*
X87910032Y-124854513D01*
X87848231Y-124820826D01*
X87782176Y-124792907D01*
X87712151Y-124770917D01*
X87638441Y-124755013D01*
X87561329Y-124745354D01*
X87481100Y-124742100D01*
X94789400Y-127077700D02*
X94850504Y-127076164D01*
X94910840Y-127071605D01*
X94970332Y-127064095D01*
X95028903Y-127053707D01*
X95086475Y-127040512D01*
X95142972Y-127024583D01*
X95198318Y-127005993D01*
X95252434Y-126984814D01*
X95305244Y-126961117D01*
X95356672Y-126934975D01*
X95406641Y-126906462D01*
X95455073Y-126875648D01*
X95501891Y-126842606D01*
X95547020Y-126807409D01*
X95590382Y-126770128D01*
X95631900Y-126730837D01*
X95671497Y-126689607D01*
X95709096Y-126646511D01*
X95744621Y-126601621D01*
X95777995Y-126555009D01*
X95809141Y-126506748D01*
X95837981Y-126456910D01*
X95864440Y-126405567D01*
X95888440Y-126352791D01*
X95909904Y-126298656D01*
X95928756Y-126243233D01*
X95944919Y-126186594D01*
X95958315Y-126128812D01*
X95968868Y-126069959D01*
X95976501Y-126010108D01*
X95981137Y-125949330D01*
X95982700Y-125887699D01*
X105239000Y-126880300D02*
X105263196Y-126933603D01*
X105293353Y-126975682D01*
X105336929Y-127010725D01*
X105390519Y-127030793D01*
X105445200Y-127036200D01*
X94796000Y-126641500D02*
X94722287Y-126637611D01*
X94650749Y-126626199D01*
X94581743Y-126607647D01*
X94515623Y-126582339D01*
X94452746Y-126550655D01*
X94393469Y-126512981D01*
X94338147Y-126469697D01*
X94287137Y-126421187D01*
X94240794Y-126367834D01*
X94199475Y-126310020D01*
X94163536Y-126248128D01*
X94133332Y-126182542D01*
X94109221Y-126113643D01*
X94091558Y-126041814D01*
X94080698Y-125967439D01*
X94077000Y-125890900D01*
X92826100Y-125486500D02*
X93010800Y-126867600D01*
X98480500Y-124977700D02*
X98484498Y-125029368D01*
X98500147Y-125078926D01*
X98534030Y-125120204D01*
X98585535Y-125144404D01*
X98644343Y-125152141D01*
X98655500Y-125152300D01*
X86714300Y-126860900D02*
X86718286Y-126912914D01*
X86733900Y-126962717D01*
X86767746Y-127004110D01*
X86819255Y-127028320D01*
X86878125Y-127036041D01*
X86889300Y-127036200D01*
X91881300Y-126679900D02*
X91903983Y-126727921D01*
X91936149Y-126774544D01*
X91974561Y-126809299D01*
X92020114Y-126832329D01*
X92073707Y-126843775D01*
X92103800Y-126845200D01*
X87143800Y-127036200D02*
X87143800Y-126189800D01*
X84722000Y-124742100D02*
X84722000Y-124977700D01*
X103555200Y-127036200D02*
X104004200Y-127036200D01*
X104968000Y-126129500D02*
X104325700Y-126129500D01*
X105445200Y-127036200D02*
X105754200Y-127036200D01*
X89078000Y-126530300D02*
X90006900Y-126530300D01*
X105111300Y-126530300D02*
X105239000Y-126880300D01*
X87442900Y-125136600D02*
X87504395Y-125140382D01*
X87565542Y-125152551D01*
X87623921Y-125174341D01*
X87677112Y-125206987D01*
X87722695Y-125251722D01*
X87750435Y-125293948D01*
X87771512Y-125344190D01*
X87784908Y-125402967D01*
X87789600Y-125470800D01*
X87143800Y-125136600D02*
X87442900Y-125136600D01*
X96682600Y-124742100D02*
X96275500Y-124742100D01*
X104869900Y-124742100D02*
X104433700Y-124742100D01*
X82682600Y-127207900D02*
X82682600Y-124309500D01*
X89221500Y-126129500D02*
X89542500Y-125235200D01*
X87143800Y-125799000D02*
X87143800Y-125136600D01*
X102893400Y-124742100D02*
X102893400Y-126365000D01*
X97790000Y-126365000D02*
X96682600Y-124742100D01*
X103310800Y-127036200D02*
X103310800Y-124742100D01*
X87805300Y-126906000D02*
X87833976Y-126953441D01*
X87873233Y-126993994D01*
X87920389Y-127020158D01*
X87977178Y-127033552D01*
X88024600Y-127036200D01*
X92103800Y-126845200D02*
X92310900Y-126845200D01*
X99565600Y-127036200D02*
X99565600Y-125152300D01*
X91130800Y-124742100D02*
X90774300Y-127036200D01*
X87442900Y-125799000D02*
X87143800Y-125799000D01*
X100198900Y-125152300D02*
X100198900Y-124742100D01*
X98480500Y-124742100D02*
X98480500Y-124977700D01*
X107682600Y-127207900D02*
X107681337Y-127269310D01*
X107677573Y-127329334D01*
X107671346Y-127387935D01*
X107662694Y-127445077D01*
X107651654Y-127500722D01*
X107638264Y-127554833D01*
X107622561Y-127607374D01*
X107604582Y-127658307D01*
X107584366Y-127707596D01*
X107561951Y-127755203D01*
X107537373Y-127801091D01*
X107510670Y-127845224D01*
X107481880Y-127887565D01*
X107451040Y-127928076D01*
X107418188Y-127966721D01*
X107383362Y-128003462D01*
X107346599Y-128038263D01*
X107307937Y-128071087D01*
X107267413Y-128101896D01*
X107225065Y-128130654D01*
X107180931Y-128157324D01*
X107135048Y-128181869D01*
X107087454Y-128204252D01*
X107038185Y-128224435D01*
X106987281Y-128242383D01*
X106934779Y-128258057D01*
X106880715Y-128271422D01*
X106825128Y-128282439D01*
X106768056Y-128291073D01*
X106709535Y-128297285D01*
X106649604Y-128301040D01*
X106588300Y-128302300D01*
X83776900Y-123214900D02*
X106588300Y-123214900D01*
X87439600Y-126189800D02*
X87805300Y-126906000D01*
X85355400Y-125152300D02*
X85355400Y-126860900D01*
X84897300Y-125152300D02*
X85355400Y-125152300D01*
X94802600Y-124700900D02*
X94741478Y-124702443D01*
X94681146Y-124707026D01*
X94621679Y-124714573D01*
X94563152Y-124725012D01*
X94505640Y-124738270D01*
X94449220Y-124754273D01*
X94393966Y-124772947D01*
X94339954Y-124794220D01*
X94287260Y-124818018D01*
X94235959Y-124844267D01*
X94186127Y-124872894D01*
X94137839Y-124903827D01*
X94091170Y-124936990D01*
X94046197Y-124972312D01*
X94002994Y-125009719D01*
X93961637Y-125049137D01*
X93922202Y-125090493D01*
X93884764Y-125133714D01*
X93849398Y-125178725D01*
X93816181Y-125225455D01*
X93785187Y-125273829D01*
X93756492Y-125323775D01*
X93730171Y-125375218D01*
X93706301Y-125428085D01*
X93684956Y-125482304D01*
X93666213Y-125537800D01*
X93650145Y-125594501D01*
X93636830Y-125652332D01*
X93626342Y-125711221D01*
X93618758Y-125771094D01*
X93614152Y-125831878D01*
X93612600Y-125893500D01*
X93612600Y-125893500D02*
X93614124Y-125954314D01*
X93618648Y-126014344D01*
X93626100Y-126073514D01*
X93636407Y-126131751D01*
X93649496Y-126188977D01*
X93665294Y-126245119D01*
X93683730Y-126300100D01*
X93704731Y-126353846D01*
X93728223Y-126406282D01*
X93754135Y-126457332D01*
X93782394Y-126506922D01*
X93812927Y-126554975D01*
X93845661Y-126601417D01*
X93880525Y-126646173D01*
X93917445Y-126689167D01*
X93956350Y-126730325D01*
X93997165Y-126769570D01*
X94039819Y-126806829D01*
X94084239Y-126842025D01*
X94130353Y-126875083D01*
X94178088Y-126905930D01*
X94227372Y-126934488D01*
X94278131Y-126960683D01*
X94330293Y-126984440D01*
X94383786Y-127005684D01*
X94438537Y-127024339D01*
X94494474Y-127040330D01*
X94551524Y-127053583D01*
X94609614Y-127064021D01*
X94668671Y-127071570D01*
X94728624Y-127076155D01*
X94789400Y-127077700D01*
X100491800Y-126860900D02*
X100495796Y-126912914D01*
X100511427Y-126962717D01*
X100545241Y-127004110D01*
X100596597Y-127028320D01*
X100655188Y-127036041D01*
X100666300Y-127036200D01*
X100491800Y-124742100D02*
X100491800Y-126860900D01*
X103310800Y-124742100D02*
X102893400Y-124742100D01*
X93482200Y-127036200D02*
X93125500Y-124742100D01*
X86440700Y-124742100D02*
X84722000Y-124742100D01*
X106588300Y-128302300D02*
X83776900Y-128302300D01*
X103065700Y-127036200D02*
X103310800Y-127036200D01*
X100666300Y-127036200D02*
X100942900Y-127036200D01*
X104182700Y-126530300D02*
X105111300Y-126530300D01*
X100198900Y-124742100D02*
X98480500Y-124742100D01*
X106588300Y-123214900D02*
X106649604Y-123216161D01*
X106709535Y-123219922D01*
X106768056Y-123226143D01*
X106825128Y-123234789D01*
X106880715Y-123245821D01*
X106934779Y-123259203D01*
X106987281Y-123274897D01*
X107038185Y-123292865D01*
X107087454Y-123313071D01*
X107135048Y-123335477D01*
X107180931Y-123360046D01*
X107225065Y-123386740D01*
X107267413Y-123415522D01*
X107307937Y-123446355D01*
X107346599Y-123479202D01*
X107383362Y-123514025D01*
X107418188Y-123550786D01*
X107451040Y-123589449D01*
X107481880Y-123629977D01*
X107510670Y-123672331D01*
X107537373Y-123716475D01*
X107561951Y-123762371D01*
X107584366Y-123809983D01*
X107604582Y-123859271D01*
X107622561Y-123910201D01*
X107638264Y-123962733D01*
X107651654Y-124016831D01*
X107662694Y-124072457D01*
X107671346Y-124129574D01*
X107677573Y-124188145D01*
X107681337Y-124248133D01*
X107682600Y-124309500D01*
X89765200Y-124742100D02*
X89329300Y-124742100D01*
X91413600Y-125461400D02*
X91881300Y-126679900D01*
X86440700Y-125152300D02*
X86440700Y-124742100D01*
X96692600Y-127036200D02*
X96692600Y-125442000D01*
X94077000Y-125890900D02*
X94080698Y-125814236D01*
X94091558Y-125739682D01*
X94109221Y-125667629D01*
X94133332Y-125598468D01*
X94163536Y-125532591D01*
X94199475Y-125470389D01*
X94240794Y-125412253D01*
X94287137Y-125358575D01*
X94338147Y-125309746D01*
X94393469Y-125266157D01*
X94452746Y-125228201D01*
X94515623Y-125196268D01*
X94581743Y-125170750D01*
X94650749Y-125152039D01*
X94722287Y-125140525D01*
X94796000Y-125136600D01*
X86714300Y-124742100D02*
X86714300Y-126860900D01*
X97688600Y-126877000D02*
X97725740Y-126925722D01*
X97763483Y-126964749D01*
X97810975Y-126999612D01*
X97862495Y-127022378D01*
X97919769Y-127034063D01*
X97962000Y-127036200D01*
X90006900Y-126530300D02*
X90134500Y-126880300D01*
X96450700Y-127036200D02*
X96692600Y-127036200D01*
X87143800Y-126189800D02*
X87439600Y-126189800D01*
X105754200Y-127036200D02*
X104869900Y-124742100D01*
X85807400Y-125152300D02*
X86440700Y-125152300D01*
X98206900Y-124742100D02*
X97790000Y-124742100D01*
X101554100Y-127036200D02*
X101796000Y-127036200D01*
X97790000Y-124742100D02*
X97790000Y-126365000D01*
X86889300Y-127036200D02*
X87143800Y-127036200D01*
X88900000Y-127036200D02*
X89078000Y-126530300D01*
X95518100Y-125890900D02*
X95514360Y-125967439D01*
X95503388Y-126041814D01*
X95485549Y-126113643D01*
X95461212Y-126182542D01*
X95430744Y-126248128D01*
X95394511Y-126310020D01*
X95352882Y-126367834D01*
X95306225Y-126421187D01*
X95254905Y-126469697D01*
X95199291Y-126512981D01*
X95139750Y-126550655D01*
X95076650Y-126582339D01*
X95010357Y-126607647D01*
X94941239Y-126626199D01*
X94869664Y-126637611D01*
X94796000Y-126641500D01*
X97962000Y-127036200D02*
X98206900Y-127036200D01*
X96692600Y-125442000D02*
X97688600Y-126877000D01*
X92129800Y-126300900D02*
X91534700Y-124742100D01*
X104433700Y-124742100D02*
X103555200Y-127036200D01*
X107682600Y-124309500D02*
X107682600Y-127207900D01*
X92310900Y-126845200D02*
X92826100Y-125486500D01*
X90134500Y-126880300D02*
X90158770Y-126933603D01*
X90189023Y-126975682D01*
X90232714Y-127010725D01*
X90286391Y-127030793D01*
X90341100Y-127036200D01*
X89542500Y-125235200D02*
X89864200Y-126129500D01*
X93010800Y-126867600D02*
X93023184Y-126918874D01*
X93050023Y-126967187D01*
X93087970Y-127001990D01*
X93134946Y-127024245D01*
X93188876Y-127034911D01*
X93217800Y-127036200D01*
X100942900Y-127036200D02*
X100942900Y-124742100D01*
X93125500Y-124742100D02*
X92724700Y-124742100D01*
X101786600Y-124742100D02*
X101379500Y-124742100D01*
X104004200Y-127036200D02*
X104182700Y-126530300D01*
X92724700Y-124742100D02*
X92129800Y-126300900D01*
D17*
X81050000Y-118195000D02*
X81050000Y-92625000D01*
X81050000Y-118195000D02*
X109450000Y-118195000D01*
X109450000Y-118195000D02*
X109450000Y-92625000D01*
X109450000Y-92625000D02*
X81050000Y-92625000D01*
G36*
X80645000Y-93980000D02*
G01*
X80010000Y-94615000D01*
X80010000Y-93345000D01*
X80645000Y-93980000D01*
G37*
D11*
X80645000Y-93980000D02*
X80010000Y-94615000D01*
X80010000Y-93345000D01*
X80645000Y-93980000D01*
D17*
X162540000Y-96520000D02*
X162540000Y-94570000D01*
X162540000Y-96520000D02*
X162540000Y-99970000D01*
X167660000Y-96520000D02*
X167660000Y-98470000D01*
X167660000Y-96520000D02*
X167660000Y-94570000D01*
X172185000Y-96573748D02*
X172185000Y-97096252D01*
X170715000Y-96573748D02*
X170715000Y-97096252D01*
X73342500Y-71020000D02*
X71057500Y-71020000D01*
X71057500Y-72490000D02*
X73342500Y-72490000D01*
X71057500Y-71020000D02*
X71057500Y-72490000D01*
X132040000Y-108051000D02*
X142280000Y-108051000D01*
X132040000Y-104920000D02*
X142280000Y-104920000D01*
X132040000Y-103410000D02*
X142280000Y-103410000D01*
X135310000Y-103410000D02*
X135310000Y-104920000D01*
X142280000Y-103410000D02*
X142280000Y-108051000D01*
X139011000Y-103410000D02*
X139011000Y-104920000D01*
X132040000Y-103410000D02*
X132040000Y-108051000D01*
X84355000Y-90039564D02*
X84355000Y-89585436D01*
X85825000Y-90039564D02*
X85825000Y-89585436D01*
X140586000Y-80128000D02*
X140693000Y-80021000D01*
X138167000Y-77466000D02*
X138547000Y-77086000D01*
X144840000Y-84700000D02*
X144840000Y-73380000D01*
X125346000Y-80128000D02*
X125741000Y-79732000D01*
X144840000Y-76440000D02*
X114240000Y-76440000D01*
X120266000Y-80128000D02*
X120661000Y-79732000D01*
X118098000Y-77748000D02*
X118493000Y-77352000D01*
X120532000Y-80394000D02*
X120912000Y-80014000D01*
X145080000Y-73880000D02*
X145080000Y-73140000D01*
X140852000Y-80394000D02*
X140959000Y-80287000D01*
X144840000Y-84700000D02*
X114240000Y-84700000D01*
X135772000Y-80394000D02*
X136152000Y-80014000D01*
X144840000Y-73380000D02*
X114240000Y-73380000D01*
X143522000Y-77193000D02*
X143628000Y-77086000D01*
X123178000Y-77748000D02*
X123573000Y-77352000D01*
X130426000Y-80128000D02*
X130821000Y-79732000D01*
X115452000Y-80394000D02*
X115832000Y-80014000D01*
X144840000Y-73940000D02*
X114240000Y-73940000D01*
X143788000Y-77459000D02*
X143894000Y-77352000D01*
X114240000Y-84700000D02*
X114240000Y-73380000D01*
X144840000Y-82640000D02*
X114240000Y-82640000D01*
X145080000Y-73140000D02*
X144580000Y-73140000D01*
X128007000Y-77466000D02*
X128387000Y-77086000D01*
X117847000Y-77466000D02*
X118227000Y-77086000D01*
X135506000Y-80128000D02*
X135901000Y-79732000D01*
X128258000Y-77748000D02*
X128653000Y-77352000D01*
X133087000Y-77466000D02*
X133467000Y-77086000D01*
X125612000Y-80394000D02*
X125992000Y-80014000D01*
X138418000Y-77748000D02*
X138813000Y-77352000D01*
X130692000Y-80394000D02*
X131072000Y-80014000D01*
X115186000Y-80128000D02*
X115581000Y-79732000D01*
X122927000Y-77466000D02*
X123307000Y-77086000D01*
X133338000Y-77748000D02*
X133733000Y-77352000D01*
X119020000Y-78740000D02*
G75*
G03*
X119020000Y-78740000I-2180000J0D01*
G01*
X139340000Y-78740000D02*
G75*
G03*
X139340000Y-78740000I-2180000J0D01*
G01*
X129180000Y-78740000D02*
G75*
G03*
X129180000Y-78740000I-2180000J0D01*
G01*
X134260000Y-78740000D02*
G75*
G03*
X134260000Y-78740000I-2180000J0D01*
G01*
X124100000Y-78740000D02*
G75*
G03*
X124100000Y-78740000I-2180000J0D01*
G01*
X144420000Y-78740000D02*
G75*
G03*
X144420000Y-78740000I-2180000J0D01*
G01*
X132060000Y-96520000D02*
X132060000Y-99970000D01*
X137180000Y-96520000D02*
X137180000Y-94570000D01*
X132060000Y-96520000D02*
X132060000Y-94570000D01*
X137180000Y-96520000D02*
X137180000Y-98470000D01*
X130124564Y-107415000D02*
X129670436Y-107415000D01*
X130124564Y-105945000D02*
X129670436Y-105945000D01*
X117575000Y-99636252D02*
X117575000Y-99113748D01*
X116105000Y-99636252D02*
X116105000Y-99113748D01*
X116800000Y-103410000D02*
X116800000Y-108051000D01*
X123771000Y-103410000D02*
X123771000Y-104920000D01*
X116800000Y-103410000D02*
X127040000Y-103410000D01*
X127040000Y-103410000D02*
X127040000Y-108051000D01*
X116800000Y-108051000D02*
X127040000Y-108051000D01*
X116800000Y-104920000D02*
X127040000Y-104920000D01*
X120070000Y-103410000D02*
X120070000Y-104920000D01*
X69315000Y-93290000D02*
X69315000Y-94790000D01*
X75945000Y-94790000D02*
X75945000Y-95890000D01*
X76215000Y-93290000D02*
X76215000Y-94790000D01*
X76215000Y-94790000D02*
X75945000Y-94790000D01*
X69315000Y-94790000D02*
X69585000Y-94790000D01*
X69585000Y-94790000D02*
X69585000Y-97620000D01*
X120630000Y-99060000D02*
X120630000Y-97110000D01*
X125750000Y-99060000D02*
X125750000Y-101010000D01*
X125750000Y-99060000D02*
X125750000Y-95610000D01*
X120630000Y-99060000D02*
X120630000Y-101010000D01*
X150195000Y-101712500D02*
X152065000Y-101712500D01*
X150195000Y-97627500D02*
X150195000Y-101712500D01*
X152065000Y-101712500D02*
X152065000Y-97627500D01*
X145315000Y-105994564D02*
X145315000Y-105540436D01*
X146785000Y-105994564D02*
X146785000Y-105540436D01*
X142280000Y-92170000D02*
X142280000Y-87529000D01*
X142280000Y-90660000D02*
X132040000Y-90660000D01*
X142280000Y-92170000D02*
X132040000Y-92170000D01*
X139010000Y-92170000D02*
X139010000Y-90660000D01*
X142280000Y-87529000D02*
X132040000Y-87529000D01*
X135309000Y-92170000D02*
X135309000Y-90660000D01*
X132040000Y-92170000D02*
X132040000Y-87529000D01*
X83285000Y-90039564D02*
X83285000Y-89585436D01*
X81815000Y-90039564D02*
X81815000Y-89585436D01*
X165790000Y-103410000D02*
X165790000Y-104920000D01*
X162520000Y-108051000D02*
X172760000Y-108051000D01*
X162520000Y-103410000D02*
X172760000Y-103410000D01*
X162520000Y-104920000D02*
X172760000Y-104920000D01*
X172760000Y-103410000D02*
X172760000Y-108051000D01*
X169491000Y-103410000D02*
X169491000Y-104920000D01*
X162520000Y-103410000D02*
X162520000Y-108051000D01*
X140919564Y-94080000D02*
X140465436Y-94080000D01*
X140919564Y-92610000D02*
X140465436Y-92610000D01*
X149325000Y-100276252D02*
X149325000Y-99753748D01*
X147855000Y-100276252D02*
X147855000Y-99753748D01*
X137495000Y-94837500D02*
X137495000Y-98922500D01*
X139365000Y-98922500D02*
X139365000Y-94837500D01*
X139365000Y-94837500D02*
X137495000Y-94837500D01*
X151393000Y-118114000D02*
X151013000Y-118494000D01*
X144720000Y-121640000D02*
X175320000Y-121640000D01*
X144720000Y-110880000D02*
X175320000Y-110880000D01*
X161302000Y-117832000D02*
X160907000Y-118228000D01*
X144720000Y-122200000D02*
X175320000Y-122200000D01*
X144720000Y-110880000D02*
X144720000Y-122200000D01*
X156473000Y-118114000D02*
X156093000Y-118494000D01*
X153788000Y-115186000D02*
X153408000Y-115566000D01*
X159134000Y-115452000D02*
X158739000Y-115848000D01*
X154054000Y-115452000D02*
X153659000Y-115848000D01*
X145772000Y-118121000D02*
X145666000Y-118228000D01*
X156222000Y-117832000D02*
X155827000Y-118228000D01*
X148708000Y-115186000D02*
X148601000Y-115293000D01*
X175320000Y-110880000D02*
X175320000Y-122200000D01*
X174108000Y-115186000D02*
X173728000Y-115566000D01*
X163948000Y-115186000D02*
X163568000Y-115566000D01*
X166382000Y-117832000D02*
X165987000Y-118228000D01*
X171713000Y-118114000D02*
X171333000Y-118494000D01*
X151142000Y-117832000D02*
X150747000Y-118228000D01*
X166633000Y-118114000D02*
X166253000Y-118494000D01*
X144480000Y-122440000D02*
X144980000Y-122440000D01*
X169028000Y-115186000D02*
X168648000Y-115566000D01*
X144720000Y-112940000D02*
X175320000Y-112940000D01*
X164214000Y-115452000D02*
X163819000Y-115848000D01*
X148974000Y-115452000D02*
X148867000Y-115559000D01*
X144720000Y-119140000D02*
X175320000Y-119140000D01*
X171462000Y-117832000D02*
X171067000Y-118228000D01*
X169294000Y-115452000D02*
X168899000Y-115848000D01*
X144480000Y-121700000D02*
X144480000Y-122440000D01*
X161553000Y-118114000D02*
X161173000Y-118494000D01*
X146038000Y-118387000D02*
X145932000Y-118494000D01*
X158868000Y-115186000D02*
X158488000Y-115566000D01*
X174374000Y-115452000D02*
X173979000Y-115848000D01*
X149500000Y-116840000D02*
G75*
G03*
X149500000Y-116840000I-2180000J0D01*
G01*
X169820000Y-116840000D02*
G75*
G03*
X169820000Y-116840000I-2180000J0D01*
G01*
X159660000Y-116840000D02*
G75*
G03*
X159660000Y-116840000I-2180000J0D01*
G01*
X174900000Y-116840000D02*
G75*
G03*
X174900000Y-116840000I-2180000J0D01*
G01*
X154580000Y-116840000D02*
G75*
G03*
X154580000Y-116840000I-2180000J0D01*
G01*
X164740000Y-116840000D02*
G75*
G03*
X164740000Y-116840000I-2180000J0D01*
G01*
X150550000Y-103410000D02*
X150550000Y-104920000D01*
X147280000Y-104920000D02*
X157520000Y-104920000D01*
X157520000Y-103410000D02*
X157520000Y-108051000D01*
X154251000Y-103410000D02*
X154251000Y-104920000D01*
X147280000Y-103410000D02*
X147280000Y-108051000D01*
X147280000Y-103410000D02*
X157520000Y-103410000D01*
X147280000Y-108051000D02*
X157520000Y-108051000D01*
X73342500Y-74830000D02*
X71057500Y-74830000D01*
X71057500Y-74830000D02*
X71057500Y-76300000D01*
X71057500Y-76300000D02*
X73342500Y-76300000D01*
X160604564Y-105945000D02*
X160150436Y-105945000D01*
X160604564Y-107415000D02*
X160150436Y-107415000D01*
X131073000Y-118114000D02*
X130693000Y-118494000D01*
X125742000Y-117832000D02*
X125347000Y-118228000D01*
X114000000Y-122440000D02*
X114500000Y-122440000D01*
X114240000Y-121640000D02*
X144840000Y-121640000D01*
X115292000Y-118121000D02*
X115186000Y-118228000D01*
X128654000Y-115452000D02*
X128259000Y-115848000D01*
X123308000Y-115186000D02*
X122928000Y-115566000D01*
X144840000Y-110880000D02*
X144840000Y-122200000D01*
X140982000Y-117832000D02*
X140587000Y-118228000D01*
X130822000Y-117832000D02*
X130427000Y-118228000D01*
X115558000Y-118387000D02*
X115452000Y-118494000D01*
X118228000Y-115186000D02*
X118121000Y-115293000D01*
X120662000Y-117832000D02*
X120267000Y-118228000D01*
X138814000Y-115452000D02*
X138419000Y-115848000D01*
X114240000Y-122200000D02*
X144840000Y-122200000D01*
X143894000Y-115452000D02*
X143499000Y-115848000D01*
X143628000Y-115186000D02*
X143248000Y-115566000D01*
X136153000Y-118114000D02*
X135773000Y-118494000D01*
X133468000Y-115186000D02*
X133088000Y-115566000D01*
X141233000Y-118114000D02*
X140853000Y-118494000D01*
X123574000Y-115452000D02*
X123179000Y-115848000D01*
X114240000Y-119140000D02*
X144840000Y-119140000D01*
X118494000Y-115452000D02*
X118387000Y-115559000D01*
X114000000Y-121700000D02*
X114000000Y-122440000D01*
X114240000Y-110880000D02*
X144840000Y-110880000D01*
X138548000Y-115186000D02*
X138168000Y-115566000D01*
X120913000Y-118114000D02*
X120533000Y-118494000D01*
X125993000Y-118114000D02*
X125613000Y-118494000D01*
X133734000Y-115452000D02*
X133339000Y-115848000D01*
X114240000Y-112940000D02*
X144840000Y-112940000D01*
X114240000Y-110880000D02*
X114240000Y-122200000D01*
X128388000Y-115186000D02*
X128008000Y-115566000D01*
X135902000Y-117832000D02*
X135507000Y-118228000D01*
X139340000Y-116840000D02*
G75*
G03*
X139340000Y-116840000I-2180000J0D01*
G01*
X119020000Y-116840000D02*
G75*
G03*
X119020000Y-116840000I-2180000J0D01*
G01*
X124100000Y-116840000D02*
G75*
G03*
X124100000Y-116840000I-2180000J0D01*
G01*
X144420000Y-116840000D02*
G75*
G03*
X144420000Y-116840000I-2180000J0D01*
G01*
X134260000Y-116840000D02*
G75*
G03*
X134260000Y-116840000I-2180000J0D01*
G01*
X129180000Y-116840000D02*
G75*
G03*
X129180000Y-116840000I-2180000J0D01*
G01*
X171399564Y-92610000D02*
X170945436Y-92610000D01*
X171399564Y-94080000D02*
X170945436Y-94080000D01*
X69240000Y-100524437D02*
X70304437Y-99460000D01*
X76060000Y-106280000D02*
X76060000Y-103930000D01*
X70304437Y-99460000D02*
X76060000Y-99460000D01*
X76060000Y-99460000D02*
X76060000Y-101810000D01*
X68606250Y-100628750D02*
X68606250Y-101416250D01*
X69240000Y-105215563D02*
X69240000Y-103930000D01*
X68212500Y-101022500D02*
X69000000Y-101022500D01*
X70304437Y-106280000D02*
X76060000Y-106280000D01*
X69240000Y-105215563D02*
X70304437Y-106280000D01*
X69240000Y-100524437D02*
X69240000Y-101810000D01*
X73882500Y-110155000D02*
X77967500Y-110155000D01*
X73882500Y-108285000D02*
X73882500Y-110155000D01*
X77967500Y-108285000D02*
X73882500Y-108285000D01*
X118445000Y-102347500D02*
X120315000Y-102347500D01*
X118445000Y-98262500D02*
X118445000Y-102347500D01*
X120315000Y-102347500D02*
X120315000Y-98262500D01*
X155826000Y-80128000D02*
X156221000Y-79732000D01*
X156092000Y-80394000D02*
X156472000Y-80014000D01*
X175320000Y-76440000D02*
X144720000Y-76440000D01*
X148327000Y-77466000D02*
X148707000Y-77086000D01*
X174268000Y-77459000D02*
X174374000Y-77352000D01*
X165986000Y-80128000D02*
X166381000Y-79732000D01*
X175320000Y-73380000D02*
X144720000Y-73380000D01*
X163567000Y-77466000D02*
X163947000Y-77086000D01*
X153658000Y-77748000D02*
X154053000Y-77352000D01*
X145932000Y-80394000D02*
X146312000Y-80014000D01*
X160906000Y-80128000D02*
X161301000Y-79732000D01*
X175320000Y-84700000D02*
X175320000Y-73380000D01*
X145666000Y-80128000D02*
X146061000Y-79732000D01*
X148578000Y-77748000D02*
X148973000Y-77352000D01*
X163818000Y-77748000D02*
X164213000Y-77352000D01*
X171066000Y-80128000D02*
X171173000Y-80021000D01*
X144720000Y-84700000D02*
X144720000Y-73380000D01*
X158487000Y-77466000D02*
X158867000Y-77086000D01*
X175320000Y-84700000D02*
X144720000Y-84700000D01*
X168898000Y-77748000D02*
X169293000Y-77352000D01*
X175320000Y-82640000D02*
X144720000Y-82640000D01*
X175320000Y-73940000D02*
X144720000Y-73940000D01*
X151012000Y-80394000D02*
X151392000Y-80014000D01*
X168647000Y-77466000D02*
X169027000Y-77086000D01*
X166252000Y-80394000D02*
X166632000Y-80014000D01*
X175560000Y-73140000D02*
X175060000Y-73140000D01*
X174002000Y-77193000D02*
X174108000Y-77086000D01*
X161172000Y-80394000D02*
X161552000Y-80014000D01*
X150746000Y-80128000D02*
X151141000Y-79732000D01*
X158738000Y-77748000D02*
X159133000Y-77352000D01*
X175560000Y-73880000D02*
X175560000Y-73140000D01*
X153407000Y-77466000D02*
X153787000Y-77086000D01*
X171332000Y-80394000D02*
X171439000Y-80287000D01*
X164740000Y-78740000D02*
G75*
G03*
X164740000Y-78740000I-2180000J0D01*
G01*
X174900000Y-78740000D02*
G75*
G03*
X174900000Y-78740000I-2180000J0D01*
G01*
X149500000Y-78740000D02*
G75*
G03*
X149500000Y-78740000I-2180000J0D01*
G01*
X154580000Y-78740000D02*
G75*
G03*
X154580000Y-78740000I-2180000J0D01*
G01*
X159660000Y-78740000D02*
G75*
G03*
X159660000Y-78740000I-2180000J0D01*
G01*
X169820000Y-78740000D02*
G75*
G03*
X169820000Y-78740000I-2180000J0D01*
G01*
X152380000Y-99060000D02*
X152380000Y-97110000D01*
X157500000Y-99060000D02*
X157500000Y-101010000D01*
X152380000Y-99060000D02*
X152380000Y-101010000D01*
X157500000Y-99060000D02*
X157500000Y-95610000D01*
X72480000Y-110220000D02*
X68580000Y-110220000D01*
X72480000Y-108220000D02*
X68580000Y-108220000D01*
X72480000Y-110220000D02*
X72480000Y-108220000D01*
X71057500Y-67210000D02*
X71057500Y-68680000D01*
X71057500Y-68680000D02*
X73342500Y-68680000D01*
X73342500Y-67210000D02*
X71057500Y-67210000D01*
X140235000Y-96573748D02*
X140235000Y-97096252D01*
X141705000Y-96573748D02*
X141705000Y-97096252D01*
X172760000Y-92170000D02*
X172760000Y-87529000D01*
X169490000Y-92170000D02*
X169490000Y-90660000D01*
X165789000Y-92170000D02*
X165789000Y-90660000D01*
X162520000Y-92170000D02*
X162520000Y-87529000D01*
X172760000Y-87529000D02*
X162520000Y-87529000D01*
X172760000Y-90660000D02*
X162520000Y-90660000D01*
X172760000Y-92170000D02*
X162520000Y-92170000D01*
X167975000Y-94837500D02*
X167975000Y-98922500D01*
X169845000Y-98922500D02*
X169845000Y-94837500D01*
X169845000Y-94837500D02*
X167975000Y-94837500D01*
X78158748Y-95785000D02*
X78681252Y-95785000D01*
X78158748Y-97255000D02*
X78681252Y-97255000D01*
X114835000Y-105994564D02*
X114835000Y-105540436D01*
X116305000Y-105994564D02*
X116305000Y-105540436D01*
X157520000Y-92170000D02*
X157520000Y-87529000D01*
X147280000Y-92170000D02*
X147280000Y-87529000D01*
X157520000Y-90660000D02*
X147280000Y-90660000D01*
X150549000Y-92170000D02*
X150549000Y-90660000D01*
X154250000Y-92170000D02*
X154250000Y-90660000D01*
X157520000Y-87529000D02*
X147280000Y-87529000D01*
X157520000Y-92170000D02*
X147280000Y-92170000D01*
X127040000Y-92170000D02*
X127040000Y-87529000D01*
X120069000Y-92170000D02*
X120069000Y-90660000D01*
X116800000Y-92170000D02*
X116800000Y-87529000D01*
X127040000Y-90660000D02*
X116800000Y-90660000D01*
X127040000Y-92170000D02*
X116800000Y-92170000D01*
X123770000Y-92170000D02*
X123770000Y-90660000D01*
X127040000Y-87529000D02*
X116800000Y-87529000D01*
X80745000Y-90039564D02*
X80745000Y-89585436D01*
X79275000Y-90039564D02*
X79275000Y-89585436D01*
X159435436Y-89635000D02*
X159889564Y-89635000D01*
X159435436Y-88165000D02*
X159889564Y-88165000D01*
X128955436Y-88165000D02*
X129409564Y-88165000D01*
X128955436Y-89635000D02*
X129409564Y-89635000D01*
X67250000Y-112940000D02*
X77530000Y-112940000D01*
X71238000Y-115186000D02*
X71131000Y-115293000D01*
X73923000Y-118114000D02*
X73543000Y-118494000D01*
X67010000Y-121700000D02*
X67010000Y-122440000D01*
X76584000Y-115452000D02*
X76189000Y-115848000D01*
X67250000Y-121640000D02*
X77530000Y-121640000D01*
X67250000Y-122200000D02*
X77530000Y-122200000D01*
X67250000Y-110880000D02*
X67250000Y-122200000D01*
X67010000Y-122440000D02*
X67510000Y-122440000D01*
X71504000Y-115452000D02*
X71397000Y-115559000D01*
X67250000Y-110880000D02*
X77530000Y-110880000D01*
X73672000Y-117832000D02*
X73277000Y-118228000D01*
X76318000Y-115186000D02*
X75938000Y-115566000D01*
X68302000Y-118121000D02*
X68196000Y-118228000D01*
X68568000Y-118387000D02*
X68462000Y-118494000D01*
X77530000Y-110880000D02*
X77530000Y-122200000D01*
X67250000Y-119140000D02*
X77530000Y-119140000D01*
X77110000Y-116840000D02*
G75*
G03*
X77110000Y-116840000I-2180000J0D01*
G01*
X72030000Y-116840000D02*
G75*
G03*
X72030000Y-116840000I-2180000J0D01*
G01*
%LPC*%
D18*
X82550000Y-93980000D03*
D19*
X82550000Y-96520000D03*
X82550000Y-99060000D03*
X82550000Y-101600000D03*
X82550000Y-104140000D03*
X82550000Y-106680000D03*
X82550000Y-109220000D03*
X82550000Y-111760000D03*
X82550000Y-114300000D03*
X82550000Y-116840000D03*
X107950000Y-116840000D03*
X107950000Y-114300000D03*
X107950000Y-111760000D03*
X107950000Y-109220000D03*
X107950000Y-106680000D03*
X107950000Y-104140000D03*
X107950000Y-101600000D03*
X107950000Y-99060000D03*
X107950000Y-96520000D03*
X107950000Y-93980000D03*
D20*
X163195000Y-98995000D03*
X164465000Y-98995000D03*
X165735000Y-98995000D03*
X167005000Y-98995000D03*
X167005000Y-94045000D03*
X165735000Y-94045000D03*
X164465000Y-94045000D03*
X163195000Y-94045000D03*
D21*
X171450000Y-95885000D03*
X171450000Y-97785000D03*
D22*
X73330000Y-71755000D03*
X71755000Y-71755000D03*
D23*
X134620000Y-106680000D03*
D24*
X137160000Y-106680000D03*
X139700000Y-106680000D03*
D25*
X85090000Y-90725000D03*
X85090000Y-88900000D03*
D26*
X142240000Y-78740000D03*
D27*
X137160000Y-78740000D03*
X132080000Y-78740000D03*
X127000000Y-78740000D03*
X121920000Y-78740000D03*
X116840000Y-78740000D03*
D20*
X132715000Y-98995000D03*
X133985000Y-98995000D03*
X135255000Y-98995000D03*
X136525000Y-98995000D03*
X136525000Y-94045000D03*
X135255000Y-94045000D03*
X133985000Y-94045000D03*
X132715000Y-94045000D03*
D28*
X130810000Y-106680000D03*
X128985000Y-106680000D03*
D29*
X116840000Y-100325000D03*
X116840000Y-98425000D03*
D23*
X119380000Y-106680000D03*
D24*
X121920000Y-106680000D03*
X124460000Y-106680000D03*
D30*
X70485000Y-96520000D03*
D31*
X72765000Y-90220000D03*
D30*
X75045000Y-96520000D03*
D32*
X125095000Y-96585000D03*
X123825000Y-96585000D03*
X122555000Y-96585000D03*
X121285000Y-96585000D03*
X121285000Y-101535000D03*
X122555000Y-101535000D03*
X123825000Y-101535000D03*
X125095000Y-101535000D03*
D33*
X151130000Y-100665000D03*
X151130000Y-97790000D03*
D25*
X146050000Y-106680000D03*
X146050000Y-104855000D03*
D23*
X139700000Y-88900000D03*
D24*
X137160000Y-88900000D03*
X134620000Y-88900000D03*
D25*
X82550000Y-88900000D03*
X82550000Y-90725000D03*
D23*
X165100000Y-106680000D03*
D24*
X167640000Y-106680000D03*
X170180000Y-106680000D03*
D28*
X141605000Y-93345000D03*
X139780000Y-93345000D03*
D29*
X148590000Y-100965000D03*
X148590000Y-99065000D03*
D34*
X138430000Y-95885000D03*
X138430000Y-98760000D03*
D26*
X147320000Y-116840000D03*
D27*
X152400000Y-116840000D03*
X157480000Y-116840000D03*
X162560000Y-116840000D03*
X167640000Y-116840000D03*
X172720000Y-116840000D03*
D23*
X149860000Y-106680000D03*
D24*
X152400000Y-106680000D03*
X154940000Y-106680000D03*
D22*
X73330000Y-75565000D03*
X71755000Y-75565000D03*
D28*
X161290000Y-106680000D03*
X159465000Y-106680000D03*
D26*
X116840000Y-116840000D03*
D27*
X121920000Y-116840000D03*
X127000000Y-116840000D03*
X132080000Y-116840000D03*
X137160000Y-116840000D03*
X142240000Y-116840000D03*
D28*
X172085000Y-93345000D03*
X170260000Y-93345000D03*
D35*
X69850000Y-102870000D03*
X75450000Y-102870000D03*
D36*
X74930000Y-109220000D03*
X77805000Y-109220000D03*
D33*
X119380000Y-101300000D03*
X119380000Y-98425000D03*
D26*
X172720000Y-78740000D03*
D27*
X167640000Y-78740000D03*
X162560000Y-78740000D03*
X157480000Y-78740000D03*
X152400000Y-78740000D03*
X147320000Y-78740000D03*
D32*
X156845000Y-96585000D03*
X155575000Y-96585000D03*
X154305000Y-96585000D03*
X153035000Y-96585000D03*
X153035000Y-101535000D03*
X154305000Y-101535000D03*
X155575000Y-101535000D03*
X156845000Y-101535000D03*
D37*
X71880000Y-109220000D03*
X68580000Y-109220000D03*
D22*
X71755000Y-67945000D03*
X73330000Y-67945000D03*
D21*
X140970000Y-97785000D03*
X140970000Y-95885000D03*
D23*
X170180000Y-88900000D03*
D24*
X167640000Y-88900000D03*
X165100000Y-88900000D03*
D34*
X168910000Y-95885000D03*
X168910000Y-98760000D03*
D38*
X77470000Y-96520000D03*
X79370000Y-96520000D03*
D25*
X115570000Y-106680000D03*
X115570000Y-104855000D03*
D23*
X154940000Y-88900000D03*
D24*
X152400000Y-88900000D03*
X149860000Y-88900000D03*
D23*
X124460000Y-88900000D03*
D24*
X121920000Y-88900000D03*
X119380000Y-88900000D03*
D25*
X80010000Y-90725000D03*
X80010000Y-88900000D03*
D39*
X158750000Y-88900000D03*
X160575000Y-88900000D03*
X128270000Y-88900000D03*
X130095000Y-88900000D03*
D26*
X69850000Y-116840000D03*
D27*
X74930000Y-116840000D03*
M02*
