%FSLAX45Y45*%
G04 Gerber Fmt 4.5, Leading zero omitted, Abs format (unit mm)*
G04 Created by KiCad (PCBNEW (6.0.4)) date 2022-03-29 14:22:05*
%MOMM*%
%LPD*%
G01*
G04 APERTURE LIST*
%TA.AperFunction,Profile*%
%ADD10C,0.100000*%
%TD*%
%ADD11C,0.200000*%
G04 APERTURE END LIST*
D10*
X6477000Y-13208000D02*
X17777000Y-13208000D01*
X17777000Y-6428000D02*
X6477000Y-6428000D01*
X17777000Y-13208000D02*
X17777000Y-6428000D01*
X6477000Y-6428000D02*
X6477000Y-13208000D01*
D11*
X6729619Y-13523476D02*
X6729619Y-13323476D01*
X6777238Y-13323476D01*
X6805809Y-13333000D01*
X6824857Y-13352048D01*
X6834381Y-13371095D01*
X6843905Y-13409190D01*
X6843905Y-13437762D01*
X6834381Y-13475857D01*
X6824857Y-13494905D01*
X6805809Y-13513952D01*
X6777238Y-13523476D01*
X6729619Y-13523476D01*
X6929619Y-13523476D02*
X6929619Y-13390143D01*
X6929619Y-13428238D02*
X6939143Y-13409190D01*
X6948667Y-13399667D01*
X6967714Y-13390143D01*
X6986762Y-13390143D01*
X7053428Y-13523476D02*
X7053428Y-13390143D01*
X7053428Y-13323476D02*
X7043905Y-13333000D01*
X7053428Y-13342524D01*
X7062952Y-13333000D01*
X7053428Y-13323476D01*
X7053428Y-13342524D01*
X7177238Y-13523476D02*
X7158190Y-13513952D01*
X7148667Y-13494905D01*
X7148667Y-13323476D01*
X7282000Y-13523476D02*
X7262952Y-13513952D01*
X7253428Y-13494905D01*
X7253428Y-13323476D01*
X7510571Y-13523476D02*
X7510571Y-13323476D01*
X7577238Y-13466333D01*
X7643905Y-13323476D01*
X7643905Y-13523476D01*
X7824857Y-13523476D02*
X7824857Y-13418714D01*
X7815333Y-13399667D01*
X7796286Y-13390143D01*
X7758190Y-13390143D01*
X7739143Y-13399667D01*
X7824857Y-13513952D02*
X7805809Y-13523476D01*
X7758190Y-13523476D01*
X7739143Y-13513952D01*
X7729619Y-13494905D01*
X7729619Y-13475857D01*
X7739143Y-13456809D01*
X7758190Y-13447286D01*
X7805809Y-13447286D01*
X7824857Y-13437762D01*
X7920095Y-13390143D02*
X7920095Y-13590143D01*
X7920095Y-13399667D02*
X7939143Y-13390143D01*
X7977238Y-13390143D01*
X7996286Y-13399667D01*
X8005809Y-13409190D01*
X8015333Y-13428238D01*
X8015333Y-13485381D01*
X8005809Y-13504428D01*
X7996286Y-13513952D01*
X7977238Y-13523476D01*
X7939143Y-13523476D01*
X7920095Y-13513952D01*
X8101048Y-13504428D02*
X8110571Y-13513952D01*
X8101048Y-13523476D01*
X8091524Y-13513952D01*
X8101048Y-13504428D01*
X8101048Y-13523476D01*
X8101048Y-13399667D02*
X8110571Y-13409190D01*
X8101048Y-13418714D01*
X8091524Y-13409190D01*
X8101048Y-13399667D01*
X8101048Y-13418714D01*
M02*
