%FSLAX45Y45*%
G04 Gerber Fmt 4.5, Leading zero omitted, Abs format (unit mm)*
G04 Created by KiCad (PCBNEW (6.0.4)) date 2022-03-29 14:22:05*
%MOMM*%
%LPD*%
G01*
G04 APERTURE LIST*
%TA.AperFunction,Profile*%
%ADD10C,0.100000*%
%TD*%
%ADD11C,0.200000*%
%ADD12C,0.060000*%
%ADD13C,0.090000*%
%ADD14C,0.100000*%
%ADD15C,0.130000*%
G04 APERTURE END LIST*
D10*
X6477000Y-13208000D02*
X17777000Y-13208000D01*
X17777000Y-6428000D02*
X6477000Y-6428000D01*
X17777000Y-13208000D02*
X17777000Y-6428000D01*
X6477000Y-6428000D02*
X6477000Y-13208000D01*
D11*
D12*
X6764500Y-9050500D02*
X6824500Y-9110500D01*
X6824500Y-9050500D02*
X6764500Y-9110500D01*
X7717000Y-9050500D02*
X7777000Y-9110500D01*
X7777000Y-9050500D02*
X7717000Y-9110500D01*
X11336500Y-9812500D02*
X11396500Y-9872500D01*
X11396500Y-9812500D02*
X11336500Y-9872500D01*
X14321000Y-9558500D02*
X14381000Y-9618500D01*
X14381000Y-9558500D02*
X14321000Y-9618500D01*
X14638500Y-10003000D02*
X14698500Y-10063000D01*
X14698500Y-10003000D02*
X14638500Y-10063000D01*
X17369000Y-9749000D02*
X17429000Y-9809000D01*
X17429000Y-9749000D02*
X17369000Y-9809000D01*
D13*
X8300000Y-9398000D02*
G75*
G03*
X8300000Y-9398000I-45000J0D01*
G01*
X8300000Y-9652000D02*
G75*
G03*
X8300000Y-9652000I-45000J0D01*
G01*
X8300000Y-9906000D02*
G75*
G03*
X8300000Y-9906000I-45000J0D01*
G01*
X8300000Y-10160000D02*
G75*
G03*
X8300000Y-10160000I-45000J0D01*
G01*
X8300000Y-10414000D02*
G75*
G03*
X8300000Y-10414000I-45000J0D01*
G01*
X8300000Y-10668000D02*
G75*
G03*
X8300000Y-10668000I-45000J0D01*
G01*
X8300000Y-10922000D02*
G75*
G03*
X8300000Y-10922000I-45000J0D01*
G01*
X8300000Y-11176000D02*
G75*
G03*
X8300000Y-11176000I-45000J0D01*
G01*
X8300000Y-11430000D02*
G75*
G03*
X8300000Y-11430000I-45000J0D01*
G01*
X8300000Y-11684000D02*
G75*
G03*
X8300000Y-11684000I-45000J0D01*
G01*
X10840000Y-9398000D02*
G75*
G03*
X10840000Y-9398000I-45000J0D01*
G01*
X10840000Y-9652000D02*
G75*
G03*
X10840000Y-9652000I-45000J0D01*
G01*
X10840000Y-9906000D02*
G75*
G03*
X10840000Y-9906000I-45000J0D01*
G01*
X10840000Y-10160000D02*
G75*
G03*
X10840000Y-10160000I-45000J0D01*
G01*
X10840000Y-10414000D02*
G75*
G03*
X10840000Y-10414000I-45000J0D01*
G01*
X10840000Y-10668000D02*
G75*
G03*
X10840000Y-10668000I-45000J0D01*
G01*
X10840000Y-10922000D02*
G75*
G03*
X10840000Y-10922000I-45000J0D01*
G01*
X10840000Y-11176000D02*
G75*
G03*
X10840000Y-11176000I-45000J0D01*
G01*
X10840000Y-11430000D02*
G75*
G03*
X10840000Y-11430000I-45000J0D01*
G01*
X10840000Y-11684000D02*
G75*
G03*
X10840000Y-11684000I-45000J0D01*
G01*
D14*
X11938000Y-8840000D02*
X11938000Y-8940000D01*
X11888000Y-8890000D02*
X11988000Y-8890000D01*
X11938000Y-10618000D02*
X11938000Y-10718000D01*
X11888000Y-10668000D02*
X11988000Y-10668000D01*
X12192000Y-8840000D02*
X12192000Y-8940000D01*
X12142000Y-8890000D02*
X12242000Y-8890000D01*
X12192000Y-10618000D02*
X12192000Y-10718000D01*
X12142000Y-10668000D02*
X12242000Y-10668000D01*
X12446000Y-8840000D02*
X12446000Y-8940000D01*
X12396000Y-8890000D02*
X12496000Y-8890000D01*
X12446000Y-10618000D02*
X12446000Y-10718000D01*
X12396000Y-10668000D02*
X12496000Y-10668000D01*
X13462000Y-8840000D02*
X13462000Y-8940000D01*
X13412000Y-8890000D02*
X13512000Y-8890000D01*
X13462000Y-10618000D02*
X13462000Y-10718000D01*
X13412000Y-10668000D02*
X13512000Y-10668000D01*
X13716000Y-8840000D02*
X13716000Y-8940000D01*
X13666000Y-8890000D02*
X13766000Y-8890000D01*
X13716000Y-10618000D02*
X13716000Y-10718000D01*
X13666000Y-10668000D02*
X13766000Y-10668000D01*
X13970000Y-8840000D02*
X13970000Y-8940000D01*
X13920000Y-8890000D02*
X14020000Y-8890000D01*
X13970000Y-10618000D02*
X13970000Y-10718000D01*
X13920000Y-10668000D02*
X14020000Y-10668000D01*
X14986000Y-8840000D02*
X14986000Y-8940000D01*
X14936000Y-8890000D02*
X15036000Y-8890000D01*
X14986000Y-10618000D02*
X14986000Y-10718000D01*
X14936000Y-10668000D02*
X15036000Y-10668000D01*
X15240000Y-8840000D02*
X15240000Y-8940000D01*
X15190000Y-8890000D02*
X15290000Y-8890000D01*
X15240000Y-10618000D02*
X15240000Y-10718000D01*
X15190000Y-10668000D02*
X15290000Y-10668000D01*
X15494000Y-8840000D02*
X15494000Y-8940000D01*
X15444000Y-8890000D02*
X15544000Y-8890000D01*
X15494000Y-10618000D02*
X15494000Y-10718000D01*
X15444000Y-10668000D02*
X15544000Y-10668000D01*
X16510000Y-8840000D02*
X16510000Y-8940000D01*
X16460000Y-8890000D02*
X16560000Y-8890000D01*
X16510000Y-10618000D02*
X16510000Y-10718000D01*
X16460000Y-10668000D02*
X16560000Y-10668000D01*
X16764000Y-8840000D02*
X16764000Y-8940000D01*
X16714000Y-8890000D02*
X16814000Y-8890000D01*
X16764000Y-10618000D02*
X16764000Y-10718000D01*
X16714000Y-10668000D02*
X16814000Y-10668000D01*
X17018000Y-8840000D02*
X17018000Y-8940000D01*
X16968000Y-8890000D02*
X17068000Y-8890000D01*
X17018000Y-10618000D02*
X17018000Y-10718000D01*
X16968000Y-10668000D02*
X17068000Y-10668000D01*
D15*
X7030962Y-11729962D02*
X7030962Y-11638038D01*
X6939038Y-11638038D01*
X6939038Y-11729962D01*
X7030962Y-11729962D01*
X7538962Y-11729962D02*
X7538962Y-11638038D01*
X7447038Y-11638038D01*
X7447038Y-11729962D01*
X7538962Y-11729962D01*
X11729962Y-7919962D02*
X11729962Y-7828038D01*
X11638038Y-7828038D01*
X11638038Y-7919962D01*
X11729962Y-7919962D01*
X11729962Y-11729962D02*
X11729962Y-11638038D01*
X11638038Y-11638038D01*
X11638038Y-11729962D01*
X11729962Y-11729962D01*
X12237962Y-7919962D02*
X12237962Y-7828038D01*
X12146038Y-7828038D01*
X12146038Y-7919962D01*
X12237962Y-7919962D01*
X12237962Y-11729962D02*
X12237962Y-11638038D01*
X12146038Y-11638038D01*
X12146038Y-11729962D01*
X12237962Y-11729962D01*
X12745962Y-7919962D02*
X12745962Y-7828038D01*
X12654038Y-7828038D01*
X12654038Y-7919962D01*
X12745962Y-7919962D01*
X12745962Y-11729962D02*
X12745962Y-11638038D01*
X12654038Y-11638038D01*
X12654038Y-11729962D01*
X12745962Y-11729962D01*
X13253962Y-7919962D02*
X13253962Y-7828038D01*
X13162038Y-7828038D01*
X13162038Y-7919962D01*
X13253962Y-7919962D01*
X13253962Y-11729962D02*
X13253962Y-11638038D01*
X13162038Y-11638038D01*
X13162038Y-11729962D01*
X13253962Y-11729962D01*
X13761962Y-7919962D02*
X13761962Y-7828038D01*
X13670038Y-7828038D01*
X13670038Y-7919962D01*
X13761962Y-7919962D01*
X13761962Y-11729962D02*
X13761962Y-11638038D01*
X13670038Y-11638038D01*
X13670038Y-11729962D01*
X13761962Y-11729962D01*
X14269962Y-7919962D02*
X14269962Y-7828038D01*
X14178038Y-7828038D01*
X14178038Y-7919962D01*
X14269962Y-7919962D01*
X14269962Y-11729962D02*
X14269962Y-11638038D01*
X14178038Y-11638038D01*
X14178038Y-11729962D01*
X14269962Y-11729962D01*
X14777962Y-7919962D02*
X14777962Y-7828038D01*
X14686038Y-7828038D01*
X14686038Y-7919962D01*
X14777962Y-7919962D01*
X14777962Y-11729962D02*
X14777962Y-11638038D01*
X14686038Y-11638038D01*
X14686038Y-11729962D01*
X14777962Y-11729962D01*
X15285962Y-7919962D02*
X15285962Y-7828038D01*
X15194038Y-7828038D01*
X15194038Y-7919962D01*
X15285962Y-7919962D01*
X15285962Y-11729962D02*
X15285962Y-11638038D01*
X15194038Y-11638038D01*
X15194038Y-11729962D01*
X15285962Y-11729962D01*
X15793962Y-7919962D02*
X15793962Y-7828038D01*
X15702038Y-7828038D01*
X15702038Y-7919962D01*
X15793962Y-7919962D01*
X15793962Y-11729962D02*
X15793962Y-11638038D01*
X15702038Y-11638038D01*
X15702038Y-11729962D01*
X15793962Y-11729962D01*
X16301962Y-7919962D02*
X16301962Y-7828038D01*
X16210038Y-7828038D01*
X16210038Y-7919962D01*
X16301962Y-7919962D01*
X16301962Y-11729962D02*
X16301962Y-11638038D01*
X16210038Y-11638038D01*
X16210038Y-11729962D01*
X16301962Y-11729962D01*
X16809962Y-7919962D02*
X16809962Y-7828038D01*
X16718038Y-7828038D01*
X16718038Y-7919962D01*
X16809962Y-7919962D01*
X16809962Y-11729962D02*
X16809962Y-11638038D01*
X16718038Y-11638038D01*
X16718038Y-11729962D01*
X16809962Y-11729962D01*
X17317962Y-7919962D02*
X17317962Y-7828038D01*
X17226038Y-7828038D01*
X17226038Y-7919962D01*
X17317962Y-7919962D01*
X17317962Y-11729962D02*
X17317962Y-11638038D01*
X17226038Y-11638038D01*
X17226038Y-11729962D01*
X17317962Y-11729962D01*
D11*
X6729619Y-13523476D02*
X6729619Y-13323476D01*
X6777238Y-13323476D01*
X6805809Y-13333000D01*
X6824857Y-13352048D01*
X6834381Y-13371095D01*
X6843905Y-13409190D01*
X6843905Y-13437762D01*
X6834381Y-13475857D01*
X6824857Y-13494905D01*
X6805809Y-13513952D01*
X6777238Y-13523476D01*
X6729619Y-13523476D01*
X6929619Y-13523476D02*
X6929619Y-13390143D01*
X6929619Y-13428238D02*
X6939143Y-13409190D01*
X6948667Y-13399667D01*
X6967714Y-13390143D01*
X6986762Y-13390143D01*
X7053428Y-13523476D02*
X7053428Y-13390143D01*
X7053428Y-13323476D02*
X7043905Y-13333000D01*
X7053428Y-13342524D01*
X7062952Y-13333000D01*
X7053428Y-13323476D01*
X7053428Y-13342524D01*
X7177238Y-13523476D02*
X7158190Y-13513952D01*
X7148667Y-13494905D01*
X7148667Y-13323476D01*
X7282000Y-13523476D02*
X7262952Y-13513952D01*
X7253428Y-13494905D01*
X7253428Y-13323476D01*
X7510571Y-13523476D02*
X7510571Y-13323476D01*
X7577238Y-13466333D01*
X7643905Y-13323476D01*
X7643905Y-13523476D01*
X7824857Y-13523476D02*
X7824857Y-13418714D01*
X7815333Y-13399667D01*
X7796286Y-13390143D01*
X7758190Y-13390143D01*
X7739143Y-13399667D01*
X7824857Y-13513952D02*
X7805809Y-13523476D01*
X7758190Y-13523476D01*
X7739143Y-13513952D01*
X7729619Y-13494905D01*
X7729619Y-13475857D01*
X7739143Y-13456809D01*
X7758190Y-13447286D01*
X7805809Y-13447286D01*
X7824857Y-13437762D01*
X7920095Y-13390143D02*
X7920095Y-13590143D01*
X7920095Y-13399667D02*
X7939143Y-13390143D01*
X7977238Y-13390143D01*
X7996286Y-13399667D01*
X8005809Y-13409190D01*
X8015333Y-13428238D01*
X8015333Y-13485381D01*
X8005809Y-13504428D01*
X7996286Y-13513952D01*
X7977238Y-13523476D01*
X7939143Y-13523476D01*
X7920095Y-13513952D01*
X8101048Y-13504428D02*
X8110571Y-13513952D01*
X8101048Y-13523476D01*
X8091524Y-13513952D01*
X8101048Y-13504428D01*
X8101048Y-13523476D01*
X8101048Y-13399667D02*
X8110571Y-13409190D01*
X8101048Y-13418714D01*
X8091524Y-13409190D01*
X8101048Y-13399667D01*
X8101048Y-13418714D01*
D12*
X6412000Y-13823000D02*
X6472000Y-13883000D01*
X6472000Y-13823000D02*
X6412000Y-13883000D01*
D11*
X6767714Y-13743476D02*
X6786762Y-13743476D01*
X6805809Y-13753000D01*
X6815333Y-13762524D01*
X6824857Y-13781571D01*
X6834381Y-13819667D01*
X6834381Y-13867286D01*
X6824857Y-13905381D01*
X6815333Y-13924428D01*
X6805809Y-13933952D01*
X6786762Y-13943476D01*
X6767714Y-13943476D01*
X6748667Y-13933952D01*
X6739143Y-13924428D01*
X6729619Y-13905381D01*
X6720095Y-13867286D01*
X6720095Y-13819667D01*
X6729619Y-13781571D01*
X6739143Y-13762524D01*
X6748667Y-13753000D01*
X6767714Y-13743476D01*
X6920095Y-13924428D02*
X6929619Y-13933952D01*
X6920095Y-13943476D01*
X6910571Y-13933952D01*
X6920095Y-13924428D01*
X6920095Y-13943476D01*
X7101048Y-13743476D02*
X7062952Y-13743476D01*
X7043905Y-13753000D01*
X7034381Y-13762524D01*
X7015333Y-13791095D01*
X7005809Y-13829190D01*
X7005809Y-13905381D01*
X7015333Y-13924428D01*
X7024857Y-13933952D01*
X7043905Y-13943476D01*
X7082000Y-13943476D01*
X7101048Y-13933952D01*
X7110571Y-13924428D01*
X7120095Y-13905381D01*
X7120095Y-13857762D01*
X7110571Y-13838714D01*
X7101048Y-13829190D01*
X7082000Y-13819667D01*
X7043905Y-13819667D01*
X7024857Y-13829190D01*
X7015333Y-13838714D01*
X7005809Y-13857762D01*
X7243905Y-13743476D02*
X7262952Y-13743476D01*
X7282000Y-13753000D01*
X7291524Y-13762524D01*
X7301048Y-13781571D01*
X7310571Y-13819667D01*
X7310571Y-13867286D01*
X7301048Y-13905381D01*
X7291524Y-13924428D01*
X7282000Y-13933952D01*
X7262952Y-13943476D01*
X7243905Y-13943476D01*
X7224857Y-13933952D01*
X7215333Y-13924428D01*
X7205809Y-13905381D01*
X7196286Y-13867286D01*
X7196286Y-13819667D01*
X7205809Y-13781571D01*
X7215333Y-13762524D01*
X7224857Y-13753000D01*
X7243905Y-13743476D01*
X7434381Y-13743476D02*
X7453428Y-13743476D01*
X7472476Y-13753000D01*
X7482000Y-13762524D01*
X7491524Y-13781571D01*
X7501048Y-13819667D01*
X7501048Y-13867286D01*
X7491524Y-13905381D01*
X7482000Y-13924428D01*
X7472476Y-13933952D01*
X7453428Y-13943476D01*
X7434381Y-13943476D01*
X7415333Y-13933952D01*
X7405809Y-13924428D01*
X7396286Y-13905381D01*
X7386762Y-13867286D01*
X7386762Y-13819667D01*
X7396286Y-13781571D01*
X7405809Y-13762524D01*
X7415333Y-13753000D01*
X7434381Y-13743476D01*
X7586762Y-13943476D02*
X7586762Y-13810143D01*
X7586762Y-13829190D02*
X7596286Y-13819667D01*
X7615333Y-13810143D01*
X7643905Y-13810143D01*
X7662952Y-13819667D01*
X7672476Y-13838714D01*
X7672476Y-13943476D01*
X7672476Y-13838714D02*
X7682000Y-13819667D01*
X7701048Y-13810143D01*
X7729619Y-13810143D01*
X7748667Y-13819667D01*
X7758190Y-13838714D01*
X7758190Y-13943476D01*
X7853428Y-13943476D02*
X7853428Y-13810143D01*
X7853428Y-13829190D02*
X7862952Y-13819667D01*
X7882000Y-13810143D01*
X7910571Y-13810143D01*
X7929619Y-13819667D01*
X7939143Y-13838714D01*
X7939143Y-13943476D01*
X7939143Y-13838714D02*
X7948667Y-13819667D01*
X7967714Y-13810143D01*
X7996286Y-13810143D01*
X8015333Y-13819667D01*
X8024857Y-13838714D01*
X8024857Y-13943476D01*
X8415333Y-13733952D02*
X8243905Y-13991095D01*
X8672476Y-13743476D02*
X8691524Y-13743476D01*
X8710571Y-13753000D01*
X8720095Y-13762524D01*
X8729619Y-13781571D01*
X8739143Y-13819667D01*
X8739143Y-13867286D01*
X8729619Y-13905381D01*
X8720095Y-13924428D01*
X8710571Y-13933952D01*
X8691524Y-13943476D01*
X8672476Y-13943476D01*
X8653429Y-13933952D01*
X8643905Y-13924428D01*
X8634381Y-13905381D01*
X8624857Y-13867286D01*
X8624857Y-13819667D01*
X8634381Y-13781571D01*
X8643905Y-13762524D01*
X8653429Y-13753000D01*
X8672476Y-13743476D01*
X8824857Y-13924428D02*
X8834381Y-13933952D01*
X8824857Y-13943476D01*
X8815333Y-13933952D01*
X8824857Y-13924428D01*
X8824857Y-13943476D01*
X8958190Y-13743476D02*
X8977238Y-13743476D01*
X8996286Y-13753000D01*
X9005810Y-13762524D01*
X9015333Y-13781571D01*
X9024857Y-13819667D01*
X9024857Y-13867286D01*
X9015333Y-13905381D01*
X9005810Y-13924428D01*
X8996286Y-13933952D01*
X8977238Y-13943476D01*
X8958190Y-13943476D01*
X8939143Y-13933952D01*
X8929619Y-13924428D01*
X8920095Y-13905381D01*
X8910571Y-13867286D01*
X8910571Y-13819667D01*
X8920095Y-13781571D01*
X8929619Y-13762524D01*
X8939143Y-13753000D01*
X8958190Y-13743476D01*
X9101048Y-13762524D02*
X9110571Y-13753000D01*
X9129619Y-13743476D01*
X9177238Y-13743476D01*
X9196286Y-13753000D01*
X9205810Y-13762524D01*
X9215333Y-13781571D01*
X9215333Y-13800619D01*
X9205810Y-13829190D01*
X9091524Y-13943476D01*
X9215333Y-13943476D01*
X9282000Y-13743476D02*
X9405810Y-13743476D01*
X9339143Y-13819667D01*
X9367714Y-13819667D01*
X9386762Y-13829190D01*
X9396286Y-13838714D01*
X9405810Y-13857762D01*
X9405810Y-13905381D01*
X9396286Y-13924428D01*
X9386762Y-13933952D01*
X9367714Y-13943476D01*
X9310571Y-13943476D01*
X9291524Y-13933952D01*
X9282000Y-13924428D01*
X9577238Y-13743476D02*
X9539143Y-13743476D01*
X9520095Y-13753000D01*
X9510571Y-13762524D01*
X9491524Y-13791095D01*
X9482000Y-13829190D01*
X9482000Y-13905381D01*
X9491524Y-13924428D01*
X9501048Y-13933952D01*
X9520095Y-13943476D01*
X9558190Y-13943476D01*
X9577238Y-13933952D01*
X9586762Y-13924428D01*
X9596286Y-13905381D01*
X9596286Y-13857762D01*
X9586762Y-13838714D01*
X9577238Y-13829190D01*
X9558190Y-13819667D01*
X9520095Y-13819667D01*
X9501048Y-13829190D01*
X9491524Y-13838714D01*
X9482000Y-13857762D01*
X9672476Y-13743476D02*
X9672476Y-13781571D01*
X9748667Y-13743476D02*
X9748667Y-13781571D01*
X10043905Y-14019667D02*
X10034381Y-14010143D01*
X10015333Y-13981571D01*
X10005810Y-13962524D01*
X9996286Y-13933952D01*
X9986762Y-13886333D01*
X9986762Y-13848238D01*
X9996286Y-13800619D01*
X10005810Y-13772048D01*
X10015333Y-13753000D01*
X10034381Y-13724428D01*
X10043905Y-13714905D01*
X10205810Y-13743476D02*
X10167714Y-13743476D01*
X10148667Y-13753000D01*
X10139143Y-13762524D01*
X10120095Y-13791095D01*
X10110571Y-13829190D01*
X10110571Y-13905381D01*
X10120095Y-13924428D01*
X10129619Y-13933952D01*
X10148667Y-13943476D01*
X10186762Y-13943476D01*
X10205810Y-13933952D01*
X10215333Y-13924428D01*
X10224857Y-13905381D01*
X10224857Y-13857762D01*
X10215333Y-13838714D01*
X10205810Y-13829190D01*
X10186762Y-13819667D01*
X10148667Y-13819667D01*
X10129619Y-13829190D01*
X10120095Y-13838714D01*
X10110571Y-13857762D01*
X10462952Y-13943476D02*
X10462952Y-13743476D01*
X10548667Y-13943476D02*
X10548667Y-13838714D01*
X10539143Y-13819667D01*
X10520095Y-13810143D01*
X10491524Y-13810143D01*
X10472476Y-13819667D01*
X10462952Y-13829190D01*
X10672476Y-13943476D02*
X10653429Y-13933952D01*
X10643905Y-13924428D01*
X10634381Y-13905381D01*
X10634381Y-13848238D01*
X10643905Y-13829190D01*
X10653429Y-13819667D01*
X10672476Y-13810143D01*
X10701048Y-13810143D01*
X10720095Y-13819667D01*
X10729619Y-13829190D01*
X10739143Y-13848238D01*
X10739143Y-13905381D01*
X10729619Y-13924428D01*
X10720095Y-13933952D01*
X10701048Y-13943476D01*
X10672476Y-13943476D01*
X10853429Y-13943476D02*
X10834381Y-13933952D01*
X10824857Y-13914905D01*
X10824857Y-13743476D01*
X11005810Y-13933952D02*
X10986762Y-13943476D01*
X10948667Y-13943476D01*
X10929619Y-13933952D01*
X10920095Y-13914905D01*
X10920095Y-13838714D01*
X10929619Y-13819667D01*
X10948667Y-13810143D01*
X10986762Y-13810143D01*
X11005810Y-13819667D01*
X11015333Y-13838714D01*
X11015333Y-13857762D01*
X10920095Y-13876809D01*
X11091524Y-13933952D02*
X11110571Y-13943476D01*
X11148667Y-13943476D01*
X11167714Y-13933952D01*
X11177238Y-13914905D01*
X11177238Y-13905381D01*
X11167714Y-13886333D01*
X11148667Y-13876809D01*
X11120095Y-13876809D01*
X11101048Y-13867286D01*
X11091524Y-13848238D01*
X11091524Y-13838714D01*
X11101048Y-13819667D01*
X11120095Y-13810143D01*
X11148667Y-13810143D01*
X11167714Y-13819667D01*
X11243905Y-14019667D02*
X11253428Y-14010143D01*
X11272476Y-13981571D01*
X11282000Y-13962524D01*
X11291524Y-13933952D01*
X11301048Y-13886333D01*
X11301048Y-13848238D01*
X11291524Y-13800619D01*
X11282000Y-13772048D01*
X11272476Y-13753000D01*
X11253428Y-13724428D01*
X11243905Y-13714905D01*
D13*
X6472000Y-14117000D02*
G75*
G03*
X6472000Y-14117000I-45000J0D01*
G01*
D11*
X6767714Y-14007476D02*
X6786762Y-14007476D01*
X6805809Y-14017000D01*
X6815333Y-14026524D01*
X6824857Y-14045571D01*
X6834381Y-14083667D01*
X6834381Y-14131286D01*
X6824857Y-14169381D01*
X6815333Y-14188428D01*
X6805809Y-14197952D01*
X6786762Y-14207476D01*
X6767714Y-14207476D01*
X6748667Y-14197952D01*
X6739143Y-14188428D01*
X6729619Y-14169381D01*
X6720095Y-14131286D01*
X6720095Y-14083667D01*
X6729619Y-14045571D01*
X6739143Y-14026524D01*
X6748667Y-14017000D01*
X6767714Y-14007476D01*
X6920095Y-14188428D02*
X6929619Y-14197952D01*
X6920095Y-14207476D01*
X6910571Y-14197952D01*
X6920095Y-14188428D01*
X6920095Y-14207476D01*
X7024857Y-14207476D02*
X7062952Y-14207476D01*
X7082000Y-14197952D01*
X7091524Y-14188428D01*
X7110571Y-14159857D01*
X7120095Y-14121762D01*
X7120095Y-14045571D01*
X7110571Y-14026524D01*
X7101048Y-14017000D01*
X7082000Y-14007476D01*
X7043905Y-14007476D01*
X7024857Y-14017000D01*
X7015333Y-14026524D01*
X7005809Y-14045571D01*
X7005809Y-14093190D01*
X7015333Y-14112238D01*
X7024857Y-14121762D01*
X7043905Y-14131286D01*
X7082000Y-14131286D01*
X7101048Y-14121762D01*
X7110571Y-14112238D01*
X7120095Y-14093190D01*
X7243905Y-14007476D02*
X7262952Y-14007476D01*
X7282000Y-14017000D01*
X7291524Y-14026524D01*
X7301048Y-14045571D01*
X7310571Y-14083667D01*
X7310571Y-14131286D01*
X7301048Y-14169381D01*
X7291524Y-14188428D01*
X7282000Y-14197952D01*
X7262952Y-14207476D01*
X7243905Y-14207476D01*
X7224857Y-14197952D01*
X7215333Y-14188428D01*
X7205809Y-14169381D01*
X7196286Y-14131286D01*
X7196286Y-14083667D01*
X7205809Y-14045571D01*
X7215333Y-14026524D01*
X7224857Y-14017000D01*
X7243905Y-14007476D01*
X7434381Y-14007476D02*
X7453428Y-14007476D01*
X7472476Y-14017000D01*
X7482000Y-14026524D01*
X7491524Y-14045571D01*
X7501048Y-14083667D01*
X7501048Y-14131286D01*
X7491524Y-14169381D01*
X7482000Y-14188428D01*
X7472476Y-14197952D01*
X7453428Y-14207476D01*
X7434381Y-14207476D01*
X7415333Y-14197952D01*
X7405809Y-14188428D01*
X7396286Y-14169381D01*
X7386762Y-14131286D01*
X7386762Y-14083667D01*
X7396286Y-14045571D01*
X7405809Y-14026524D01*
X7415333Y-14017000D01*
X7434381Y-14007476D01*
X7586762Y-14207476D02*
X7586762Y-14074143D01*
X7586762Y-14093190D02*
X7596286Y-14083667D01*
X7615333Y-14074143D01*
X7643905Y-14074143D01*
X7662952Y-14083667D01*
X7672476Y-14102714D01*
X7672476Y-14207476D01*
X7672476Y-14102714D02*
X7682000Y-14083667D01*
X7701048Y-14074143D01*
X7729619Y-14074143D01*
X7748667Y-14083667D01*
X7758190Y-14102714D01*
X7758190Y-14207476D01*
X7853428Y-14207476D02*
X7853428Y-14074143D01*
X7853428Y-14093190D02*
X7862952Y-14083667D01*
X7882000Y-14074143D01*
X7910571Y-14074143D01*
X7929619Y-14083667D01*
X7939143Y-14102714D01*
X7939143Y-14207476D01*
X7939143Y-14102714D02*
X7948667Y-14083667D01*
X7967714Y-14074143D01*
X7996286Y-14074143D01*
X8015333Y-14083667D01*
X8024857Y-14102714D01*
X8024857Y-14207476D01*
X8415333Y-13997952D02*
X8243905Y-14255095D01*
X8672476Y-14007476D02*
X8691524Y-14007476D01*
X8710571Y-14017000D01*
X8720095Y-14026524D01*
X8729619Y-14045571D01*
X8739143Y-14083667D01*
X8739143Y-14131286D01*
X8729619Y-14169381D01*
X8720095Y-14188428D01*
X8710571Y-14197952D01*
X8691524Y-14207476D01*
X8672476Y-14207476D01*
X8653429Y-14197952D01*
X8643905Y-14188428D01*
X8634381Y-14169381D01*
X8624857Y-14131286D01*
X8624857Y-14083667D01*
X8634381Y-14045571D01*
X8643905Y-14026524D01*
X8653429Y-14017000D01*
X8672476Y-14007476D01*
X8824857Y-14188428D02*
X8834381Y-14197952D01*
X8824857Y-14207476D01*
X8815333Y-14197952D01*
X8824857Y-14188428D01*
X8824857Y-14207476D01*
X8958190Y-14007476D02*
X8977238Y-14007476D01*
X8996286Y-14017000D01*
X9005810Y-14026524D01*
X9015333Y-14045571D01*
X9024857Y-14083667D01*
X9024857Y-14131286D01*
X9015333Y-14169381D01*
X9005810Y-14188428D01*
X8996286Y-14197952D01*
X8977238Y-14207476D01*
X8958190Y-14207476D01*
X8939143Y-14197952D01*
X8929619Y-14188428D01*
X8920095Y-14169381D01*
X8910571Y-14131286D01*
X8910571Y-14083667D01*
X8920095Y-14045571D01*
X8929619Y-14026524D01*
X8939143Y-14017000D01*
X8958190Y-14007476D01*
X9091524Y-14007476D02*
X9215333Y-14007476D01*
X9148667Y-14083667D01*
X9177238Y-14083667D01*
X9196286Y-14093190D01*
X9205810Y-14102714D01*
X9215333Y-14121762D01*
X9215333Y-14169381D01*
X9205810Y-14188428D01*
X9196286Y-14197952D01*
X9177238Y-14207476D01*
X9120095Y-14207476D01*
X9101048Y-14197952D01*
X9091524Y-14188428D01*
X9396286Y-14007476D02*
X9301048Y-14007476D01*
X9291524Y-14102714D01*
X9301048Y-14093190D01*
X9320095Y-14083667D01*
X9367714Y-14083667D01*
X9386762Y-14093190D01*
X9396286Y-14102714D01*
X9405810Y-14121762D01*
X9405810Y-14169381D01*
X9396286Y-14188428D01*
X9386762Y-14197952D01*
X9367714Y-14207476D01*
X9320095Y-14207476D01*
X9301048Y-14197952D01*
X9291524Y-14188428D01*
X9577238Y-14074143D02*
X9577238Y-14207476D01*
X9529619Y-13997952D02*
X9482000Y-14140809D01*
X9605810Y-14140809D01*
X9672476Y-14007476D02*
X9672476Y-14045571D01*
X9748667Y-14007476D02*
X9748667Y-14045571D01*
X10043905Y-14283667D02*
X10034381Y-14274143D01*
X10015333Y-14245571D01*
X10005810Y-14226524D01*
X9996286Y-14197952D01*
X9986762Y-14150333D01*
X9986762Y-14112238D01*
X9996286Y-14064619D01*
X10005810Y-14036048D01*
X10015333Y-14017000D01*
X10034381Y-13988428D01*
X10043905Y-13978905D01*
X10110571Y-14026524D02*
X10120095Y-14017000D01*
X10139143Y-14007476D01*
X10186762Y-14007476D01*
X10205810Y-14017000D01*
X10215333Y-14026524D01*
X10224857Y-14045571D01*
X10224857Y-14064619D01*
X10215333Y-14093190D01*
X10101048Y-14207476D01*
X10224857Y-14207476D01*
X10348667Y-14007476D02*
X10367714Y-14007476D01*
X10386762Y-14017000D01*
X10396286Y-14026524D01*
X10405810Y-14045571D01*
X10415333Y-14083667D01*
X10415333Y-14131286D01*
X10405810Y-14169381D01*
X10396286Y-14188428D01*
X10386762Y-14197952D01*
X10367714Y-14207476D01*
X10348667Y-14207476D01*
X10329619Y-14197952D01*
X10320095Y-14188428D01*
X10310571Y-14169381D01*
X10301048Y-14131286D01*
X10301048Y-14083667D01*
X10310571Y-14045571D01*
X10320095Y-14026524D01*
X10329619Y-14017000D01*
X10348667Y-14007476D01*
X10653429Y-14207476D02*
X10653429Y-14007476D01*
X10739143Y-14207476D02*
X10739143Y-14102714D01*
X10729619Y-14083667D01*
X10710571Y-14074143D01*
X10682000Y-14074143D01*
X10662952Y-14083667D01*
X10653429Y-14093190D01*
X10862952Y-14207476D02*
X10843905Y-14197952D01*
X10834381Y-14188428D01*
X10824857Y-14169381D01*
X10824857Y-14112238D01*
X10834381Y-14093190D01*
X10843905Y-14083667D01*
X10862952Y-14074143D01*
X10891524Y-14074143D01*
X10910571Y-14083667D01*
X10920095Y-14093190D01*
X10929619Y-14112238D01*
X10929619Y-14169381D01*
X10920095Y-14188428D01*
X10910571Y-14197952D01*
X10891524Y-14207476D01*
X10862952Y-14207476D01*
X11043905Y-14207476D02*
X11024857Y-14197952D01*
X11015333Y-14178905D01*
X11015333Y-14007476D01*
X11196286Y-14197952D02*
X11177238Y-14207476D01*
X11139143Y-14207476D01*
X11120095Y-14197952D01*
X11110571Y-14178905D01*
X11110571Y-14102714D01*
X11120095Y-14083667D01*
X11139143Y-14074143D01*
X11177238Y-14074143D01*
X11196286Y-14083667D01*
X11205809Y-14102714D01*
X11205809Y-14121762D01*
X11110571Y-14140809D01*
X11282000Y-14197952D02*
X11301048Y-14207476D01*
X11339143Y-14207476D01*
X11358190Y-14197952D01*
X11367714Y-14178905D01*
X11367714Y-14169381D01*
X11358190Y-14150333D01*
X11339143Y-14140809D01*
X11310571Y-14140809D01*
X11291524Y-14131286D01*
X11282000Y-14112238D01*
X11282000Y-14102714D01*
X11291524Y-14083667D01*
X11310571Y-14074143D01*
X11339143Y-14074143D01*
X11358190Y-14083667D01*
X11434381Y-14283667D02*
X11443905Y-14274143D01*
X11462952Y-14245571D01*
X11472476Y-14226524D01*
X11482000Y-14197952D01*
X11491524Y-14150333D01*
X11491524Y-14112238D01*
X11482000Y-14064619D01*
X11472476Y-14036048D01*
X11462952Y-14017000D01*
X11443905Y-13988428D01*
X11434381Y-13978905D01*
D14*
X6422000Y-14331000D02*
X6422000Y-14431000D01*
X6372000Y-14381000D02*
X6472000Y-14381000D01*
D11*
X6834381Y-14471476D02*
X6720095Y-14471476D01*
X6777238Y-14471476D02*
X6777238Y-14271476D01*
X6758190Y-14300048D01*
X6739143Y-14319095D01*
X6720095Y-14328619D01*
X6920095Y-14452428D02*
X6929619Y-14461952D01*
X6920095Y-14471476D01*
X6910571Y-14461952D01*
X6920095Y-14452428D01*
X6920095Y-14471476D01*
X7053428Y-14271476D02*
X7072476Y-14271476D01*
X7091524Y-14281000D01*
X7101048Y-14290524D01*
X7110571Y-14309571D01*
X7120095Y-14347667D01*
X7120095Y-14395286D01*
X7110571Y-14433381D01*
X7101048Y-14452428D01*
X7091524Y-14461952D01*
X7072476Y-14471476D01*
X7053428Y-14471476D01*
X7034381Y-14461952D01*
X7024857Y-14452428D01*
X7015333Y-14433381D01*
X7005809Y-14395286D01*
X7005809Y-14347667D01*
X7015333Y-14309571D01*
X7024857Y-14290524D01*
X7034381Y-14281000D01*
X7053428Y-14271476D01*
X7243905Y-14271476D02*
X7262952Y-14271476D01*
X7282000Y-14281000D01*
X7291524Y-14290524D01*
X7301048Y-14309571D01*
X7310571Y-14347667D01*
X7310571Y-14395286D01*
X7301048Y-14433381D01*
X7291524Y-14452428D01*
X7282000Y-14461952D01*
X7262952Y-14471476D01*
X7243905Y-14471476D01*
X7224857Y-14461952D01*
X7215333Y-14452428D01*
X7205809Y-14433381D01*
X7196286Y-14395286D01*
X7196286Y-14347667D01*
X7205809Y-14309571D01*
X7215333Y-14290524D01*
X7224857Y-14281000D01*
X7243905Y-14271476D01*
X7434381Y-14271476D02*
X7453428Y-14271476D01*
X7472476Y-14281000D01*
X7482000Y-14290524D01*
X7491524Y-14309571D01*
X7501048Y-14347667D01*
X7501048Y-14395286D01*
X7491524Y-14433381D01*
X7482000Y-14452428D01*
X7472476Y-14461952D01*
X7453428Y-14471476D01*
X7434381Y-14471476D01*
X7415333Y-14461952D01*
X7405809Y-14452428D01*
X7396286Y-14433381D01*
X7386762Y-14395286D01*
X7386762Y-14347667D01*
X7396286Y-14309571D01*
X7405809Y-14290524D01*
X7415333Y-14281000D01*
X7434381Y-14271476D01*
X7586762Y-14471476D02*
X7586762Y-14338143D01*
X7586762Y-14357190D02*
X7596286Y-14347667D01*
X7615333Y-14338143D01*
X7643905Y-14338143D01*
X7662952Y-14347667D01*
X7672476Y-14366714D01*
X7672476Y-14471476D01*
X7672476Y-14366714D02*
X7682000Y-14347667D01*
X7701048Y-14338143D01*
X7729619Y-14338143D01*
X7748667Y-14347667D01*
X7758190Y-14366714D01*
X7758190Y-14471476D01*
X7853428Y-14471476D02*
X7853428Y-14338143D01*
X7853428Y-14357190D02*
X7862952Y-14347667D01*
X7882000Y-14338143D01*
X7910571Y-14338143D01*
X7929619Y-14347667D01*
X7939143Y-14366714D01*
X7939143Y-14471476D01*
X7939143Y-14366714D02*
X7948667Y-14347667D01*
X7967714Y-14338143D01*
X7996286Y-14338143D01*
X8015333Y-14347667D01*
X8024857Y-14366714D01*
X8024857Y-14471476D01*
X8415333Y-14261952D02*
X8243905Y-14519095D01*
X8672476Y-14271476D02*
X8691524Y-14271476D01*
X8710571Y-14281000D01*
X8720095Y-14290524D01*
X8729619Y-14309571D01*
X8739143Y-14347667D01*
X8739143Y-14395286D01*
X8729619Y-14433381D01*
X8720095Y-14452428D01*
X8710571Y-14461952D01*
X8691524Y-14471476D01*
X8672476Y-14471476D01*
X8653429Y-14461952D01*
X8643905Y-14452428D01*
X8634381Y-14433381D01*
X8624857Y-14395286D01*
X8624857Y-14347667D01*
X8634381Y-14309571D01*
X8643905Y-14290524D01*
X8653429Y-14281000D01*
X8672476Y-14271476D01*
X8824857Y-14452428D02*
X8834381Y-14461952D01*
X8824857Y-14471476D01*
X8815333Y-14461952D01*
X8824857Y-14452428D01*
X8824857Y-14471476D01*
X8958190Y-14271476D02*
X8977238Y-14271476D01*
X8996286Y-14281000D01*
X9005810Y-14290524D01*
X9015333Y-14309571D01*
X9024857Y-14347667D01*
X9024857Y-14395286D01*
X9015333Y-14433381D01*
X9005810Y-14452428D01*
X8996286Y-14461952D01*
X8977238Y-14471476D01*
X8958190Y-14471476D01*
X8939143Y-14461952D01*
X8929619Y-14452428D01*
X8920095Y-14433381D01*
X8910571Y-14395286D01*
X8910571Y-14347667D01*
X8920095Y-14309571D01*
X8929619Y-14290524D01*
X8939143Y-14281000D01*
X8958190Y-14271476D01*
X9091524Y-14271476D02*
X9215333Y-14271476D01*
X9148667Y-14347667D01*
X9177238Y-14347667D01*
X9196286Y-14357190D01*
X9205810Y-14366714D01*
X9215333Y-14385762D01*
X9215333Y-14433381D01*
X9205810Y-14452428D01*
X9196286Y-14461952D01*
X9177238Y-14471476D01*
X9120095Y-14471476D01*
X9101048Y-14461952D01*
X9091524Y-14452428D01*
X9310571Y-14471476D02*
X9348667Y-14471476D01*
X9367714Y-14461952D01*
X9377238Y-14452428D01*
X9396286Y-14423857D01*
X9405810Y-14385762D01*
X9405810Y-14309571D01*
X9396286Y-14290524D01*
X9386762Y-14281000D01*
X9367714Y-14271476D01*
X9329619Y-14271476D01*
X9310571Y-14281000D01*
X9301048Y-14290524D01*
X9291524Y-14309571D01*
X9291524Y-14357190D01*
X9301048Y-14376238D01*
X9310571Y-14385762D01*
X9329619Y-14395286D01*
X9367714Y-14395286D01*
X9386762Y-14385762D01*
X9396286Y-14376238D01*
X9405810Y-14357190D01*
X9577238Y-14338143D02*
X9577238Y-14471476D01*
X9529619Y-14261952D02*
X9482000Y-14404809D01*
X9605810Y-14404809D01*
X9672476Y-14271476D02*
X9672476Y-14309571D01*
X9748667Y-14271476D02*
X9748667Y-14309571D01*
X10043905Y-14547667D02*
X10034381Y-14538143D01*
X10015333Y-14509571D01*
X10005810Y-14490524D01*
X9996286Y-14461952D01*
X9986762Y-14414333D01*
X9986762Y-14376238D01*
X9996286Y-14328619D01*
X10005810Y-14300048D01*
X10015333Y-14281000D01*
X10034381Y-14252428D01*
X10043905Y-14242905D01*
X10110571Y-14290524D02*
X10120095Y-14281000D01*
X10139143Y-14271476D01*
X10186762Y-14271476D01*
X10205810Y-14281000D01*
X10215333Y-14290524D01*
X10224857Y-14309571D01*
X10224857Y-14328619D01*
X10215333Y-14357190D01*
X10101048Y-14471476D01*
X10224857Y-14471476D01*
X10396286Y-14338143D02*
X10396286Y-14471476D01*
X10348667Y-14261952D02*
X10301048Y-14404809D01*
X10424857Y-14404809D01*
X10653429Y-14471476D02*
X10653429Y-14271476D01*
X10739143Y-14471476D02*
X10739143Y-14366714D01*
X10729619Y-14347667D01*
X10710571Y-14338143D01*
X10682000Y-14338143D01*
X10662952Y-14347667D01*
X10653429Y-14357190D01*
X10862952Y-14471476D02*
X10843905Y-14461952D01*
X10834381Y-14452428D01*
X10824857Y-14433381D01*
X10824857Y-14376238D01*
X10834381Y-14357190D01*
X10843905Y-14347667D01*
X10862952Y-14338143D01*
X10891524Y-14338143D01*
X10910571Y-14347667D01*
X10920095Y-14357190D01*
X10929619Y-14376238D01*
X10929619Y-14433381D01*
X10920095Y-14452428D01*
X10910571Y-14461952D01*
X10891524Y-14471476D01*
X10862952Y-14471476D01*
X11043905Y-14471476D02*
X11024857Y-14461952D01*
X11015333Y-14442905D01*
X11015333Y-14271476D01*
X11196286Y-14461952D02*
X11177238Y-14471476D01*
X11139143Y-14471476D01*
X11120095Y-14461952D01*
X11110571Y-14442905D01*
X11110571Y-14366714D01*
X11120095Y-14347667D01*
X11139143Y-14338143D01*
X11177238Y-14338143D01*
X11196286Y-14347667D01*
X11205809Y-14366714D01*
X11205809Y-14385762D01*
X11110571Y-14404809D01*
X11282000Y-14461952D02*
X11301048Y-14471476D01*
X11339143Y-14471476D01*
X11358190Y-14461952D01*
X11367714Y-14442905D01*
X11367714Y-14433381D01*
X11358190Y-14414333D01*
X11339143Y-14404809D01*
X11310571Y-14404809D01*
X11291524Y-14395286D01*
X11282000Y-14376238D01*
X11282000Y-14366714D01*
X11291524Y-14347667D01*
X11310571Y-14338143D01*
X11339143Y-14338143D01*
X11358190Y-14347667D01*
X11434381Y-14547667D02*
X11443905Y-14538143D01*
X11462952Y-14509571D01*
X11472476Y-14490524D01*
X11482000Y-14461952D01*
X11491524Y-14414333D01*
X11491524Y-14376238D01*
X11482000Y-14328619D01*
X11472476Y-14300048D01*
X11462952Y-14281000D01*
X11443905Y-14252428D01*
X11434381Y-14242905D01*
D15*
X6452962Y-14690962D02*
X6452962Y-14599038D01*
X6361038Y-14599038D01*
X6361038Y-14690962D01*
X6452962Y-14690962D01*
D11*
X6834381Y-14735476D02*
X6720095Y-14735476D01*
X6777238Y-14735476D02*
X6777238Y-14535476D01*
X6758190Y-14564048D01*
X6739143Y-14583095D01*
X6720095Y-14592619D01*
X6920095Y-14716428D02*
X6929619Y-14725952D01*
X6920095Y-14735476D01*
X6910571Y-14725952D01*
X6920095Y-14716428D01*
X6920095Y-14735476D01*
X6996286Y-14535476D02*
X7120095Y-14535476D01*
X7053428Y-14611667D01*
X7082000Y-14611667D01*
X7101048Y-14621190D01*
X7110571Y-14630714D01*
X7120095Y-14649762D01*
X7120095Y-14697381D01*
X7110571Y-14716428D01*
X7101048Y-14725952D01*
X7082000Y-14735476D01*
X7024857Y-14735476D01*
X7005809Y-14725952D01*
X6996286Y-14716428D01*
X7243905Y-14535476D02*
X7262952Y-14535476D01*
X7282000Y-14545000D01*
X7291524Y-14554524D01*
X7301048Y-14573571D01*
X7310571Y-14611667D01*
X7310571Y-14659286D01*
X7301048Y-14697381D01*
X7291524Y-14716428D01*
X7282000Y-14725952D01*
X7262952Y-14735476D01*
X7243905Y-14735476D01*
X7224857Y-14725952D01*
X7215333Y-14716428D01*
X7205809Y-14697381D01*
X7196286Y-14659286D01*
X7196286Y-14611667D01*
X7205809Y-14573571D01*
X7215333Y-14554524D01*
X7224857Y-14545000D01*
X7243905Y-14535476D01*
X7434381Y-14535476D02*
X7453428Y-14535476D01*
X7472476Y-14545000D01*
X7482000Y-14554524D01*
X7491524Y-14573571D01*
X7501048Y-14611667D01*
X7501048Y-14659286D01*
X7491524Y-14697381D01*
X7482000Y-14716428D01*
X7472476Y-14725952D01*
X7453428Y-14735476D01*
X7434381Y-14735476D01*
X7415333Y-14725952D01*
X7405809Y-14716428D01*
X7396286Y-14697381D01*
X7386762Y-14659286D01*
X7386762Y-14611667D01*
X7396286Y-14573571D01*
X7405809Y-14554524D01*
X7415333Y-14545000D01*
X7434381Y-14535476D01*
X7586762Y-14735476D02*
X7586762Y-14602143D01*
X7586762Y-14621190D02*
X7596286Y-14611667D01*
X7615333Y-14602143D01*
X7643905Y-14602143D01*
X7662952Y-14611667D01*
X7672476Y-14630714D01*
X7672476Y-14735476D01*
X7672476Y-14630714D02*
X7682000Y-14611667D01*
X7701048Y-14602143D01*
X7729619Y-14602143D01*
X7748667Y-14611667D01*
X7758190Y-14630714D01*
X7758190Y-14735476D01*
X7853428Y-14735476D02*
X7853428Y-14602143D01*
X7853428Y-14621190D02*
X7862952Y-14611667D01*
X7882000Y-14602143D01*
X7910571Y-14602143D01*
X7929619Y-14611667D01*
X7939143Y-14630714D01*
X7939143Y-14735476D01*
X7939143Y-14630714D02*
X7948667Y-14611667D01*
X7967714Y-14602143D01*
X7996286Y-14602143D01*
X8015333Y-14611667D01*
X8024857Y-14630714D01*
X8024857Y-14735476D01*
X8415333Y-14525952D02*
X8243905Y-14783095D01*
X8672476Y-14535476D02*
X8691524Y-14535476D01*
X8710571Y-14545000D01*
X8720095Y-14554524D01*
X8729619Y-14573571D01*
X8739143Y-14611667D01*
X8739143Y-14659286D01*
X8729619Y-14697381D01*
X8720095Y-14716428D01*
X8710571Y-14725952D01*
X8691524Y-14735476D01*
X8672476Y-14735476D01*
X8653429Y-14725952D01*
X8643905Y-14716428D01*
X8634381Y-14697381D01*
X8624857Y-14659286D01*
X8624857Y-14611667D01*
X8634381Y-14573571D01*
X8643905Y-14554524D01*
X8653429Y-14545000D01*
X8672476Y-14535476D01*
X8824857Y-14716428D02*
X8834381Y-14725952D01*
X8824857Y-14735476D01*
X8815333Y-14725952D01*
X8824857Y-14716428D01*
X8824857Y-14735476D01*
X8958190Y-14535476D02*
X8977238Y-14535476D01*
X8996286Y-14545000D01*
X9005810Y-14554524D01*
X9015333Y-14573571D01*
X9024857Y-14611667D01*
X9024857Y-14659286D01*
X9015333Y-14697381D01*
X9005810Y-14716428D01*
X8996286Y-14725952D01*
X8977238Y-14735476D01*
X8958190Y-14735476D01*
X8939143Y-14725952D01*
X8929619Y-14716428D01*
X8920095Y-14697381D01*
X8910571Y-14659286D01*
X8910571Y-14611667D01*
X8920095Y-14573571D01*
X8929619Y-14554524D01*
X8939143Y-14545000D01*
X8958190Y-14535476D01*
X9205810Y-14535476D02*
X9110571Y-14535476D01*
X9101048Y-14630714D01*
X9110571Y-14621190D01*
X9129619Y-14611667D01*
X9177238Y-14611667D01*
X9196286Y-14621190D01*
X9205810Y-14630714D01*
X9215333Y-14649762D01*
X9215333Y-14697381D01*
X9205810Y-14716428D01*
X9196286Y-14725952D01*
X9177238Y-14735476D01*
X9129619Y-14735476D01*
X9110571Y-14725952D01*
X9101048Y-14716428D01*
X9405810Y-14735476D02*
X9291524Y-14735476D01*
X9348667Y-14735476D02*
X9348667Y-14535476D01*
X9329619Y-14564048D01*
X9310571Y-14583095D01*
X9291524Y-14592619D01*
X9482000Y-14554524D02*
X9491524Y-14545000D01*
X9510571Y-14535476D01*
X9558190Y-14535476D01*
X9577238Y-14545000D01*
X9586762Y-14554524D01*
X9596286Y-14573571D01*
X9596286Y-14592619D01*
X9586762Y-14621190D01*
X9472476Y-14735476D01*
X9596286Y-14735476D01*
X9672476Y-14535476D02*
X9672476Y-14573571D01*
X9748667Y-14535476D02*
X9748667Y-14573571D01*
X10043905Y-14811667D02*
X10034381Y-14802143D01*
X10015333Y-14773571D01*
X10005810Y-14754524D01*
X9996286Y-14725952D01*
X9986762Y-14678333D01*
X9986762Y-14640238D01*
X9996286Y-14592619D01*
X10005810Y-14564048D01*
X10015333Y-14545000D01*
X10034381Y-14516428D01*
X10043905Y-14506905D01*
X10110571Y-14554524D02*
X10120095Y-14545000D01*
X10139143Y-14535476D01*
X10186762Y-14535476D01*
X10205810Y-14545000D01*
X10215333Y-14554524D01*
X10224857Y-14573571D01*
X10224857Y-14592619D01*
X10215333Y-14621190D01*
X10101048Y-14735476D01*
X10224857Y-14735476D01*
X10396286Y-14535476D02*
X10358190Y-14535476D01*
X10339143Y-14545000D01*
X10329619Y-14554524D01*
X10310571Y-14583095D01*
X10301048Y-14621190D01*
X10301048Y-14697381D01*
X10310571Y-14716428D01*
X10320095Y-14725952D01*
X10339143Y-14735476D01*
X10377238Y-14735476D01*
X10396286Y-14725952D01*
X10405810Y-14716428D01*
X10415333Y-14697381D01*
X10415333Y-14649762D01*
X10405810Y-14630714D01*
X10396286Y-14621190D01*
X10377238Y-14611667D01*
X10339143Y-14611667D01*
X10320095Y-14621190D01*
X10310571Y-14630714D01*
X10301048Y-14649762D01*
X10653429Y-14735476D02*
X10653429Y-14535476D01*
X10739143Y-14735476D02*
X10739143Y-14630714D01*
X10729619Y-14611667D01*
X10710571Y-14602143D01*
X10682000Y-14602143D01*
X10662952Y-14611667D01*
X10653429Y-14621190D01*
X10862952Y-14735476D02*
X10843905Y-14725952D01*
X10834381Y-14716428D01*
X10824857Y-14697381D01*
X10824857Y-14640238D01*
X10834381Y-14621190D01*
X10843905Y-14611667D01*
X10862952Y-14602143D01*
X10891524Y-14602143D01*
X10910571Y-14611667D01*
X10920095Y-14621190D01*
X10929619Y-14640238D01*
X10929619Y-14697381D01*
X10920095Y-14716428D01*
X10910571Y-14725952D01*
X10891524Y-14735476D01*
X10862952Y-14735476D01*
X11043905Y-14735476D02*
X11024857Y-14725952D01*
X11015333Y-14706905D01*
X11015333Y-14535476D01*
X11196286Y-14725952D02*
X11177238Y-14735476D01*
X11139143Y-14735476D01*
X11120095Y-14725952D01*
X11110571Y-14706905D01*
X11110571Y-14630714D01*
X11120095Y-14611667D01*
X11139143Y-14602143D01*
X11177238Y-14602143D01*
X11196286Y-14611667D01*
X11205809Y-14630714D01*
X11205809Y-14649762D01*
X11110571Y-14668809D01*
X11282000Y-14725952D02*
X11301048Y-14735476D01*
X11339143Y-14735476D01*
X11358190Y-14725952D01*
X11367714Y-14706905D01*
X11367714Y-14697381D01*
X11358190Y-14678333D01*
X11339143Y-14668809D01*
X11310571Y-14668809D01*
X11291524Y-14659286D01*
X11282000Y-14640238D01*
X11282000Y-14630714D01*
X11291524Y-14611667D01*
X11310571Y-14602143D01*
X11339143Y-14602143D01*
X11358190Y-14611667D01*
X11434381Y-14811667D02*
X11443905Y-14802143D01*
X11462952Y-14773571D01*
X11472476Y-14754524D01*
X11482000Y-14725952D01*
X11491524Y-14678333D01*
X11491524Y-14640238D01*
X11482000Y-14592619D01*
X11472476Y-14564048D01*
X11462952Y-14545000D01*
X11443905Y-14516428D01*
X11434381Y-14506905D01*
M02*
