G04 #@! TF.GenerationSoftware,KiCad,Pcbnew,(6.0.4)*
G04 #@! TF.CreationDate,2022-03-29T14:19:39-03:00*
G04 #@! TF.ProjectId,ESP-pwm_8ch-V1,4553502d-7077-46d5-9f38-63682d56312e,rev?*
G04 #@! TF.SameCoordinates,Original*
G04 #@! TF.FileFunction,Soldermask,Bot*
G04 #@! TF.FilePolarity,Negative*
%FSLAX46Y46*%
G04 Gerber Fmt 4.6, Leading zero omitted, Abs format (unit mm)*
G04 Created by KiCad (PCBNEW (6.0.4)) date 2022-03-29 14:19:39*
%MOMM*%
%LPD*%
G01*
G04 APERTURE LIST*
%ADD10R,2.500000X1.750000*%
%ADD11O,2.500000X1.750000*%
%ADD12R,2.000000X2.500000*%
%ADD13O,2.000000X2.500000*%
%ADD14R,3.500000X3.500000*%
%ADD15C,3.500000*%
G04 APERTURE END LIST*
D10*
X82550000Y-93980000D03*
D11*
X82550000Y-96520000D03*
X82550000Y-99060000D03*
X82550000Y-101600000D03*
X82550000Y-104140000D03*
X82550000Y-106680000D03*
X82550000Y-109220000D03*
X82550000Y-111760000D03*
X82550000Y-114300000D03*
X82550000Y-116840000D03*
X107950000Y-116840000D03*
X107950000Y-114300000D03*
X107950000Y-111760000D03*
X107950000Y-109220000D03*
X107950000Y-106680000D03*
X107950000Y-104140000D03*
X107950000Y-101600000D03*
X107950000Y-99060000D03*
X107950000Y-96520000D03*
X107950000Y-93980000D03*
D12*
X134620000Y-106680000D03*
D13*
X137160000Y-106680000D03*
X139700000Y-106680000D03*
D14*
X142240000Y-78740000D03*
D15*
X137160000Y-78740000D03*
X132080000Y-78740000D03*
X127000000Y-78740000D03*
X121920000Y-78740000D03*
X116840000Y-78740000D03*
D12*
X119380000Y-106680000D03*
D13*
X121920000Y-106680000D03*
X124460000Y-106680000D03*
D12*
X139700000Y-88900000D03*
D13*
X137160000Y-88900000D03*
X134620000Y-88900000D03*
D12*
X165100000Y-106680000D03*
D13*
X167640000Y-106680000D03*
X170180000Y-106680000D03*
D14*
X147320000Y-116840000D03*
D15*
X152400000Y-116840000D03*
X157480000Y-116840000D03*
X162560000Y-116840000D03*
X167640000Y-116840000D03*
X172720000Y-116840000D03*
D12*
X149860000Y-106680000D03*
D13*
X152400000Y-106680000D03*
X154940000Y-106680000D03*
D14*
X116840000Y-116840000D03*
D15*
X121920000Y-116840000D03*
X127000000Y-116840000D03*
X132080000Y-116840000D03*
X137160000Y-116840000D03*
X142240000Y-116840000D03*
D14*
X172720000Y-78740000D03*
D15*
X167640000Y-78740000D03*
X162560000Y-78740000D03*
X157480000Y-78740000D03*
X152400000Y-78740000D03*
X147320000Y-78740000D03*
D12*
X170180000Y-88900000D03*
D13*
X167640000Y-88900000D03*
X165100000Y-88900000D03*
D12*
X154940000Y-88900000D03*
D13*
X152400000Y-88900000D03*
X149860000Y-88900000D03*
D12*
X124460000Y-88900000D03*
D13*
X121920000Y-88900000D03*
X119380000Y-88900000D03*
D14*
X69850000Y-116840000D03*
D15*
X74930000Y-116840000D03*
M02*
